<svg id="Layer_1" data-name="Layer 1" xmlns="http://www.w3.org/2000/svg" viewBox="0 0 801.51 223.25"><defs><style>.cls-1{fill:none;stroke:#000;stroke-miterlimit:2.61;stroke-width:2.79px;}.cls-2{fill:#ed1c24;}.cls-3{fill:#231f20;}</style></defs><path class="cls-1" d="M780.34,1.39a19.77,19.77,0,1,1-19.77,19.77A19.77,19.77,0,0,1,780.34,1.39Z"/><path d="M779,29.55V12.77h5.49l1.49,7.14s.07.48.18,1.35.23,1.72.36,2.58c.09-.64.21-1.44.35-2.4s.22-1.48.25-1.59l1.48-7.08H794V29.55h-3.7l.34-13-2.66,13h-3l-2.66-13,.34,13Zm-8.84,0V16H767V12.77h10.38V16h-3.3V29.55Z"/><path class="cls-2" d="M0,223.25V128.6H42.89q15.36,0,24.21,6.91t8.84,18.85c0,5.77-1.66,10.41-5,14s-8.27,5.9-14.77,7c7.42,1.89,13.07,4.86,17,8.89a20.2,20.2,0,0,1,5.92,14.62q0,11.9-8.38,18.12t-24.38,6.24Zm25.76-82.9v28.53h5.8c6.42,0,10.94-1.09,13.6-3.26s4-5.87,4-11.12q0-7.27-3.89-10.72c-2.61-2.3-6.62-3.43-12-3.43Zm0,40.13v31H32c7,0,11.94-1.18,14.84-3.57s4.35-6.4,4.35-12.08c0-5.25-1.43-9.11-4.26-11.63s-7.22-3.74-13.16-3.74Z"/><path class="cls-2" d="M120.73,203.85c0,3.86.66,6.5,2,7.9s3.77,2.07,7.47,2.07h5.09v9.43H117.83c-6.47,0-11-1.41-13.62-4.18s-3.94-7.76-3.94-14.93V127.87h20.46Z"/><path class="cls-2" d="M160.35,203.07H176l-7.49-27.25ZM143.7,223.25l16.36-51.18q2.4-7.65,5.49-10.63a11.47,11.47,0,0,1,8.31-3c3.26,0,5.82.87,7.66,2.61s3.52,5.07,5.1,10l16.91,52.17H182.07l-3.45-11.48h-20.9l-3.34,11.48Z"/><path class="cls-2" d="M216.76,223.25v-4.18l23.92-49.49H216.33v-9.13h37.74q4.81,0,6.91,1.43a5.22,5.22,0,0,1,2.08,4.66,12.37,12.37,0,0,1-.44,3.19,15.57,15.57,0,0,1-1.18,3.19l-20.32,41.34H266.8v9Z"/><path class="cls-2" d="M298.69,223.25q-7.29,0-10.29-3.22t-3-11.16v-34q0-8,3-11.17c2-2.15,5.43-3.21,10.29-3.21h29.16v9.42H312.34c-2.58,0-4.32.49-5.19,1.43s-1.31,2.8-1.31,5.58v10.24h19.67v9.43H305.84V207c0,2.74.44,4.55,1.28,5.44s2.59,1.35,5.22,1.35h16.51v9.43Z"/><path class="cls-3" d="M480.69,206a69.92,69.92,0,0,1-21.6,12.86,71,71,0,0,1-24.91,4.42,58.41,58.41,0,0,1-18.42-2.8,47.4,47.4,0,0,1-15.07-8.24,46.88,46.88,0,0,1-13.29-16.92,52.41,52.41,0,0,1-4.4-22,49.14,49.14,0,0,1,4.42-20.42,47.28,47.28,0,0,1,28.08-25.66,57.51,57.51,0,0,1,19-3q13,0,22.69,5.19t16.74,16.12l-12,8.84q-4.32-9.21-10.56-13.82A23.23,23.23,0,0,0,437.1,136q-12.25,0-19,9.88t-6.72,27.93q0,16.43,7.59,26.65t19.67,10.23a25.77,25.77,0,0,0,8.5-1.38,29.67,29.67,0,0,0,7.71-4.13V178.72h25.83Z"/><path class="cls-3" d="M493.42,158.11h20.47V196.4c0,5.68.77,9.67,2.32,12s4.11,3.51,7.71,3.51,6.3-1.16,7.83-3.51,2.32-6.33,2.32-12V158.11h10.12v40.64q0,12.24-6.33,18.36t-19.09,6.14q-12.94,0-19.16-6t-6.19-18.51Z"/><path class="cls-3" d="M571.16,200.73h15.63l-7.49-27.26ZM554.51,220.9l16.36-51.17c1.59-5.1,3.43-8.65,5.48-10.63a11.49,11.49,0,0,1,8.31-3c3.26,0,5.83.87,7.66,2.61s3.53,5.08,5.1,10l16.91,52.16H592.88l-3.46-11.47h-20.9l-3.33,11.47Z"/><path class="cls-3" d="M626.1,220.9V158.11h27.4q12.66,0,19.26,4.78c4.37,3.19,6.57,7.8,6.57,13.89,0,4.21-1,7.64-2.92,10.27a15.76,15.76,0,0,1-8.82,5.61L686,220.9H662.08l-14.23-29.59v-1.14c3.91-.56,6.76-1.84,8.58-3.79s2.73-4.76,2.73-8.39-1-6.47-2.9-8.36-4.79-2.83-8.56-2.83c-.58,0-1,0-1.35,0a7.92,7.92,0,0,0-.92.12v54Z"/><path class="cls-3" d="M752.81,14.47V220.9H726.4q-17.4,0-26.53-7.75t-9.13-22.55q0-15.72,9.9-24.11t28.52-8.38h3.19V14.47ZM732.35,166.8q-10.33.15-14.86,5.42c-3,3.52-4.52,9.32-4.52,17.39s1.49,13.78,4.49,17.26,7.95,5.24,14.89,5.34Z"/></svg>