<?xml version="1.0" encoding="UTF-8"?>
<svg id="Layer_1" xmlns="http://www.w3.org/2000/svg" version="1.1" viewBox="0 0 114 109">
  <!-- Generator: Adobe Illustrator 30.1.0, SVG Export Plug-In . SVG Version: 2.1.1 Build 136)  -->
  <defs>
    <style>
      .st0 {
        fill: #f8a61b;
      }

      .st1 {
        fill: none;
      }

      .st2 {
        fill: #fff;
        stroke: #e82d20;
        stroke-width: .55px;
      }

      .st3 {
        fill: #ee5a1c;
      }
    </style>
  </defs>
  <rect class="st1" y="0" width="114" height="109"/>
  <g>
    <circle class="st2" cx="57" cy="54.5" r="45.85"/>
    <g>
      <path class="st3" d="M63.64,83.39c4.66-3.42,7.93-8.67,5.91-14.68-1.64-4.88-4.83-7.27-4.66-12.63-1.19.55-1.37,1.54-1.95,2.63-1.69-2.59-2.28-5.5-1.74-8.42l.94-5.09c.33-1.8.71-3.5.22-5.42-1.11,2.88-2.83,5.07-5.02,7.11l-2.19,2.05c-2.57,2.39-4.95,4.78-6.77,7.78-2.71,4.48-3.83,9.53-2.93,14.8-1.33-.04-2.07-.79-3.43-1.31.05,5.58,3.56,10.4,8.53,13.12.39.21.84.28,1,.66-1.74-.32-3.35-1.02-5.05-1.86-4.49-2.24-8.17-5.94-9.96-10.65-1.61-4.26-1.43-8.92,1.14-12.75.09,3.89,1.45,7.35,4.78,9.27l-1.22-2.9c-2-4.27-1.56-9.07.96-13.08,1.78-2.82,2.24-5.85.89-9.17,2.7,2,4.21,5.08,4.17,8.29-.02,1.29-.88,2.31-.7,3.69,2.17-3.37,4.55-6.41,7.76-8.72,4.75-3.42,7.18-6.52,7.52-12.73,2.54,3.18,3.53,7,3.36,10.89.03,2.34-.62,4.38-.84,6.88,2.63-3.15,3.08-7.06,2.39-11.16,3.73,3.63,4.77,8.93,3.24,13.75-.46,1.46-.9,2.87-.93,4.42-.05,2.64.97,5.3,3.01,7.08-2.05-4.67-1.49-9.31,1.66-12.94.82-.95,1.53-2,3.06-2.3-3.12,6.81,1.35,11.16,1.62,13.85.54,5.44-1.74,10.58-5.59,14.38-2.05,2.02-6.49,5.01-9.18,5.16Z"/>
      <path class="st3" d="M57.78,39.97c-2.41,3.09-5.73,4.92-8.73,8-1.4-4.35-.16-8.85,2.77-12.18,1.51-1.72,2.68-3.56,3.44-5.71.63-1.79.29-3.46.28-5.53,4.05,4.25,6,10.59,2.23,15.42Z"/>
      <path class="st0" d="M63.64,83.39c-.89.65-2.19,1-3.47.85,3.31-1.63,5.53-4.52,5.57-8.21-1.33,1.8-2.27,4.02-4.52,4.99,3.28-4.25,3.15-9.78-.27-13.93-.11,1.97.4,3.7-.38,5.62-1.35-1.71-2.43-3.6-3.16-5.67-1.36-3.83.19-5.55-.45-6.12-.09-.08-.25-.06-.43.14-4.37,4.64-5.58,11.3-2.91,17.2-2.58-1.5-3.76-4.22-3.7-7.3-2.51,3.09-2.79,7.76.5,10.91,1.05,1.01,2.2,1.71,3.42,2.51-.92.24-1.58-.25-2.28-.38-.16-.38-.61-.44-1-.66-4.97-2.72-8.48-7.53-8.53-13.12,1.35.52,2.09,1.27,3.43,1.31-.89-5.28.22-10.32,2.93-14.8,1.82-3,4.2-5.39,6.77-7.78l2.19-2.05c2.19-2.04,3.91-4.24,5.02-7.11.49,1.92.12,3.61-.22,5.42l-.94,5.09c-.54,2.93.05,5.83,1.74,8.42.57-1.09.76-2.08,1.95-2.63-.17,5.36,3.02,7.74,4.66,12.63,2.02,6-1.26,11.26-5.91,14.68Z"/>
    </g>
  </g>
</svg>