<svg width="129" height="117" viewBox="0 0 129 117" fill="none" xmlns="http://www.w3.org/2000/svg">
<path d="M93.4127 78.187C96.6295 80.3119 100.274 81.6242 104.058 82.0204C107.652 83.3109 111.482 83.7116 115.249 83.191C112.049 81.0318 108.407 79.6958 104.621 79.2919C98.5808 77.9481 93.5516 77.3811 93.4127 78.187Z" fill="url(#paint0_linear_1_6995)"/>
<path opacity="0.3" d="M93.4127 78.187C96.6295 80.3119 100.274 81.6242 104.058 82.0204C107.652 83.3109 111.482 83.7116 115.249 83.191C112.049 81.0318 108.407 79.6958 104.621 79.2919C98.5808 77.9481 93.5516 77.3811 93.4127 78.187ZM93.4127 78.187C97.1353 77.7474 100.905 78.1571 104.462 79.388C108.19 79.8202 111.785 81.0936 114.998 83.1206C111.277 83.4655 107.527 83.0349 103.966 81.8538C100.295 81.3793 96.7499 80.1448 93.5381 78.2222L93.4127 78.187Z" fill="url(#paint1_linear_1_6995)" style="mix-blend-mode:multiply"/>
<path d="M98.4907 71.7272L102.064 72.7305L102.535 70.8911L98.9611 69.8878L98.4907 71.7272Z" fill="url(#paint2_linear_1_6995)"/>
<path d="M22.0917 25.2124L6.14899 87.5539C6.1178 87.6759 6.13413 87.8058 6.19438 87.9151C6.25463 88.0245 6.35387 88.1043 6.47027 88.137L88.2893 111.108C88.4119 111.143 88.5427 111.13 88.6568 111.071C88.7709 111.013 88.8605 110.912 88.9085 110.789L104.851 48.4471L22.0917 25.2124Z" fill="url(#paint3_linear_1_6995)"/>
<path d="M22.0917 25.2124L6.14899 87.5539C6.1178 87.6759 6.13413 87.8058 6.19438 87.9151C6.25463 88.0245 6.35387 88.1043 6.47027 88.137L88.2893 111.108C88.4119 111.143 88.5427 111.13 88.6568 111.071C88.7709 111.013 88.8605 110.912 88.9085 110.789L104.851 48.4471L22.0917 25.2124Z" fill="url(#paint4_linear_1_6995)"/>
<path d="M22.0917 25.2124L6.14899 87.5539C6.1178 87.6759 6.13413 87.8058 6.19438 87.9151C6.25463 88.0245 6.35387 88.1043 6.47027 88.137L88.2893 111.108C88.4119 111.143 88.5427 111.13 88.6568 111.071C88.7709 111.013 88.8605 110.912 88.9085 110.789L104.851 48.4471L22.0917 25.2124Z" fill="url(#paint5_linear_1_6995)"/>
<path d="M104.927 48.1185L22.1674 24.8838L21.4114 27.8399L104.171 51.0746L104.927 48.1185Z" fill="url(#paint6_linear_1_6995)" style="mix-blend-mode:multiply"/>
<path d="M21.5715 22.2495L106.713 46.1531L106.243 47.9925C106.194 48.1841 106.074 48.3475 105.91 48.4467C105.746 48.5459 105.552 48.5728 105.369 48.5215L21.6059 25.0051C21.423 24.9538 21.2671 24.8284 21.1724 24.6566C21.0777 24.4847 21.0521 24.2805 21.1011 24.0889L21.5715 22.2495Z" fill="url(#paint7_linear_1_6995)"/>
<path d="M106.714 46.1541L21.5718 22.2505L33.58 3.93601C33.6931 3.76345 33.8541 3.63149 34.0411 3.55806C34.2282 3.48463 34.4323 3.47327 34.6258 3.52552L104.282 23.0814C104.488 23.1265 104.675 23.2406 104.815 23.4067C104.954 23.5728 105.038 23.7819 105.054 24.0024L106.714 46.1541Z" fill="url(#paint8_linear_1_6995)"/>
<path d="M75.0862 47.6257L48.1894 40.0745L45.0479 52.3588L71.9447 59.9101L75.0862 47.6257Z" fill="white"/>
<path d="M71.4418 58.9936L45.987 51.8472L48.7421 41.0737L74.1969 48.2202L71.4418 58.9936ZM46.5144 51.3616L70.9034 58.2088L73.3561 48.6178L49.0925 41.8058L46.5144 51.3616Z" fill="#D0281B"/>
<path d="M51.4655 49.0894L52.2806 49.3182C52.1126 49.9752 52.4048 50.4092 52.9063 50.55C53.0162 50.5906 53.1329 50.6069 53.2491 50.5979C53.3652 50.5889 53.4784 50.5548 53.5813 50.4977C53.6843 50.4406 53.7749 50.3618 53.8474 50.2663C53.9199 50.1707 53.9727 50.0605 54.0025 49.9425C54.3217 48.6943 51.8306 47.9246 52.301 46.0852C52.3562 45.8664 52.4542 45.662 52.5887 45.4851C52.7233 45.3081 52.8915 45.1623 53.0828 45.0571C53.274 44.9519 53.4839 44.8895 53.6994 44.8738C53.9149 44.8582 54.1311 44.8897 54.3343 44.9662C54.5583 45.0076 54.771 45.0999 54.9573 45.2366C55.1436 45.3733 55.2991 45.5511 55.4129 45.7576C55.5266 45.964 55.5958 46.194 55.6156 46.4314C55.6355 46.6688 55.6054 46.9079 55.5276 47.1319L54.7753 46.9207C54.7917 46.8234 54.7896 46.7237 54.7691 46.6273C54.7485 46.5309 54.71 46.4397 54.6557 46.359C54.6014 46.2783 54.5323 46.2097 54.4525 46.1571C54.3728 46.1045 54.2838 46.0689 54.1909 46.0525C53.6893 45.9117 53.4385 45.8413 53.2537 46.5639C53.0689 47.2865 55.4424 48.5161 54.9552 50.4212C54.8956 50.6572 54.79 50.8777 54.645 51.0688C54.5001 51.2599 54.3189 51.4175 54.113 51.5316C53.907 51.6458 53.6808 51.714 53.4484 51.732C53.2161 51.75 52.9827 51.7175 52.7629 51.6363C52.4878 51.6171 52.2219 51.5248 51.9902 51.3681C51.7586 51.2113 51.5689 50.9953 51.4391 50.7404C51.3093 50.4855 51.2436 50.2002 51.2482 49.9113C51.2528 49.6225 51.3276 49.3396 51.4655 49.0894Z" fill="#D0281B"/>
<path d="M57.9271 51.3974L56.4224 50.9749L55.7897 52.1351L54.912 51.8887L57.9959 46.1361L58.8736 46.3825L58.7992 52.98L57.9214 52.7336L57.9271 51.3974ZM58.1287 50.6091L58.252 48.8131C58.3403 48.3689 58.4525 47.9302 58.588 47.4993C58.4997 47.9435 58.3876 48.3821 58.252 48.8131L57.4391 50.4155L58.1287 50.6091Z" fill="#D0281B"/>
<path d="M64.5107 47.9667L62.9315 54.1417L62.1165 53.9129L61.5726 50.5214L61.3948 48.8521C61.2268 49.509 60.9916 50.4287 60.8404 51.0199L60.2356 53.3848L59.4205 53.156L60.9997 46.981L61.8147 47.2098L62.3877 50.7502C62.4675 51.2533 62.5171 51.761 62.5365 52.2706C62.6877 51.6794 62.9229 50.7597 63.0573 50.2341L63.6788 47.8035L64.5107 47.9667Z" fill="#D0281B"/>
<path d="M65.7127 48.3009L67.2174 48.7234C67.466 48.772 67.7016 48.8765 67.9081 49.0296C68.1145 49.1827 68.2869 49.3808 68.4133 49.6103C68.5398 49.8398 68.6173 50.0952 68.6407 50.3591C68.664 50.623 68.6325 50.889 68.5484 51.1389L67.9436 53.5038C67.8972 53.7643 67.7975 54.0112 67.6514 54.2275C67.5053 54.4438 67.3162 54.6244 67.0972 54.7569C66.8782 54.8894 66.6343 54.9706 66.3825 54.995C66.1307 55.0195 65.8768 54.9865 65.6383 54.8984L64.1335 54.476L65.7127 48.3009ZM65.8566 54.0444C66.4836 54.2204 66.8979 53.9143 67.0827 53.1917L67.6707 50.8925C67.8555 50.1699 67.626 49.7534 66.999 49.5774L66.372 49.4013L65.2297 53.8684L65.8566 54.0444Z" fill="#D0281B"/>
<path d="M106.218 39.6788L25.0882 16.9018L24.3469 17.961L24.2966 18.1581L106.304 41.1816L106.218 39.6788Z" fill="url(#paint9_linear_1_6995)" style="mix-blend-mode:multiply"/>
<g style="mix-blend-mode:multiply">
<path d="M41.6582 19.5852L40.7804 19.3388C40.525 19.2665 40.2529 19.2991 40.0197 19.4299C39.7864 19.5607 39.6096 19.7798 39.5253 20.0425L38.8365 22.7359L41.6578 23.528L42.3466 20.8346C42.4135 20.5733 42.3785 20.2948 42.2494 20.0605C42.1202 19.8262 41.9076 19.6552 41.6582 19.5852Z" fill="#E3B381"/>
</g>
<path d="M29.8407 9.64342L105.578 30.9067L105.475 29.4697L30.6156 8.4528L29.8407 9.64342Z" fill="url(#paint10_linear_1_6995)" style="mix-blend-mode:multiply"/>
<path d="M21.0832 4.72197C21.0369 4.90313 21.025 5.09208 21.0484 5.27803C21.0718 5.46398 21.1299 5.64329 21.2194 5.80571C21.3089 5.96814 21.428 6.1105 21.57 6.22468C21.712 6.33885 21.8741 6.4226 22.047 6.47114L117.659 33.3143C117.832 33.3628 118.013 33.3752 118.19 33.3507C118.368 33.3262 118.539 33.2654 118.694 33.1716C118.849 33.0778 118.985 32.953 119.094 32.8042C119.203 32.6554 119.282 32.4856 119.329 32.3044C119.403 31.9455 119.343 31.5703 119.16 31.2568C118.978 30.9433 118.687 30.7156 118.348 30.6209L22.7358 3.77778C22.5682 3.72118 22.3914 3.70089 22.2161 3.71815C22.0408 3.73541 21.8707 3.78986 21.7161 3.87819C21.5615 3.96651 21.4257 4.08686 21.3169 4.23192C21.2081 4.37698 21.1286 4.54371 21.0832 4.72197Z" fill="url(#paint11_linear_1_6995)"/>
<mask id="mask0_1_6995" style="mask-type:luminance" maskUnits="userSpaceOnUse" x="21" y="3" width="99" height="31">
<path d="M21.0793 4.72246C21.033 4.90362 21.0211 5.09257 21.0445 5.27852C21.0679 5.46447 21.126 5.64378 21.2155 5.8062C21.305 5.96863 21.4241 6.11099 21.5661 6.22516C21.7081 6.33934 21.8702 6.42309 22.0431 6.47163L117.655 33.3148C117.828 33.3633 118.009 33.3757 118.186 33.3512C118.364 33.3267 118.535 33.2659 118.69 33.1721C118.845 33.0783 118.981 32.9535 119.09 32.8047C119.199 32.6559 119.279 32.486 119.325 32.3049C119.399 31.946 119.339 31.5708 119.156 31.2573C118.974 30.9438 118.683 30.7161 118.344 30.6214L22.7319 3.77827C22.5643 3.72167 22.3875 3.70138 22.2122 3.71864C22.0369 3.7359 21.8668 3.79035 21.7122 3.87867C21.5576 3.967 21.4217 4.08735 21.3129 4.23241C21.2041 4.37747 21.1246 4.5442 21.0793 4.72246Z" fill="white"/>
</mask>
<g mask="url(#mask0_1_6995)">
<path d="M21.0895 4.72222C21.0432 4.90338 21.0314 5.09233 21.0548 5.27827C21.0781 5.46422 21.1362 5.64353 21.2257 5.80596C21.3152 5.96838 21.4344 6.11074 21.5764 6.22492C21.7184 6.33909 21.8805 6.42285 22.0534 6.47139L117.666 33.3145C117.839 33.3631 118.019 33.3755 118.196 33.351C118.374 33.3265 118.545 33.2656 118.7 33.1718C118.855 33.0781 118.991 32.9532 119.1 32.8044C119.209 32.6556 119.289 32.4858 119.335 32.3046C119.41 31.9457 119.349 31.5706 119.167 31.2571C118.984 30.9436 118.693 30.7158 118.354 30.6212L22.7422 3.77803C22.5746 3.72142 22.3977 3.70114 22.2224 3.7184C22.0471 3.73566 21.877 3.79011 21.7224 3.87843C21.5678 3.96675 21.432 4.08711 21.3232 4.23216C21.2144 4.37722 21.1349 4.54395 21.0895 4.72222Z" fill="url(#paint12_linear_1_6995)"/>
<g style="mix-blend-mode:multiply" opacity="0.4">
<path d="M73.331 22.7671C75.6176 22.2744 77.9396 21.9843 80.2726 21.8997L81.6733 21.9408L82.551 22.1873L83.9304 22.5745L85.0589 22.8913C85.9089 23.0673 86.7467 23.3025 87.5668 23.5954C89.3377 24.3595 91.0688 25.2216 92.7526 26.1779C94.9755 27.5325 97.3269 28.641 99.7689 29.4855L103.97 30.6648C105.377 31.064 106.749 31.5904 108.069 32.2383C106.756 31.5698 105.39 31.0214 103.986 30.5991L100.162 29.5254C97.7256 28.7411 95.386 27.6589 93.1914 26.3011C91.4932 25.3173 89.7469 24.4275 87.9597 23.6354C87.1505 23.3064 86.3097 23.0703 85.4519 22.9313L84.3233 22.6144C83.8573 22.4275 83.3741 22.2919 82.8813 22.2096L82.0036 21.9632L80.6869 21.5935C78.2083 21.7715 75.7479 22.164 73.331 22.7671Z" fill="#E3B381"/>
<path d="M92.1293 21.498C92.5744 21.7554 92.9651 22.1046 93.2779 22.5245L93.7873 23.1604C94.2514 23.5425 94.7528 23.872 95.283 24.1436C99.0235 26.1094 103.297 26.6625 107.381 25.7096C103.363 26.6489 99.1587 26.1147 95.4711 24.1964C94.9614 23.9299 94.4809 23.6062 94.0381 23.2308L93.8221 21.9732C93.4972 21.5354 93.0834 21.1787 92.6108 20.9291L92.1293 21.498Z" fill="#E3B381"/>
<path d="M93.5089 21.8856C94.6403 23.3011 96.1749 24.2994 97.8875 24.7342C99.6296 25.171 101.407 25.4344 103.197 25.5207L105.986 25.3884L103.343 25.2098C101.555 25.1306 99.7798 24.8448 98.0509 24.3577C96.3955 23.9965 94.9062 23.057 93.8269 21.6932L93.5089 21.8856Z" fill="#E3B381"/>
<path d="M89.913 20.4524L92.8372 22.6815C93.5578 23.2173 94.3069 23.7097 95.0808 24.1563C96.321 24.6379 97.6014 24.9974 98.9053 25.23C102.039 26.2525 105.323 26.6737 108.6 26.4732C105.368 26.667 102.13 26.2352 99.0475 25.1996C97.7642 24.9745 96.5045 24.6209 95.2857 24.1434C94.4962 23.725 93.7452 23.2314 93.0421 22.6687L90.1011 20.5052L89.913 20.4524Z" fill="#E3B381"/>
<path d="M80.8525 16.9937C84.4817 18.5032 87.9633 20.3767 91.2487 22.5879L95.7403 25.2571C96.6538 25.6171 97.5988 25.8824 98.5617 26.0492C99.2752 26.3191 100.009 26.5252 100.756 26.6653C104.071 27.1031 107.278 27.4401 110.706 27.6985C107.466 27.4929 104.117 27.1864 100.802 26.7486L98.6076 26.1325C97.644 25.9693 96.6987 25.7039 95.7862 25.3404L91.3114 22.6055C88.0184 20.4156 84.5312 18.5642 80.8984 17.0769L80.8525 16.9937Z" fill="#E3B381"/>
<path d="M69.5127 14.0218C71.6193 15.9832 74.1284 17.4103 76.8457 18.1929C78.1564 18.6664 79.4973 19.0428 80.8583 19.3194C82.324 19.6253 83.7691 20.0311 85.1844 20.5339C87.5311 21.4299 89.7817 22.5809 91.8995 23.9682L94.4107 25.4477C95.6811 26.2779 97.0531 26.9236 98.4893 27.3672C99.4023 27.7285 100.347 27.9938 101.311 28.1593L110.332 29.1432L101.599 27.818C100.664 27.6279 99.7419 27.3691 98.8408 27.0435C97.4501 26.538 96.1059 25.9014 94.825 25.1415L92.3138 23.662C90.1697 22.2712 87.9062 21.0936 85.5528 20.1445C84.1468 19.6098 82.6994 19.2035 81.2267 18.9299C79.8657 18.6534 78.5248 18.2769 77.2141 17.8034C74.5411 17.101 72.0788 15.7077 70.0523 13.7509L69.5127 14.0218Z" fill="#E3B381"/>
<path d="M76.6629 21.8033C78.3787 21.4895 80.1122 21.2941 81.8524 21.2184L83.1276 21.2244L83.6292 21.3652C84.1029 21.4319 84.5664 21.562 85.0085 21.7524C88.647 22.973 92.1518 24.5942 95.4641 26.5889L96.0911 26.7649C97.057 27.3722 98.0705 27.8923 99.1206 28.3195C100.327 28.7638 101.563 29.111 102.82 29.358L104.387 29.7981C106.709 30.3548 108.946 31.2436 111.036 32.4393C108.913 31.2655 106.658 30.3724 104.324 29.7805L102.757 29.3404C101.521 29.0993 100.306 28.7579 99.1206 28.3195C98.1015 27.8738 97.1105 27.3604 96.1538 26.7825L95.5268 26.6065C92.3229 24.5606 88.9326 22.8541 85.406 21.512C84.9224 21.3084 84.4172 21.1665 83.9013 21.0895L83.3997 20.9487L82.1076 21.0084C80.2777 21.1447 78.4587 21.4103 76.6629 21.8033Z" fill="#E3B381"/>
<path d="M47.5547 13.9822C48.6447 13.6168 49.8208 13.6492 50.8911 14.074L51.3927 14.2148C52.291 14.4523 53.2184 14.5465 54.1435 14.4943L54.8332 14.6879C55.8673 14.7337 56.9031 14.7189 57.9356 14.6436C59.5646 14.4906 61.2063 14.688 62.76 15.2235L63.8258 15.5228C64.9072 15.7574 65.9748 16.0572 67.0233 16.4205L67.5876 16.5789C68.4882 16.8346 69.3355 17.2635 70.0865 17.8437C70.0865 17.8437 69.1247 17.9257 67.9794 17.6746L67.227 17.4634C66.6751 17.3729 66.1144 17.3575 65.5588 17.4175C64.8752 17.4067 64.1927 17.3562 63.5144 17.266C61.2573 16.6323 58.6778 16.4713 55.806 15.8763L51.668 14.7146L49.5991 14.1337L49.2856 14.0457C47.9063 13.6585 47.7182 13.6057 47.6555 13.5881L47.5547 13.9822ZM70.0115 17.6114C69.2663 17.1208 68.4548 16.7506 67.6044 16.5132L67.1028 16.3724C66.0545 16.0083 64.9869 15.7086 63.9053 15.4747L62.9022 15.1931C61.362 14.6976 59.7473 14.5069 58.1405 14.6307C57.1264 14.7572 56.1044 14.7998 55.084 14.7583L54.3943 14.5647C53.4488 14.5772 52.5049 14.4776 51.5808 14.2676L50.8911 14.074C49.936 13.6266 48.8603 13.5492 47.8558 13.8555L51.8684 14.9821L56.0064 16.1438C58.8278 16.9359 61.3737 17.2282 63.6353 17.5815L65.6965 17.6674L67.3647 17.7133L68.1798 17.9421C68.7459 18.2415 69.3648 18.4153 69.998 18.4525L70.0115 17.6114Z" fill="#E3B381"/>
<path d="M43.444 13.4638L43.9456 13.6046C45.128 13.3 46.3409 13.1441 47.5586 13.1404L48.7498 13.4748C51.5253 13.9602 54.3312 14.2302 57.1446 14.2827L57.8342 14.4763C59.3601 14.4276 60.8869 14.5263 62.3955 14.7712C64.7822 15.1251 67.119 15.7811 69.3548 16.725L70.9849 17.1826L72.2389 17.5347C73.5555 17.9043 74.1825 18.0803 74.3079 18.1155C73.2211 18.4356 72.0802 18.5 70.9669 18.3041C69.8371 18.1237 68.6979 18.0155 67.5555 17.98L66.427 17.6632C59.9364 16.9962 53.5171 15.7125 47.2484 13.8278L45.9945 13.4758C45.054 13.2117 43.8874 13.3066 43.612 12.8069L43.444 13.4638ZM72.2512 17.7494L70.8718 17.3621L69.2417 16.9045C67.0763 15.8383 64.7939 15.0557 62.4459 14.5741C60.9572 14.3421 59.4517 14.2493 57.9473 14.2968L57.2577 14.1032C54.4196 14.1179 51.5869 13.8414 48.8002 13.2778L47.609 12.9433C46.44 12.9487 45.2755 13.0942 44.1382 13.3771L43.6993 13.2538C44.0755 13.3594 44.9532 13.6059 45.7683 13.8347L47.0849 14.2043C53.3464 16.1095 59.7599 17.4152 66.2467 18.1054L67.3125 18.4047C68.3784 18.7039 69.5618 18.5433 70.7239 18.7288C71.8061 18.9567 72.9247 18.9085 73.9854 18.5883C73.4582 18.2051 72.8714 17.9212 72.2512 17.7494Z" fill="#E3B381"/>
<path d="M41.0745 12.2346L41.7641 12.4282C41.9423 12.4076 42.1213 12.4578 42.2657 12.5691L43.1648 12.4694C43.5771 12.509 43.98 12.6221 44.356 12.8039C45.4058 12.769 46.4466 12.5876 47.4506 12.2645C48.402 12.2584 49.3529 12.3138 50.2978 12.4302L53.1191 13.2223C54.2333 13.3467 55.3565 13.3554 56.4724 13.2484L57.4341 13.1663C59.6424 13.0128 61.8604 13.1852 64.023 13.6784L65.4023 14.0657L65.4191 14L64.2905 13.6831C65.9461 14.6283 67.6772 15.4206 69.4641 16.0509L74.4171 17.4415L75.1067 17.6351C75.8215 17.7905 76.4975 18.1002 77.0917 18.5444C77.0917 18.5444 76.6529 18.4212 75.9251 18.6393L75.3608 18.4809C73.4082 18.496 71.3134 18.5415 69.269 18.39C67.2247 18.2385 65.9998 18.0355 64.5701 17.8453C56.9411 16.7377 49.3927 15.0889 41.9768 12.9104L40.6602 12.5407C40.284 12.4351 39.9705 12.3471 40.059 11.7383C40.059 11.7383 40.2885 12.1548 41.0745 12.2346ZM76.9114 18.9866C76.3574 18.5162 75.694 18.2085 74.9891 18.0949L74.2995 17.9013L69.3465 16.5107C67.3992 15.6761 65.5196 14.6775 63.7263 13.5247C61.5578 13.0754 59.3454 12.9035 57.1374 13.0126L56.1757 13.0947C55.0616 13.2379 53.9344 13.2291 52.8224 13.0686L51.255 12.6285L50.2519 12.3469C49.3005 12.2579 48.3423 12.2964 47.4002 12.4616C46.4277 12.4613 45.456 12.4001 44.4904 12.2783C44.164 12.0883 43.7979 11.9855 43.4245 11.9791C43.1182 11.9658 42.8184 11.8817 42.5468 11.7327C42.5468 11.7327 42.5468 11.7327 42.1706 11.627L41.3556 11.3982L40.5405 11.1694C40.5405 11.1694 40.5405 11.1694 41.0835 11.6739C41.3986 11.8312 41.7386 11.9267 42.0866 11.9555C49.4889 14.0971 57.0145 15.7395 64.6172 16.8728C65.9965 17.26 67.7274 17.3235 69.3789 17.4351C71.0303 17.5467 73.3926 17.5059 75.4247 17.4427L75.989 17.6011L76.8668 17.8476L76.9114 18.9866Z" fill="#E3B381"/>
<path d="M66.8899 20.8877C72.8023 20.0792 78.7964 20.1959 84.676 21.2341C78.7932 20.2326 72.8042 20.116 66.8899 20.8877Z" fill="#E3B381"/>
<path d="M60.5914 18.4174C64.1652 19.51 67.8898 19.9605 71.6071 19.7499L72.757 19.7207C76.0334 19.4764 79.3262 19.6675 82.5568 20.2893C85.2053 20.8904 87.7237 22.0033 89.9829 23.5711C87.7291 21.9429 85.1894 20.7991 82.511 20.206C79.2126 19.5367 75.8502 19.2781 72.4939 19.4356L71.428 19.1363C67.7524 19.4213 64.0585 18.9813 60.5377 17.8391L60.5914 18.4174Z" fill="#E3B381"/>
<path d="M81.5981 23.5402C82.7512 23.1704 83.9692 23.0791 85.1607 23.2731C85.9623 23.3587 86.7455 23.5786 87.4805 23.9244C88.0284 24.2198 88.5186 24.6201 88.9258 25.1046C88.4638 24.6188 87.9342 24.209 87.3551 23.8892C86.5981 23.5403 85.7947 23.3147 84.9727 23.2203C83.8406 23.012 82.6761 23.1224 81.5981 23.5402Z" fill="#E3B381"/>
<path d="M79.7632 23.3755C81.9136 22.4066 84.3353 22.3313 86.5368 23.165C88.4588 23.6773 90.2111 24.7291 91.605 26.2072C90.1359 24.7145 88.3353 23.6282 86.3655 23.0465C84.2042 22.2771 81.845 22.3947 79.7632 23.3755Z" fill="#E3B381"/>
<path d="M97.4983 26.8052C98.9548 27.6995 100.523 28.3767 102.158 28.8175L104.415 29.4512L105.105 29.6448C107.61 30.1723 110.081 30.8661 112.503 31.7218C110.06 30.8608 107.568 30.1612 105.042 29.6272L104.415 29.4512L102.158 28.8175C100.526 28.3384 98.9682 27.6165 97.5319 26.6738L97.4983 26.8052Z" fill="#E3B381"/>
<path d="M53.9624 14.9362C54.6705 14.7908 55.4 14.8037 56.1031 14.9739L56.4792 15.0796L57.2943 15.3084L57.984 15.502C58.4556 15.5548 58.9317 15.5466 59.4014 15.4775C59.8922 15.4056 60.3901 15.4032 60.8815 15.4706L66.3988 17.0196C66.9793 17.1059 67.5477 17.2655 68.0916 17.4948C68.0916 17.4948 68.0916 17.4948 65.5916 17.2858C64.8947 17.1695 64.19 17.113 63.4845 17.1167C62.7583 17.1001 62.0337 17.0377 61.3147 16.93L59.4338 16.4019L57.4902 15.8562L56.9886 15.7154C54.2714 15.3046 53.8325 15.1814 53.8538 14.8353L53.9624 14.9362ZM66.0394 16.8483L68.0457 17.4115L64.472 16.4082C63.7458 16.2759 63.0324 16.0756 62.3403 15.8098C61.899 15.6171 61.4351 15.4869 60.961 15.4225C60.4613 15.3717 59.9572 15.3961 59.4641 15.4951L58.0467 15.5196L57.357 15.326L56.5419 15.0972L56.1658 14.9915C55.5053 14.8774 54.8334 14.8545 54.1673 14.9233L56.9259 15.6978L57.8037 15.9442L59.6846 16.4723L61.5655 17.0004C62.2583 17.149 62.9662 17.2059 63.6726 17.1695L65.8423 17.3562L66.0394 16.8483Z" fill="#E3B381"/>
<path d="M60.5826 15.3169C60.9738 15.3516 61.3559 15.4589 61.7112 15.6338L63.2786 16.0738C64.4071 16.3907 64.5325 16.4259 64.5325 16.4259C63.3695 16.4506 62.2096 16.2911 61.092 15.9528C60.5793 15.7702 60.0557 15.6232 59.5246 15.5128C59.0925 15.4598 58.6701 15.3412 58.2707 15.1607C58.2707 15.1607 58.3792 15.2616 60.5826 15.3169ZM63.4667 16.1266L62.5889 15.8802C62.3255 15.8748 62.0673 15.8024 61.8366 15.669C61.534 15.4784 61.1864 15.3808 60.8334 15.3874L58.7386 15.4329L59.7418 15.7146C60.3284 15.7673 60.9014 15.9282 61.4346 16.1898C62.3047 16.5429 63.2085 16.7966 64.1305 16.9467L63.4667 16.1266Z" fill="#E3B381"/>
<path d="M21.5902 4.86333C21.6365 5.15144 21.7432 5.42519 21.9027 5.6648C22.0623 5.90441 22.2706 6.10389 22.5127 6.24883C23.0359 6.64356 23.6156 6.94888 24.2301 7.15345C26.7483 8.14213 29.3519 8.87309 32.0045 9.3361L34.6377 10.0754C35.6093 10.1883 36.5874 10.2276 37.5644 10.193C39.0901 10.1506 40.6164 10.2493 42.1256 10.4878L43.3169 10.8223L44.1319 11.0511L46.1136 11.185C47.1245 11.1627 48.1338 11.2803 49.1153 11.5348C48.1028 11.3406 47.0791 11.2178 46.0509 11.1674L44.0692 11.0335L43.2542 10.8047L42.1256 10.4878C40.5995 10.2557 39.0605 10.1294 37.5185 10.1097L34.659 9.72933L32.0045 9.3361C29.3589 8.83962 26.7582 8.10946 24.2301 7.15345C23.6472 6.94118 23.087 6.66593 22.5586 6.33213C22.3386 6.20823 22.1534 6.02602 22.0216 5.80369C21.8898 5.58137 21.8159 5.3267 21.8074 5.06512C29.4039 5.57845 37.1459 6.8367 44.6998 8.04214C46.2148 8.32537 47.7041 8.74347 49.1513 9.29189C47.6183 8.8713 46.0616 8.55184 44.4904 8.3354C36.9992 7.14756 29.1777 5.93739 21.5812 5.42407L21.2051 5.31845L21.5902 4.86333Z" fill="#E3B381"/>
<path d="M28.1435 8.95472C30.6297 9.89884 33.1888 10.6173 35.7925 11.1022L39.6014 11.1858L40.6045 11.4674C45.0043 11.4464 49.3955 11.8774 53.715 12.7543C49.4031 11.8565 45.0176 11.4035 40.6213 11.4017L39.6182 11.1201C38.3698 11.2053 37.1169 11.1832 35.872 11.0541C33.2466 10.5559 30.6747 9.78665 28.1939 8.75764L28.1435 8.95472Z" fill="#E3B381"/>
<path d="M33.5136 11.0943C34.9424 11.6304 36.4584 11.8646 37.9741 11.7833L39.1407 11.6884L40.4663 11.4973L42.1177 11.6089L43.7859 11.6548L44.4756 11.8484L45.3747 11.7488L47.0048 12.2064C49.1654 12.4619 51.3094 12.8523 53.4256 13.3754L53.8645 13.4986L55.1184 13.8507C55.3103 13.8555 55.5006 13.8134 55.6741 13.7277C55.8477 13.642 55.9998 13.515 56.1183 13.3569C56.1183 13.3569 55.6077 13.7768 55.2606 13.8202C54.848 13.782 54.445 13.6688 54.0694 13.4857C51.9377 12.8873 49.6593 12.5997 47.6317 12.3825L45.8549 12.2357L44.9559 12.3353L44.2662 12.1417L42.6607 12.1134L40.9925 12.0675L39.6042 12.241L38.5002 12.3535C37.0062 12.4407 35.5106 12.2124 34.1025 11.6821L33.5136 11.0943Z" fill="#E3B381"/>
<path d="M24.0322 6.11043C24.2964 6.10985 24.556 6.18274 24.7845 6.32166L26.2892 6.74411L26.9162 6.92013C28.2955 7.30737 29.826 7.1034 31.2267 7.14458C32.6113 6.94739 34.0067 6.84524 35.404 6.83878C36.0309 7.0148 37.661 7.47245 38.915 7.8245L40.5451 8.28215C40.9687 8.22503 41.3967 8.34519 41.7363 8.61659C40.661 8.96157 39.5146 8.98139 38.429 8.67377L37.3005 8.35693L32.3921 8.10545C31.4701 8.07912 30.5509 7.98575 29.6413 7.82601L27.3842 7.19233L23.9986 6.24182C24.0037 6.19657 24.015 6.15232 24.0322 6.11043ZM40.4779 8.54492C39.8957 8.46741 39.3262 8.30753 38.7851 8.06966L37.5938 7.73522L35.068 8.15261C34.3657 8.03701 33.6535 8.00232 32.9441 8.04919L31.3386 8.02089C31.3386 8.02089 28.4791 7.64055 28.5463 7.37778C29.4214 7.30947 30.2997 7.29741 31.1763 7.34166L32.054 7.58809C34.5818 7.64617 37.1029 7.88352 39.6001 8.29849L39.0359 8.14007C37.7819 7.78803 36.2145 7.34798 35.5875 7.17196C34.9606 6.99593 32.7404 7.00629 31.3398 6.9651C29.8994 7.03056 28.4564 6.95542 27.0293 6.74066L26.4023 6.56464L24.8349 6.12459C24.8349 6.12459 24.3333 5.98377 24.2079 5.94857L30.0387 7.58556L32.8064 7.79931L37.7147 8.05079L38.8433 8.36763C39.7454 8.69866 40.7098 8.80046 41.6568 8.66467C41.2833 8.50571 40.8736 8.4641 40.4779 8.54492ZM40.4197 8.24695C37.6803 7.68432 34.8959 7.39771 32.1044 7.39101L31.2267 7.14458L28.8811 7.11973L31.1382 7.75341L32.681 7.76411C33.4966 7.77135 34.3108 7.8353 35.1184 7.95554L37.1874 8.53641C37.6204 8.58418 38.0435 8.70298 38.4413 8.88845C38.9612 9.12109 39.5101 9.27518 40.0714 9.3461L40.4197 8.24695Z" fill="#E3B381"/>
<path d="M22.8977 5.29824L23.6501 5.50946L26.6595 6.35436L28.8842 6.06363C32.6958 6.14864 36.4903 6.6244 40.2134 7.4841L40.8404 7.66012C42.5959 8.15298 44.5395 8.69864 44.9156 8.80425C44.95 8.90732 44.9539 9.01882 44.9269 9.12426C44.9 9.22969 44.8434 9.32419 44.7645 9.39548C44.2539 9.8154 42.841 9.55954 41.9923 9.4621L41.8669 9.42689C39.8606 8.86363 37.4982 8.90447 35.2949 8.84914L34.229 8.5499C33.078 8.55914 31.9275 8.49478 30.784 8.3572L27.7746 7.51231C26.0647 7.17277 24.4374 6.47648 22.9895 5.46482L22.676 5.37681C22.7421 5.33079 22.8185 5.3037 22.8977 5.29824ZM35.437 8.81865C37.7031 8.89159 39.9188 9.16159 42.0091 9.3964L42.448 9.51962C43.2003 9.73084 44.5797 10.1181 45.0611 9.54918C45.1127 9.48689 45.1501 9.41312 45.1705 9.33345C45.1909 9.25379 45.1937 9.17031 45.1787 9.08934C45.3131 8.5638 42.4201 8.31485 41.2915 7.99801L40.6646 7.82199C36.9614 6.97245 33.1881 6.50262 29.3981 6.41913L28.8338 6.26071C28.1243 6.30013 27.4129 6.26549 26.7099 6.15729L25.2679 5.75244L23.7005 5.31239C23.5102 5.19611 23.2938 5.13533 23.0735 5.13637C24.4827 6.12584 26.0769 6.78943 27.75 7.08295C28.7355 7.42956 29.7405 7.71174 30.7594 7.92785C31.876 8.07465 32.9996 8.15504 34.1249 8.16864L35.1908 8.46787L35.437 8.81865Z" fill="#E3B381"/>
<path d="M22.4151 2.70023C23.7323 2.6624 25.047 2.84144 26.3113 3.23082L27.3144 3.51245C28.6151 3.76868 29.938 3.88047 31.261 3.84597C32.3868 3.8465 33.5112 3.92695 34.6265 4.08675C33.5071 3.91455 32.3744 3.85591 31.2442 3.91166C29.9477 3.89033 28.6547 3.76273 27.3771 3.53005L26.4367 3.26602C25.1382 2.83172 23.7769 2.6402 22.4151 2.70023Z" fill="#E3B381"/>
<path d="M21.5936 3.03255L23.6625 3.61341L25.314 3.72501L26.6933 4.11226C29.1752 4.62541 31.6814 4.99999 34.2013 5.23441L26.8019 4.21315L25.3599 3.8083C24.845 3.72595 24.3403 3.58427 23.8551 3.38585L21.8488 2.82258C22.0832 2.53625 22.3934 2.32928 22.7401 2.22791C23.071 2.17108 23.4098 2.19398 23.731 2.29486C24.9112 2.36464 26.0865 2.50654 27.251 2.71984C29.1688 3.09469 31.1238 3.21781 33.0707 3.08637C31.1672 3.26351 29.2494 3.15192 27.3764 2.75505C26.1851 2.42061 25.0566 2.10377 23.7768 2.37816C23.3857 2.33393 22.9901 2.36611 22.6102 2.47307C22.6102 2.47307 21.6776 2.70409 21.5936 3.03255Z" fill="#E3B381"/>
<path d="M20.7828 4.35401C20.7828 4.35401 21.402 4.03498 21.7323 4.0573L22.5473 4.28613L23.0489 4.42694L24.6376 4.52093L25.0765 4.64415C26.5213 4.70685 27.9602 4.87554 29.3825 5.14897L37.5219 6.16677L29.7005 4.95661C28.283 4.65012 26.8416 4.48113 25.3945 4.45179L24.8302 4.29337L23.3882 3.88852L22.0716 3.51888C21.561 3.9388 21.009 3.99506 20.7828 4.35401Z" fill="#E3B381"/>
</g>
<g style="mix-blend-mode:screen" opacity="0.2">
<path d="M73.1027 22.5646C75.393 22.0495 77.7207 21.7373 80.0611 21.6314L81.3777 22.0011L82.2555 22.2475L83.6348 22.6348L87.2085 23.6381C89.0894 24.1661 90.7228 25.3992 92.4402 26.3038C94.6632 27.6584 97.0146 28.7669 99.4565 29.6114L103.657 30.7907C105.064 31.1937 106.435 31.72 107.757 32.3642C106.457 31.6645 105.088 31.1149 103.674 30.7251L99.4733 29.5457C97.0583 28.7028 94.7245 27.6233 92.5029 26.3214C90.8195 25.308 89.0715 24.4173 87.2712 23.6557C86.4511 23.3628 85.6133 23.1276 84.7634 22.9516L83.6348 22.6348C83.1298 22.557 82.6186 22.5314 82.1088 22.5584L81.231 22.3119L79.8304 22.2708C77.5839 22.1822 75.3343 22.2804 73.1027 22.5646Z" fill="#E3B381"/>
<path d="M92.2418 21.0379C92.6921 21.2525 93.0705 21.604 93.3277 22.0469L93.8998 22.7003C94.3639 23.0824 94.8652 23.4119 95.3955 23.6835C99.1359 25.6493 103.409 26.2024 107.494 25.2495C103.473 26.1588 99.2773 25.6018 95.6004 23.6706C95.0867 23.4279 94.6005 23.1261 94.1506 22.7707L93.5662 21.9026C93.206 21.4712 92.7744 21.1115 92.2922 20.8408L92.2418 21.0379Z" fill="#E3B381"/>
<path d="M93.3786 21.3548C94.4979 22.7806 96.0487 23.7626 97.7739 24.1378C99.502 24.6288 101.277 24.9146 103.066 24.9899L105.738 25.3175L103.104 24.5782C101.336 24.498 99.5793 24.2406 97.8579 23.8093C96.2 23.427 94.716 22.464 93.6507 21.0792L93.3786 21.3548Z" fill="#E3B381"/>
<path d="M89.6358 20.2332L92.5768 22.3966C93.3067 22.9571 94.0779 23.4562 94.8831 23.889C96.1224 24.3737 97.403 24.7333 98.7076 24.9628C101.844 25.996 105.14 26.3956 108.419 26.1402C105.185 26.3903 101.935 25.98 98.8498 24.9323C97.5664 24.7073 96.3067 24.3536 95.088 23.8761C94.314 23.4295 93.565 22.9371 92.8444 22.4014L89.9201 20.1722L89.6358 20.2332Z" fill="#E3B381"/>
<path d="M80.6415 16.7915C84.2744 18.2787 87.7616 20.1302 91.0546 22.3201C92.4876 23.2856 94.0001 24.2031 95.5294 25.0549C96.4324 25.448 97.3811 25.7144 98.3508 25.847C99.0642 26.1173 99.7983 26.3234 100.545 26.4631C103.86 26.901 107.067 27.2379 110.495 27.4963C107.255 27.2907 103.906 26.9843 100.608 26.4807C99.8611 26.3406 99.127 26.1345 98.4135 25.8646C97.4783 25.6717 96.5567 25.4129 95.6548 25.0902C94.1255 24.2383 92.6298 23.2552 91.18 22.3553C87.887 20.1654 84.3997 18.3139 80.7669 16.8267L80.6415 16.7915Z" fill="#E3B381"/>
<path d="M69.3163 13.754C71.3917 15.7661 73.9024 17.22 76.6326 17.9907C77.9492 18.3604 79.3285 18.7476 80.6451 19.1173C82.0897 19.4183 83.5138 19.8182 84.9085 20.3142C87.2317 21.1713 89.4753 22.2489 91.6113 23.5338L94.1225 25.0133C95.4072 25.8151 96.7757 26.4592 98.2011 26.9328C99.1415 27.1968 100.082 27.4609 100.96 27.7073L109.709 28.9668L100.977 27.6416C100.041 27.4486 99.1198 27.1899 98.2179 26.8671C96.8271 26.3617 95.483 25.7251 94.202 24.9652L91.6449 23.4024C89.5165 21.9824 87.2501 20.8032 84.8839 19.8848C83.4686 19.382 82.0235 18.9763 80.5579 18.6703C79.1968 18.3937 77.856 18.0173 76.5453 17.5438C73.8552 16.8059 71.3798 15.3855 69.3376 13.408L69.3163 13.754Z" fill="#E3B381"/>
<path d="M76.4674 21.5352C78.1831 21.2214 79.9167 21.026 81.6568 20.9503L82.8481 21.2847L83.3497 21.4255L84.729 21.8128C88.361 23.0643 91.8593 24.7071 95.1678 26.7149L95.7948 26.8909C96.7758 27.4686 97.7872 27.9877 98.8243 28.4455C100.03 28.8898 101.267 29.237 102.523 29.484L104.091 29.9241C106.423 30.445 108.665 31.3356 110.74 32.5653C108.616 31.3915 106.362 30.4984 104.028 29.9065L102.461 29.4664C101.225 29.225 100.009 28.8837 98.8243 28.4455C97.7932 28.0139 96.8051 27.4771 95.8743 26.8428L95.1846 26.6492C91.8573 24.6304 88.3376 22.9815 84.6831 21.7295C84.2302 21.5029 83.7414 21.3657 83.2411 21.3246L82.7395 21.1838L81.4643 21.1778L76.4674 21.5352Z" fill="#E3B381"/>
<path d="M47.1002 13.6438C48.1901 13.2867 49.3651 13.3425 50.4198 13.8013L50.9214 13.9421C51.8197 14.1796 52.7471 14.2738 53.6722 14.2215L54.3619 14.4152C55.3753 14.4653 56.3908 14.4446 57.4016 14.3533C59.0319 14.1897 60.677 14.3645 62.2428 14.8675L63.3086 15.1668C64.4112 15.4059 65.4998 15.7115 66.5688 16.0821L67.1331 16.2405C68.0341 16.4771 68.8865 16.8834 69.6488 17.4396C68.944 17.5263 68.2297 17.4461 67.5585 17.2048L66.8061 16.9936L65.1379 16.9477C64.4498 16.9931 63.7591 16.9644 63.0767 16.8619C60.8196 16.2282 58.2401 16.0672 55.3683 15.4722L51.2303 14.3105L49.0986 13.712C47.7193 13.3248 47.5312 13.272 47.4058 13.2368L47.2177 13.184L47.1002 13.6438ZM69.5402 17.3387C68.8102 16.8185 67.9938 16.446 67.1331 16.2405L66.6315 16.0997C65.5826 15.7376 64.5151 15.4379 63.434 15.202L62.6189 14.9731C61.1052 14.4541 59.5054 14.2687 57.92 14.4284L54.8634 14.556L54.1738 14.3624C53.2246 14.4315 52.2709 14.3536 51.3434 14.131L50.6538 13.9374C49.6987 13.49 48.623 13.4125 47.6185 13.7189L49.4994 14.247L51.6311 14.8455L55.7691 16.0072C58.5904 16.7993 61.1364 17.0916 63.4148 17.3792C64.093 17.4694 64.7756 17.52 65.4592 17.5307C66.0156 17.505 66.573 17.5204 67.1274 17.5766L67.9424 17.8055C68.5074 18.0404 69.0965 18.2058 69.6979 18.2983L69.5402 17.3387Z" fill="#E3B381"/>
<path d="M43.2534 13.1962L43.7549 13.337C44.9186 12.9337 46.1309 12.7051 47.3557 12.6581L48.4842 12.9749C51.2829 13.4826 54.1181 13.7368 56.9585 13.7347L57.6481 13.9283C59.1114 13.9871 60.6543 13.9978 62.1467 14.2056C64.5077 14.724 66.8075 15.5114 69.0052 16.5535L70.6353 17.0112L71.9519 17.3808C73.2686 17.7505 73.8955 17.9265 74.0209 17.9617C72.9422 18.3294 71.7902 18.3944 70.68 18.1503C69.5515 17.8334 68.3221 17.9107 67.2059 17.8086L66.14 17.5093C59.6532 16.8199 53.2396 15.5141 46.9783 13.6083L45.787 13.2738C44.8466 13.0098 43.6631 13.1704 43.4046 12.6049L43.2534 13.1962ZM71.9978 17.4641L70.6812 17.0945L69.0511 16.6368C66.8857 15.5707 64.6033 14.788 62.2553 14.3064C60.7672 14.0677 59.2612 13.9749 57.7567 14.0292L57.067 13.8356C54.2307 13.8111 51.4014 13.5349 48.6096 13.0101L47.3221 12.7895C46.1278 12.8447 44.9401 13.0059 43.7717 13.2713L43.3956 13.1657C44.0378 13.5117 44.7432 13.7097 45.4646 13.7465L46.7812 14.1162C53.0414 16.0381 59.464 17.3226 65.9598 17.9516L67.0883 18.2684C68.2307 18.3038 69.3699 18.4121 70.4997 18.5925C71.5618 18.8205 72.6615 18.7662 73.6984 18.4344L71.8802 17.924L71.9978 17.4641Z" fill="#E3B381"/>
<path d="M40.8172 11.9488L41.5069 12.1424C41.685 12.1217 41.8641 12.172 42.0085 12.2832L42.9075 12.1836C43.3296 12.1068 43.7613 12.1089 44.1828 12.1896C45.2845 12.279 46.3918 12.2599 47.4901 12.1324C48.442 12.0591 49.3989 12.1148 50.3372 12.2981L53.1586 13.0901C54.2583 13.2302 55.3712 13.2109 56.4659 13.033L57.3437 13.2794C59.5547 13.1538 61.7721 13.3036 63.9493 13.7258L65.3286 14.113L65.3622 13.9816L64.0456 13.612C65.7146 14.5282 67.4435 15.3194 69.2191 15.9798L74.1722 17.3703L74.8618 17.5639C75.5822 17.6068 76.2865 17.8045 76.9308 18.1448C76.9308 18.1448 76.4919 18.0216 75.865 17.8456L75.3007 17.6872C73.2654 17.7861 71.2266 17.7777 69.1921 17.662C67.5407 17.5504 65.9229 17.3074 64.4932 17.1172C56.8699 15.9754 49.3236 14.3272 41.8999 12.1823C41.5313 12.1445 41.1712 12.0434 40.834 11.8831C40.3952 11.7599 40.1444 11.6895 40.2161 11.1463C40.2161 11.1463 40.0772 11.9522 40.8172 11.9488ZM76.5915 18.6832C76.0428 18.2481 75.407 17.9492 74.7319 17.8091L74.0423 17.6155C72.2868 17.1226 70.594 16.6474 69.0892 16.2249C67.0095 15.5109 64.9908 14.6144 63.0548 13.545C60.9855 13.1511 58.8798 13.0088 56.7794 13.121L55.8176 13.203C54.7018 13.3101 53.5786 13.3013 52.4644 13.1769L50.897 12.7368L49.9566 12.4728C49.1271 12.359 48.2927 12.2892 47.4565 12.2638C46.483 12.3234 45.5063 12.2619 44.5466 12.0805C44.2107 11.9165 43.85 11.8152 43.4808 11.7813L42.5191 11.8633L42.1429 11.7577C42.1429 11.7577 42.1429 11.7577 41.3278 11.5289L40.5128 11.3C40.5128 11.3 40.5128 11.3 40.9762 11.8526L42.1048 12.1694C49.4921 14.3752 57.0219 16.0185 64.6354 17.0867C66.191 17.3583 67.7597 17.5401 69.3343 17.6315C71.3787 17.783 73.4108 17.7198 75.3634 17.7048L75.9904 17.8808L76.8681 18.1272L76.5915 18.6832Z" fill="#E3B381"/>
<path d="M60.3886 18.2166C63.9649 19.323 67.701 19.752 71.4211 19.4834L72.4869 19.7826C75.7604 19.5939 79.0437 19.8067 82.27 20.417C84.9282 20.9856 87.4523 22.101 89.6961 23.6988C87.4169 22.1215 84.8774 21.0026 82.2073 20.3994C78.9321 19.7988 75.6016 19.5962 72.282 19.7955L71.2789 19.5139C67.6049 19.7315 63.9222 19.2928 60.3886 18.2166Z" fill="#E3B381"/>
<path d="M81.3981 23.2716C82.5609 22.8788 83.8058 22.8379 84.9898 23.1534C85.7758 23.1994 86.5442 23.4152 87.2469 23.7871C87.817 24.0634 88.3339 24.4472 88.7717 24.9193C88.3096 24.4334 87.7801 24.0237 87.201 23.7038C86.4549 23.3233 85.6462 23.0963 84.8185 23.0349C83.6767 22.827 82.5039 22.9082 81.3981 23.2716Z" fill="#E3B381"/>
<path d="M79.549 23.1064C81.6932 22.0976 84.127 21.9986 86.3394 22.8302C88.2501 23.3943 89.9898 24.4647 91.3909 25.9382C89.9356 24.4262 88.13 23.3369 86.1514 22.7774C83.9858 22.0408 81.6381 22.1578 79.549 23.1064Z" fill="#E3B381"/>
<path d="M100.304 29.4946L105.446 30.9379C106.381 31.1303 107.302 31.3891 108.204 31.7124C107.291 31.3511 106.346 31.0858 105.383 30.9203L100.304 29.4946Z" fill="#E3B381"/>
<path d="M97.1572 26.5686C98.6081 27.4724 100.186 28.1294 101.834 28.5152L104.091 29.1489L104.78 29.3425C107.286 29.8699 109.757 30.5636 112.179 31.4196C109.736 30.5585 107.244 29.8589 104.718 29.3249L104.091 29.1489L101.834 28.5152C100.345 28.0299 98.9131 27.3681 97.567 26.5429L97.1572 26.5686Z" fill="#E3B381"/>
<path d="M53.5699 14.6153C54.2823 14.5369 55.0012 14.5495 55.7106 14.6531L56.0868 14.7587L56.9019 14.9875L57.5915 15.1811L58.9462 15.139C59.4593 15.0836 59.9767 15.0872 60.4891 15.1497C60.9844 15.2187 61.4691 15.3548 61.9311 15.5546C62.6025 15.8134 63.295 16.0078 64.0001 16.1354L66.4452 16.8219C67.0318 16.8746 67.6049 17.0355 68.1381 17.2972C68.1381 17.2972 68.1381 17.2972 65.638 17.0881C64.9434 16.9529 64.237 16.8962 63.5309 16.919L61.4238 16.7499L59.4802 16.2042L57.5993 15.6762L56.7843 15.4473C54.151 14.7081 53.7121 14.5848 53.6494 14.5672L53.5867 14.5496L53.5699 14.6153ZM65.6302 16.5931L67.6365 17.1563L60.7398 15.2201L59.2597 15.227C58.79 15.2961 58.3139 15.3044 57.8423 15.2515L57.1526 15.0579L56.3376 14.8291L55.9614 14.7235C55.3044 14.5763 54.6276 14.5533 53.9629 14.6553L56.8056 15.1013L57.6833 15.3477L59.5642 15.8758L61.4451 16.4038C62.1419 16.5201 62.8466 16.5767 63.5522 16.5729L65.722 16.7597L65.6302 16.5931Z" fill="#E3B381"/>
<path d="M60.1785 15.0611C60.5955 15.0707 61.0041 15.1854 61.3698 15.3955C61.5792 15.5231 61.8172 15.59 62.0594 15.5892L62.9372 15.8356C64.0657 16.1524 64.1284 16.17 64.1911 16.1876C63.0281 16.2123 61.8682 16.0528 60.7506 15.7146C60.2478 15.4998 59.7212 15.3519 59.1832 15.2745C58.7509 15.2226 58.3284 15.1039 57.9293 14.9225C57.9293 14.9225 58.1633 15.0586 60.1785 15.0611ZM63.0626 15.8708L61.6206 15.466C61.318 15.2754 60.9704 15.1778 60.6174 15.1843L60.1785 15.0611L58.0838 15.1067L59.0869 15.3883C59.6672 15.4759 60.2354 15.6354 60.7797 15.8636C61.6953 16.0763 62.6244 16.2195 63.5597 16.292L63.0626 15.8708Z" fill="#E3B381"/>
<path d="M21.3801 4.66162C21.2625 5.12146 21.6633 5.65643 22.2231 6.09522C22.7656 6.45537 23.3409 6.75838 23.9405 6.99983C26.4894 7.96198 29.111 8.69799 31.7775 9.20008L34.6661 9.72941L37.5927 9.84699C39.1186 9.79833 40.6454 9.89703 42.154 10.1418L43.3452 10.4763L44.1603 10.7051L46.1252 10.9047C47.1361 10.8824 48.1453 11.0001 49.1268 11.2546C48.1194 11.027 47.093 10.904 46.0625 10.8871L44.0808 10.7532L43.2657 10.5244C42.8548 10.4766 42.4532 10.3639 42.0745 10.1899C40.5659 9.94512 39.0391 9.84641 37.5132 9.89507C36.5363 9.9297 35.5582 9.89041 34.5866 9.7775C33.6913 9.71675 32.7997 9.60742 31.9152 9.44996C29.2697 8.95348 26.6689 8.22332 24.1409 7.26731C23.4331 6.94787 22.772 6.52523 22.1772 6.01192C21.6129 5.8535 21.3879 5.15666 21.426 4.74491C29.5286 5.11868 37.3378 6.11417 44.7786 7.49909C46.2833 7.92154 47.872 8.01554 49.3767 8.43799C47.8714 7.99241 46.3334 7.67837 44.7786 7.49909C37.2874 6.31125 29.4827 5.03539 21.8694 4.58776C21.8181 4.54204 21.7577 4.50885 21.6926 4.49058C21.6276 4.47232 21.5595 4.46943 21.4932 4.48214L21.3801 4.66162Z" fill="#E3B381"/>
<path d="M27.6219 8.59809C30.0883 9.60677 32.6536 10.3269 35.2709 10.7455C36.5308 10.8767 37.7972 10.9265 39.063 10.8949L40.1501 10.848C44.5447 10.8837 48.9272 11.3364 53.2438 12.2006C48.923 11.3335 44.5327 10.9025 40.1333 10.9137L39.1929 10.6497L35.4467 10.5837C32.843 10.0988 30.2839 9.38033 27.7977 8.43622L27.6219 8.59809Z" fill="#E3B381"/>
<path d="M33.2874 10.8928C34.7162 11.4289 36.2322 11.6631 37.7479 11.5818L38.8518 11.4693L40.2401 11.2958L41.9083 11.3417L43.5139 11.37L44.2035 11.5636L45.1653 11.4816L46.8794 11.6108C48.9484 12.1916 51.2145 12.2646 53.317 12.7141C53.7152 12.8985 54.1382 13.0172 54.571 13.0661C55.0725 13.2069 55.5036 12.8351 55.5876 12.5066C55.5876 12.5066 55.077 12.9265 54.73 12.9699L53.5387 12.6355C51.4152 12.1364 49.2657 11.768 47.1011 11.5322C46.5155 11.4166 45.9198 11.3674 45.3243 11.3854L44.5092 11.1566L43.8195 10.9629L42.214 10.9346C41.6597 10.8784 41.1022 10.863 40.5458 10.8887L39.1743 10.9965L38.0535 11.1748C36.5612 11.2274 35.0718 11 33.6558 10.5034L33.2874 10.8928Z" fill="#E3B381"/>
<path d="M23.768 5.82491C24.0524 5.83785 24.3306 5.91596 24.583 6.05374L26.0878 6.47619L26.7147 6.65221C28.1518 6.81199 29.5978 6.86505 31.042 6.81097C32.4426 6.85215 33.8601 6.82764 35.2898 7.01781C36.7195 7.20798 37.5469 7.65148 38.8008 8.00353L40.4309 8.46118C40.8521 8.43449 41.2701 8.55185 41.6221 8.79562C40.9526 9.31172 39.4601 9.10395 38.298 8.91849L37.1695 8.60165L32.2152 8.26688L29.4476 8.05313L23.6795 6.43374C23.6282 6.39782 23.5878 6.34734 23.5629 6.2882C23.538 6.22907 23.5297 6.16373 23.539 6.09984C23.5483 6.03596 23.5748 5.97617 23.6153 5.92748C23.6559 5.87878 23.7088 5.8432 23.768 5.82491ZM40.2596 8.34268C39.6774 8.26517 39.108 8.1053 38.5668 7.86742C38.1784 7.72444 37.7802 7.61264 37.3756 7.53299L35.2439 6.93452L33.0405 6.87918L31.4977 6.86849C30.5551 6.7108 29.6306 6.45125 28.739 6.094C29.6098 6.04637 30.4826 6.05624 31.3522 6.12356L32.2299 6.36999C34.7577 6.42807 37.2789 6.66542 39.776 7.08039L39.0864 6.88677C37.9506 6.43565 36.7743 6.10541 35.5754 5.90105C34.186 5.73863 32.7878 5.6754 31.3903 5.71181C29.9295 5.71174 28.4698 5.63094 27.0171 5.46975L26.4528 5.31133C25.9149 5.23393 25.3883 5.08609 24.8854 4.87128L24.2585 4.69526L27.8949 5.71618C28.6083 5.98639 29.3424 6.19249 30.0893 6.33225C30.9989 6.492 31.9181 6.58537 32.8401 6.6117L37.7484 6.86318L38.877 7.18002C39.6879 7.8767 40.6565 8.34263 41.6893 8.53285C41.4811 8.3879 41.2437 8.29532 40.9957 8.26233C40.7477 8.22935 40.4958 8.25684 40.2596 8.34268ZM40.4522 8.11512C37.704 7.6187 34.9249 7.33263 32.1369 7.25918L31.2592 7.01275C30.3681 6.95682 29.4739 7.01306 28.5956 7.18027L30.9154 7.83154C31.4587 7.80294 31.9979 7.71851 32.5254 7.57947C33.2778 7.53842 34.0321 7.58492 34.7747 7.7181C35.4944 7.81967 36.2186 7.882 36.9445 7.90482L38.1984 8.25686L39.8285 8.71452L40.4522 8.11512Z" fill="#E3B381"/>
<path d="M22.4481 4.96004C22.7072 4.99235 22.9606 5.06348 23.2004 5.17126L24.9559 5.66412L26.4607 6.08657C27.2825 6.08944 28.1037 6.0378 28.9193 5.93194C32.7273 6.03968 36.5162 6.53743 40.2317 7.41809L40.796 7.57651C42.6142 8.08697 44.5578 8.63264 44.85 9.06671C44.8843 9.16977 44.8882 9.28127 44.8612 9.38671C44.8343 9.49215 44.7777 9.58665 44.6988 9.65793C44.1882 10.0779 42.7753 9.82199 41.9434 9.65886L41.4418 9.51804C39.4356 8.95477 37.0732 8.99562 34.8698 8.94029L33.804 8.64105L30.3589 8.44835C29.34 8.23258 28.3349 7.9504 27.3495 7.60345C25.6279 7.32615 23.9873 6.64905 22.5477 5.62167C22.4377 5.62062 22.3299 5.59034 22.2342 5.53366C22.2342 5.53366 22.4145 5.09142 22.4481 4.96004ZM34.9874 8.48045C37.174 8.60147 39.4692 8.82339 41.5426 9.12389L41.9815 9.24711C42.8367 9.48435 43.7348 9.49451 44.5947 9.27667C44.6577 9.22256 44.703 9.14907 44.7241 9.06658C44.7452 8.98408 44.7411 8.89673 44.7123 8.81683C44.8467 8.29129 42.0163 8.05994 40.8878 7.7431L40.2608 7.56708C36.5329 6.65526 32.7286 6.12958 28.9025 5.99763L26.7786 5.89421L25.0858 5.41895L23.5184 4.9789L22.8914 4.80288C22.8914 4.80288 22.8914 4.80288 22.7906 5.19703C24.1886 6.2093 25.7776 6.8955 27.4503 7.20931C28.3907 7.47334 29.4566 7.77257 30.397 8.0366C31.5337 8.1956 32.6786 8.28189 33.8253 8.29499L34.9538 8.61183L34.9874 8.48045Z" fill="#E3B381"/>
<path d="M22.1981 2.49859C23.5623 2.39353 24.9332 2.56329 26.2365 2.99869L27.2396 3.28032C28.519 3.53709 29.8217 3.64306 31.1235 3.59623C32.2713 3.57632 33.4185 3.66278 34.5517 3.85462C33.4151 3.69563 32.2702 3.60934 31.1235 3.59623C29.8217 3.64306 28.519 3.53709 27.2396 3.28032L26.2365 2.99869C24.9297 2.58028 23.5619 2.41089 22.1981 2.49859Z" fill="#E3B381"/>
<path d="M21.3945 2.76396L23.5262 3.36243C24.0308 3.57161 24.5567 3.71927 25.0936 3.80248L26.4729 4.18972C29.3033 4.42108 31.5693 4.49402 33.9518 5.16289C31.4685 4.88817 29.0021 4.54774 26.4897 4.12403C26.0479 3.93289 25.5842 3.80272 25.1104 3.73679L23.543 3.29673L21.6621 2.76867C21.6621 2.76867 21.7965 2.24314 22.5533 2.17399C22.862 2.11172 23.1804 2.12865 23.4815 2.22335C24.6617 2.29313 25.8371 2.43503 27.0015 2.64833C28.9275 3.00197 30.8881 3.10303 32.838 2.94916C30.9346 3.12631 29.0167 3.01472 27.1437 2.61784C25.8305 2.36216 24.5022 2.20095 23.168 2.13534C22.9123 2.0064 22.6359 1.92879 22.3529 1.90651C22.3529 1.90651 21.4617 2.50119 21.3945 2.76396Z" fill="#E3B381"/>
<path d="M20.5788 4.08564C20.6628 3.75718 21.1353 3.74901 21.5451 3.72324L22.8617 4.09289C23.3323 4.26459 23.8143 4.39991 24.3037 4.49773L24.8053 4.63855C26.279 4.54301 27.7573 4.55804 29.2289 4.68353L37.2048 6.07788L29.2793 4.48645C27.8999 4.09921 26.3739 4.02281 24.9733 3.98163L24.4717 3.84081L23.0297 3.43597L22.8416 3.38316L21.9639 3.13673C21.6694 3.13415 21.3808 3.22287 21.1344 3.39171C20.8879 3.56056 20.6946 3.80199 20.5788 4.08564Z" fill="#E3B381"/>
</g>
</g>
<path d="M105.322 26.8928L104.633 29.5862L106.2 30.0262L106.889 27.3329L105.322 26.8928Z" fill="url(#paint13_linear_1_6995)" style="mix-blend-mode:multiply"/>
<path d="M120.353 30.903L106.748 27.0833C106.61 27.0445 106.467 27.1306 106.43 27.2757L105.758 29.9034C105.721 30.0485 105.803 30.1977 105.942 30.2366L119.547 34.0562C119.685 34.0951 119.828 34.009 119.865 33.8638L120.537 31.2362C120.574 31.091 120.492 30.9419 120.353 30.903Z" fill="url(#paint14_linear_1_6995)"/>
<path d="M43.2098 9.87898L44.0875 10.1254C44.211 10.1601 44.3268 10.2199 44.4282 10.3015C44.5297 10.383 44.6148 10.4847 44.6787 10.6007C44.7426 10.7167 44.7841 10.8448 44.8008 10.9776C44.8175 11.1104 44.8091 11.2454 44.776 11.3748L44.0872 14.0682L41.3285 13.2937L41.9837 10.7317C42.0015 10.5867 42.0489 10.4474 42.1226 10.3232C42.1963 10.199 42.2946 10.0929 42.4109 10.012C42.5272 9.93116 42.6587 9.87743 42.7965 9.85447C42.9343 9.83151 43.0753 9.83987 43.2098 9.87898Z" fill="url(#paint15_linear_1_6995)"/>
<path d="M93.7734 28.1582L90.952 27.3661L91.6408 24.6727C91.7076 24.4114 91.8708 24.1886 92.0944 24.0533C92.3181 23.918 92.5838 23.8814 92.8332 23.9514L93.711 24.1978C93.9604 24.2679 94.1731 24.4388 94.3022 24.6731C94.4313 24.9075 94.4663 25.1859 94.3994 25.4472L93.7107 28.1406L93.7734 28.1582Z" fill="url(#paint16_linear_1_6995)"/>
<path d="M18.6897 14.0491C18.6357 14.2247 18.6164 14.4099 18.6328 14.5936C18.6493 14.7773 18.7013 14.9556 18.7856 15.1175C18.8699 15.2795 18.9847 15.4218 19.1232 15.5358C19.2616 15.6498 19.4207 15.7331 19.5909 15.7806L115.266 42.6414C115.436 42.6894 115.613 42.7006 115.788 42.6744C115.962 42.6482 116.129 42.5851 116.28 42.489C116.43 42.3929 116.56 42.2657 116.662 42.1153C116.764 41.9649 116.836 41.7943 116.873 41.6139C116.962 41.2654 116.915 40.8942 116.743 40.5818C116.571 40.2694 116.287 40.0414 115.955 39.948L20.3424 13.1049C20.1748 13.0483 19.9979 13.028 19.8226 13.0453C19.6473 13.0625 19.4772 13.117 19.3226 13.2053C19.168 13.2936 19.0322 13.414 18.9234 13.559C18.8146 13.7041 18.7351 13.8708 18.6897 14.0491Z" fill="url(#paint17_linear_1_6995)"/>
<mask id="mask1_1_6995" style="mask-type:luminance" maskUnits="userSpaceOnUse" x="18" y="13" width="99" height="30">
<path d="M18.6927 14.0486C18.6387 14.2242 18.6193 14.4095 18.6358 14.5931C18.6522 14.7768 18.7042 14.9551 18.7885 15.117C18.8728 15.279 18.9877 15.4213 19.1261 15.5353C19.2645 15.6493 19.4237 15.7326 19.5938 15.7802L115.269 42.6409C115.439 42.6889 115.616 42.7001 115.791 42.6739C115.965 42.6477 116.132 42.5846 116.283 42.4885C116.433 42.3924 116.563 42.2653 116.665 42.1148C116.767 41.9644 116.839 41.7938 116.876 41.6134C116.965 41.265 116.918 40.8937 116.746 40.5813C116.574 40.2689 116.29 40.0409 115.958 39.9475L20.3453 13.1044C20.1777 13.0478 20.0009 13.0275 19.8256 13.0448C19.6503 13.062 19.4801 13.1165 19.3255 13.2048C19.171 13.2931 19.0351 13.4135 18.9263 13.5585C18.8175 13.7036 18.738 13.8703 18.6927 14.0486Z" fill="white"/>
</mask>
<g mask="url(#mask1_1_6995)">
<path d="M18.6878 14.0496C18.6338 14.2252 18.6144 14.4104 18.6309 14.5941C18.6474 14.7778 18.6993 14.956 18.7836 15.118C18.8679 15.28 18.9828 15.4223 19.1212 15.5363C19.2597 15.6503 19.4188 15.7336 19.5889 15.7811L115.264 42.6419C115.434 42.6898 115.612 42.7011 115.786 42.6749C115.96 42.6487 116.128 42.5856 116.278 42.4895C116.428 42.3934 116.558 42.2662 116.66 42.1158C116.762 41.9653 116.834 41.7948 116.871 41.6144C116.96 41.2659 116.913 40.8947 116.741 40.5823C116.569 40.2698 116.285 40.0419 115.953 39.9485L20.3404 13.1054C20.1728 13.0488 19.996 13.0285 19.8207 13.0457C19.6454 13.063 19.4753 13.1175 19.3207 13.2058C19.1661 13.2941 19.0302 13.4145 18.9214 13.5595C18.8126 13.7046 18.7332 13.8713 18.6878 14.0496Z" fill="url(#paint18_linear_1_6995)"/>
<g style="mix-blend-mode:multiply" opacity="0.4">
<path d="M70.8624 32.0764C73.2768 31.6985 75.7197 31.5593 78.159 31.6606L79.5596 31.7018L80.4373 31.9482C80.9043 31.9089 81.3739 31.9227 81.838 31.9894L83.0292 32.3238C83.8581 32.4947 84.675 32.724 85.4744 33.0103C87.2565 33.7603 88.9841 34.6453 90.6434 35.6584C92.9074 36.9724 95.2828 38.0636 97.7392 38.9179L101.94 40.0973C103.332 40.485 104.68 41.0287 105.96 41.7188C104.638 41.0747 103.267 40.5483 101.86 40.1454L97.7224 38.9836C95.3077 38.0272 93.0123 36.7681 90.8864 35.2338C89.169 34.3292 87.4684 33.3589 85.6547 32.5681L81.9556 31.5295L80.5135 31.1247L79.6985 30.8959C79.2057 30.8563 78.7107 30.8586 78.2184 30.9028C75.7396 31.0798 73.2792 31.4724 70.8624 32.0764Z" fill="#E3B381"/>
<path d="M89.8183 30.4973C90.2624 30.7563 90.6529 31.1052 90.967 31.5239L91.539 32.1774C91.9691 32.5709 92.4519 32.8962 92.972 33.1429C96.7332 35.1138 101.026 35.6728 105.133 34.7265C101.094 35.6932 96.8591 35.1517 93.1601 33.1958C92.6761 32.9254 92.2173 32.608 91.7898 32.2478L91.2805 31.6119C90.9319 31.1679 90.4977 30.8061 90.0064 30.5501L89.8183 30.4973Z" fill="#E3B381"/>
<path d="M91.1791 30.9504C92.3211 32.3127 93.8326 33.2774 95.5118 33.7158C97.2746 34.1583 99.073 34.4275 100.884 34.5199L103.509 34.7641L100.804 34.568C99.0367 34.4946 97.2826 34.2147 95.5745 33.7334C93.9052 33.3518 92.4002 32.4101 91.2877 31.0513L91.1791 30.9504Z" fill="#E3B381"/>
<path d="M87.4401 29.7625L90.3643 31.9916C91.1794 32.2204 91.8433 33.0405 92.6706 33.484C93.9097 33.9695 95.1904 34.329 96.4951 34.5577C99.6006 35.6115 102.871 36.0276 106.127 35.7833C102.894 35.9958 99.6505 35.5864 96.5578 34.5753C95.2742 34.3515 94.0144 33.9978 92.796 33.5192L90.5356 32.1101L87.6114 29.881L87.4401 29.7625Z" fill="#E3B381"/>
<path d="M78.4338 26.3865C82.0666 27.8737 85.5538 29.7251 88.8468 31.915L93.3216 34.6499C94.2436 34.9815 95.1863 35.2462 96.143 35.442C96.8565 35.7119 97.5906 35.918 98.3374 36.0581C101.636 36.5616 104.859 36.8329 108.287 37.0913C104.984 36.8681 101.715 36.5135 98.3374 36.0581C97.6119 35.9224 96.8987 35.7221 96.2057 35.4596C95.2565 35.3358 94.3282 35.0752 93.447 34.6851L88.9554 32.0159C85.6487 29.7986 82.1463 27.9193 78.4965 26.4041L78.4338 26.3865Z" fill="#E3B381"/>
<path d="M67.1157 23.3497C69.1991 25.306 71.6881 26.7279 74.3861 27.5031C75.7174 27.9834 77.0792 28.3657 78.4614 28.6473C79.9061 28.9474 81.3303 29.3472 82.7247 29.8442C85.0819 30.7705 87.3511 31.9262 89.5026 33.2961L92.0137 34.7756C93.2923 35.5403 94.6369 36.1771 96.0296 36.6775C96.9507 37.0119 97.8936 37.2766 98.8509 37.4696L107.935 38.4711L99.2484 37.2291L96.4271 36.4371C95.0452 35.9686 93.7189 35.3364 92.4739 34.5527L89.9627 33.0732C87.8187 31.6824 85.5551 30.5047 83.2017 29.5557C81.7867 29.0519 80.3415 28.6461 78.8756 28.3411C77.559 27.9715 76.1797 27.5842 74.8631 27.2146C72.1844 26.4468 69.7154 25.0301 67.6554 23.0788L67.1157 23.3497Z" fill="#E3B381"/>
<path d="M74.2647 31.1299C75.9542 30.8298 77.6728 30.6786 79.4542 30.545L80.7294 30.551L81.231 30.6918C81.7052 30.7554 82.1692 30.8856 82.6103 31.0791C86.2423 32.3306 89.7406 33.9735 93.0491 35.9812L93.6761 36.1572C94.6439 36.7686 95.6505 37.31 96.6888 37.7775C97.8949 38.2216 99.1315 38.5687 100.388 38.816L101.955 39.2561C104.267 39.8455 106.501 40.7327 108.604 41.8973C106.483 40.6624 104.209 39.7396 101.847 39.1552L100.279 38.7151C99.0438 38.474 97.828 38.1326 96.6429 37.6942C95.6238 37.2485 94.6328 36.7351 93.6761 36.1572L93.0491 35.9812C89.8746 33.9193 86.5107 32.1965 83.0078 30.8386C82.5468 30.6358 82.0617 30.4996 81.5657 30.4338L81.0642 30.2929L79.8102 29.9409C77.9371 30.1988 76.0839 30.5961 74.2647 31.1299Z" fill="#E3B381"/>
<path d="M45.1542 23.3086C46.2178 22.9054 47.3831 22.9084 48.4448 23.3171L49.009 23.4755C49.8965 23.6802 50.808 23.7463 51.714 23.6716L52.4663 23.8829L55.5229 23.7553C57.1518 23.608 58.7924 23.8052 60.3472 24.3352L61.4131 24.6345C62.5154 24.875 63.6038 25.1806 64.6733 25.5498L65.1749 25.6906C66.0858 25.8964 66.9439 26.3054 67.6905 26.8897C67.6905 26.8897 66.7288 26.9717 65.6461 26.7382L64.8311 26.5094L63.1629 26.4635L61.1812 26.3296C58.9241 25.6959 56.3445 25.5349 53.4728 24.9399L49.3348 23.7782L47.2031 23.1797L46.9523 23.1093C45.573 22.7221 45.3222 22.6517 45.2595 22.6341L45.1542 23.3086ZM67.5942 27.0035C66.8765 26.4577 66.0649 26.0625 65.204 25.8396L64.7024 25.6987C63.6331 25.3289 62.5446 25.0233 61.4422 24.7834L60.439 24.5018C58.9163 23.9986 57.3099 23.8354 55.7233 24.0228C54.6907 24.0981 53.655 24.1129 52.6208 24.0671L51.9312 23.8734C50.9845 23.9194 50.0365 23.8193 49.1176 23.5764L48.428 23.3828C47.4781 22.9687 46.419 22.9208 45.4386 23.2476L46.7552 23.6172L49.3885 24.3565L53.5892 25.5359C56.3478 26.3104 58.8938 26.6027 61.2181 26.9736C61.8794 27.078 62.5501 27.1009 63.2166 27.0418L64.9475 27.1053L65.6998 27.3165C66.2641 27.475 67.4553 27.8094 67.518 27.827L67.5942 27.0035Z" fill="#E3B381"/>
<path d="M40.9842 22.7733L41.4858 22.9141C42.5952 22.6206 43.7251 22.4199 44.8648 22.3138L46.0561 22.6482C48.8472 23.1786 51.6769 23.4548 54.5135 23.4737L55.1405 23.6497C56.6662 23.6073 58.1926 23.706 59.7018 23.9445C62.0791 24.3973 64.3864 25.1873 66.5603 26.2925L68.1904 26.7502L69.507 27.1198C70.8237 27.4895 71.4506 27.6655 71.576 27.7007C70.4972 28.0684 69.3453 28.1334 68.2351 27.8892C67.0846 27.7031 65.9245 27.589 64.761 27.5476L63.6738 27.5944C57.1789 26.9596 50.7568 25.6752 44.4953 23.759L43.304 23.4246C42.3636 23.1605 41.1969 23.2554 40.9215 22.7557L40.9842 22.7733ZM69.7914 27.0588L68.4748 26.6892L66.782 26.2139C64.6264 25.1837 62.3681 24.408 60.0488 23.9012C58.5554 23.7218 57.0535 23.6292 55.5503 23.6239L54.8606 23.4303C52.0167 23.4492 49.1763 23.2171 46.3696 22.7362L45.1783 22.4018C43.9893 22.3999 42.8038 22.5395 41.6448 22.8179L41.2686 22.7123C41.2686 22.7123 42.5226 23.0643 43.3376 23.2932L44.5915 23.6452C50.8246 25.5664 57.2117 26.8883 63.6738 27.5944L64.7397 27.8936C65.8055 28.1929 67.0516 28.0499 68.2138 28.2353C69.2759 28.4634 70.3756 28.409 71.4125 28.0772C70.9109 27.6743 70.367 27.3326 69.7914 27.0588Z" fill="#E3B381"/>
<path d="M38.6836 21.561L39.3732 21.7546L39.8121 21.8778L40.925 21.2046C41.3167 21.2363 41.6993 21.3437 42.0536 21.5214C43.048 21.6874 44.0593 21.7107 45.0597 21.5909C46.0109 21.5914 46.9614 21.6467 47.9069 21.7566L50.7909 22.5663C51.8847 22.685 52.9871 22.6878 54.0814 22.5748L55.0432 22.4927C57.2511 22.3895 59.4629 22.5614 61.632 23.0048L63.0114 23.392L61.8828 23.0752C63.5589 23.97 65.2934 24.7392 67.0731 25.3773C68.5779 25.7997 70.2707 26.275 71.9635 26.7503L72.6531 26.9439C73.3969 27.0973 74.0939 27.4379 74.684 27.9365C74.684 27.9365 74.3078 27.8309 73.5801 28.049L72.9531 27.873C71.0005 27.8881 68.9684 27.9512 66.924 27.7997C65.3287 27.6976 63.7394 27.5099 62.1624 27.2374C54.5489 26.1692 47.0191 24.5258 39.6318 22.3201L38.2525 21.9328C37.8763 21.8272 37.5628 21.7392 37.6345 21.1961C37.6345 21.1961 37.8349 21.4636 38.6836 21.561ZM74.4578 28.2954C73.8878 27.8531 73.2313 27.5486 72.5355 27.4037L71.8459 27.2101L66.9555 25.8371C64.9881 25.116 63.0803 24.2271 61.2514 23.1796C59.0792 22.7595 56.87 22.5878 54.6625 22.6675L53.7008 22.7495C52.5809 22.8701 51.4529 22.8834 50.3307 22.7891L47.7602 22.0674C46.8423 21.8896 45.906 21.8398 44.9757 21.9194C44.0027 21.9386 43.0297 21.8773 42.0659 21.7361C41.7309 21.5693 41.3697 21.4679 41 21.4369C40.6954 21.4124 40.3978 21.3288 40.1223 21.1904L39.7461 21.0848L38.931 20.856L38.116 20.6272C38.116 20.6272 38.116 20.6272 38.5963 21.114L38.9724 21.2197L39.9756 21.5013C47.3787 23.6392 54.9041 25.2817 62.5062 26.4186C63.8855 26.8058 65.5537 26.8517 67.2051 26.9633C68.8565 27.0749 71.2816 27.0517 73.2342 27.0366L73.8612 27.2126C74.1385 27.3456 74.4352 27.4289 74.7389 27.459L74.4578 28.2954Z" fill="#E3B381"/>
<path d="M64.4063 30.2634C70.3417 29.4856 76.3531 29.6082 82.2551 30.6275C76.3547 29.5899 70.3407 29.4672 64.4063 30.2634Z" fill="#E3B381"/>
<path d="M58.1924 27.7453C61.7507 28.8904 65.4749 29.3639 69.1913 29.1435L70.2785 29.0966C73.5766 28.8984 76.8855 29.095 80.1411 29.6829C82.7688 30.2787 85.2665 31.3859 87.5045 32.9471C85.2327 31.3074 82.6616 30.178 79.953 29.6301C76.7011 29.009 73.3884 28.8121 70.0904 29.0438L69.0872 28.7622C65.39 29.0417 61.6754 28.5958 58.1342 27.4474L58.1924 27.7453Z" fill="#E3B381"/>
<path d="M79.195 32.8675C80.3561 32.4244 81.6138 32.3378 82.8203 32.6179C83.606 32.6659 84.374 32.8815 85.0773 33.2516C85.6289 33.5783 86.1362 33.9812 86.5854 34.4495C86.1631 33.9174 85.6242 33.5003 85.0147 33.234C84.2686 32.8536 83.4598 32.6265 82.6322 32.5651C81.4807 32.3554 80.297 32.4596 79.195 32.8675Z" fill="#E3B381"/>
<path d="M77.3568 32.7021C79.5101 31.7466 81.927 31.6714 84.1305 32.4915C86.0604 33.0401 87.8258 34.0929 89.2614 35.5514C87.8098 34.0721 86.0313 32.9922 84.0846 32.4082C81.8808 31.6586 79.4934 31.7629 77.3568 32.7021Z" fill="#E3B381"/>
<path d="M98.1179 39.0241L103.196 40.4498C104.16 40.6131 105.105 40.8785 106.018 41.2419C105.074 40.9068 104.111 40.6363 103.134 40.4322L98.1179 39.0241Z" fill="#E3B381"/>
<path d="M95.0265 36.3958C96.4617 37.2839 98.0093 37.9554 99.6235 38.3904L101.943 39.0417L102.57 39.2177C105.097 39.751 107.589 40.4506 110.031 41.3124C107.579 40.4827 105.089 39.7836 102.57 39.2177L101.943 39.0417L99.6235 38.3904C98.0187 38.0123 96.4822 37.367 95.0724 36.479L95.0265 36.3958Z" fill="#E3B381"/>
<path d="M51.5128 24.1799C52.2457 24.082 52.9885 24.1006 53.7161 24.2353L54.0923 24.3409L54.8447 24.5521L55.597 24.7633C56.0459 24.8559 56.5089 24.8415 56.9518 24.7212L58.4946 24.7319L65.8928 26.8089C65.8928 26.8089 65.8928 26.8089 63.3927 26.5999C62.6944 26.4976 61.9907 26.4412 61.2856 26.4308C60.5806 26.4204 59.8769 26.3639 59.1785 26.2617L57.4062 25.8345L55.5253 25.3064L54.5222 25.0248C51.8508 24.6973 51.412 24.5741 51.4501 24.1623L51.5128 24.1799ZM63.6357 26.1753L65.726 26.4101L62.1523 25.4068C61.4261 25.2744 60.7127 25.0741 60.0206 24.8083L58.5786 24.4034C58.1089 24.3175 57.6279 24.3258 57.1612 24.4279L55.7437 24.4525L55.0541 24.2588L54.1763 24.0124L53.8001 23.9068C53.1087 23.9144 52.4223 24.0302 51.7635 24.2503L54.5222 25.0248L55.3999 25.2712L57.2808 25.7993L59.1617 26.3274L61.2688 26.4965C61.9965 26.4735 62.7243 26.5362 63.4386 26.6832L63.6357 26.1753Z" fill="#E3B381"/>
<path d="M58.1852 24.6435C58.6022 24.6531 59.0108 24.7678 59.3765 24.9779L60.8812 25.4004C62.0724 25.7348 62.1351 25.7524 62.1978 25.77C61.0336 25.788 59.8719 25.6512 58.7405 25.3626C58.2377 25.1478 57.7111 25 57.1731 24.9226L55.8565 24.553C55.8565 24.553 55.9024 24.6362 58.1852 24.6435ZM61.0693 25.4532L60.1915 25.2068C59.9281 25.2014 59.6699 25.1289 59.4392 24.9955C59.1162 24.7969 58.7479 24.6935 58.3733 24.6963L56.2953 24.6762L57.2985 24.9578C57.8586 25.0354 58.4066 25.1892 58.9286 25.4155C59.8086 25.8089 60.7374 26.0696 61.6873 26.1899L61.0693 25.4532Z" fill="#E3B381"/>
<path d="M19.1746 14.2563C19.2008 14.547 19.2905 14.8274 19.4367 15.076C19.5828 15.3246 19.7816 15.5346 20.0176 15.6899C20.6044 15.928 21.214 16.0991 21.8358 16.2004C24.3848 17.1622 27.0064 17.8982 29.6729 18.4006C30.5093 18.7133 31.3619 18.9762 32.2266 19.188C33.2183 19.3133 34.2177 19.3585 35.216 19.3232C36.7418 19.2745 38.2687 19.3732 39.7772 19.618C40.135 19.7856 40.5159 19.8925 40.9058 19.9349L41.7835 20.1813L43.7025 20.2976C44.7327 20.3195 45.7586 20.4425 46.7669 20.6651C45.7442 20.3987 44.6935 20.2693 43.6398 20.28L41.7376 20.098L40.8599 19.8516L39.7313 19.5347C38.2228 19.2899 36.6959 19.1912 35.1701 19.2399L32.3274 18.7938L29.7356 18.4182C27.083 17.9552 24.4794 17.2242 21.9612 16.2356C21.3396 16.0678 20.752 15.7836 20.227 15.3966C20.0008 15.2694 19.8081 15.0855 19.6662 14.8614C19.5242 14.6373 19.4372 14.3798 19.4131 14.112C27.0096 14.6254 34.7516 15.8836 42.2428 17.0715C43.7783 17.3628 45.2882 17.7867 46.757 18.3388C45.2523 17.9164 43.6848 17.4763 42.1588 17.3999C34.6049 16.1945 26.8461 15.0019 19.2496 14.4886L18.8735 14.383C18.8735 14.383 19.2082 14.1249 19.1746 14.2563Z" fill="#E3B381"/>
<path d="M25.7482 18.2823C28.2247 19.2586 30.7866 19.9779 33.3972 20.4298L36.9766 20.0969L37.9171 20.361C42.3166 20.3455 46.7073 20.7765 51.0276 21.6479C46.7099 20.7912 42.3281 20.3386 37.9339 20.2953L36.9139 20.0793C35.6482 20.1034 34.3822 20.0535 33.1218 19.93C30.5255 19.5173 27.981 18.8029 25.5355 17.8002L25.7482 18.2823Z" fill="#E3B381"/>
<path d="M31.0992 20.488C32.5304 21.0352 34.0585 21.2479 35.5764 21.1113L36.6804 20.9988L38.0519 20.891C38.5893 20.8108 39.1339 20.7983 39.6742 20.8536L41.2416 21.2936L41.9313 21.4872L42.7463 21.7161C43.3028 21.812 43.8488 21.9653 44.3765 22.1737C46.5406 22.4127 48.69 22.781 50.8141 23.277C51.2119 23.4625 51.635 23.5813 52.068 23.629C52.5696 23.7699 52.9839 23.4637 53.0679 23.1353C53.0679 23.1353 52.5573 23.5552 52.227 23.5329C51.8159 23.4862 51.4141 23.3734 51.0358 23.1984C48.9041 22.6 46.6884 22.3299 44.5981 22.0951L42.8213 21.9483L41.9223 22.048L41.2326 21.8544C40.677 21.9143 40.1163 21.8989 39.5644 21.8085L38.1068 20.4135L36.7185 20.587L35.5518 20.6819C34.0792 20.7792 32.6034 20.5566 31.2168 20.0281L31.0992 20.488Z" fill="#E3B381"/>
<path d="M21.4795 15.7484C21.7639 15.7614 22.0421 15.8395 22.2946 15.9772C22.7766 16.1856 23.2824 16.3276 23.7993 16.3997L24.4263 16.5757C25.7429 16.9454 27.2734 16.7414 28.7367 16.8002C30.1366 16.5036 31.5551 16.3136 32.9812 16.2316C34.1749 16.4608 35.3491 16.7904 36.4922 17.2173L38.1223 17.675C38.5459 17.6178 38.974 17.738 39.3136 18.0094C38.2166 18.3576 37.0477 18.3713 35.9435 18.049L34.815 17.7322L30.0063 18.1423C29.0836 18.1272 28.1636 18.0338 27.2554 17.8629C26.5082 17.7251 25.7739 17.5189 25.061 17.2468L21.3619 16.2083C21.3202 16.1307 21.3091 16.0392 21.3311 15.9532C21.3531 15.8672 21.4064 15.7937 21.4795 15.7484ZM37.9711 18.2662C37.3754 18.2905 36.779 18.2412 36.1943 18.1194L35.0031 17.785C34.3134 17.5913 33.5611 17.3801 32.7706 17.5806C32.0471 17.467 31.3149 17.4265 30.584 17.4596L29.0412 17.4489L26.0564 17.0334C26.9477 16.9584 27.8438 16.9742 28.7322 17.0805L29.61 17.327C32.1434 17.3294 34.6725 17.545 37.1729 17.9717L36.5459 17.7957C35.292 17.4436 33.6619 16.986 33.0349 16.8099C32.4079 16.6339 30.2504 16.6619 28.8498 16.6207C27.3844 16.6613 25.918 16.6024 24.4599 16.4443L23.8329 16.2683L22.2946 15.9772C22.0865 15.8464 21.8475 15.7794 21.6049 15.7836L27.373 17.403L30.0612 17.6649L34.9695 17.9163L36.1607 18.2508C37.186 18.4304 38.2367 18.3643 39.2341 18.0575C38.8715 17.8565 38.4478 17.8135 38.0551 17.9377L37.9711 18.2662ZM37.9924 17.9201C35.2531 17.3575 32.4686 17.0709 29.6772 17.0642L28.7367 16.8002L26.1572 16.6392L28.4769 17.2905L30.0198 17.3012L32.7124 17.2827L34.8441 17.8811C35.2487 17.9608 35.6469 18.0726 36.0353 18.2156C36.5553 18.4482 37.1041 18.6023 37.6654 18.6732L37.9924 17.9201Z" fill="#E3B381"/>
<path d="M20.4987 14.6266C20.7413 14.6224 20.9803 14.6894 21.1884 14.8203L22.7558 15.2603L24.2605 15.6828L26.4852 15.392C30.2971 15.4726 34.092 15.9484 37.8144 16.8125L38.3786 16.9709C40.1968 17.4814 42.1404 18.027 42.4539 18.115C42.7674 18.2031 42.3363 18.5749 42.3027 18.7063C42.2691 18.8377 40.3792 18.8703 39.4679 18.7553C37.2966 18.4074 35.1078 18.1926 32.9126 18.1118L31.8468 17.8126C30.6953 17.8553 29.5424 17.7908 28.4018 17.6199L25.3923 16.775C23.666 16.6991 21.9735 16.248 20.4225 15.4501L20.109 15.3621C20.0807 15.2873 20.0687 15.2069 20.0737 15.1266C20.0786 15.0463 20.1006 14.9682 20.1378 14.8978C20.1751 14.8275 20.2268 14.7667 20.2892 14.7198C20.3516 14.6729 20.4232 14.6411 20.4987 14.6266ZM33.038 18.147C35.3041 18.22 37.5825 18.5076 39.6101 18.7248L40.0489 18.848C40.8013 19.0592 42.1806 19.4465 42.6621 18.8776C42.7252 18.8235 42.7704 18.75 42.7915 18.6675C42.8126 18.585 42.8085 18.4976 42.7797 18.4177C42.8973 17.9579 40.0838 17.6608 38.9552 17.344L38.3282 17.168C34.6334 16.2932 30.8653 15.8013 27.0785 15.6994C26.3527 15.6766 25.6284 15.6143 24.9088 15.5127L23.404 15.0903L21.3351 14.5094C21.1374 14.4131 20.9252 14.3536 20.7081 14.3334C20.7081 14.3334 20.7081 14.3334 20.6073 14.7275C22.0011 15.7473 23.602 16.4137 25.2837 16.6741C26.2486 17.0138 27.2328 17.2901 28.2305 17.5014L31.6755 17.6941L32.6786 17.9757L32.5532 17.9405L33.038 18.147Z" fill="#E3B381"/>
<path d="M20.0179 12.0279C21.3379 11.9114 22.6663 12.0923 23.9141 12.5585L24.9172 12.8401C26.1973 13.0909 27.4994 13.1968 28.8011 13.156C29.9264 13.1696 31.05 13.25 32.1666 13.3968C31.0334 13.2049 29.8862 13.1185 28.7384 13.1384C27.4606 13.1906 26.1817 13.0682 24.934 12.7744L24.0563 12.528C22.7495 12.1096 21.3817 11.9402 20.0179 12.0279Z" fill="#E3B381"/>
<path d="M19.1265 12.3419L21.1955 12.9227L22.7629 13.3628C23.2367 13.4287 23.7004 13.5589 24.1422 13.75C26.5247 14.4189 29.121 14.5142 31.5416 14.7713C29.0583 14.4965 26.5919 14.1561 24.0795 13.7324L22.7002 13.3452C22.1633 13.262 21.6374 13.1143 21.1328 12.9051L19.2519 12.3771C19.2519 12.3771 19.3863 11.8515 20.0804 11.7648C20.4138 11.6683 20.7629 11.6463 21.1049 11.7003C22.3102 11.7591 23.5118 11.8849 24.7044 12.0772C26.597 12.4864 28.5364 12.6039 30.4614 12.4262C28.536 12.5342 26.6051 12.4172 24.7044 12.0772C23.5185 11.863 22.3226 11.7153 21.1217 11.6347C20.7502 11.5962 20.3752 11.6344 20.0177 11.7472C20.0177 11.7472 19.2105 12.0134 19.1265 12.3419Z" fill="#E3B381"/>
<path d="M18.3832 13.6813C18.5242 13.5637 18.687 13.4782 18.8612 13.4301C19.0355 13.3821 19.2174 13.3726 19.3953 13.4022L20.2104 13.631L20.8374 13.8071L22.4261 13.901L22.9276 14.0419C24.3283 14.083 25.7412 14.3389 27.1709 14.5291C25.7486 14.2557 24.3098 14.087 22.8649 14.0243L22.3634 13.8834C21.8674 13.8176 21.3823 13.6814 20.9214 13.4786L19.6047 13.1089C19.0986 13.2485 18.6094 13.3224 18.3832 13.6813Z" fill="#E3B381"/>
</g>
<g style="mix-blend-mode:screen" opacity="0.2">
<path d="M70.6424 31.8743C72.9324 31.4045 75.2528 31.1145 77.584 31.0068L78.9007 31.3765L79.7784 31.6229L81.1578 32.0101L82.5998 32.415C83.4286 32.5859 84.2456 32.8152 85.0449 33.1015C86.8183 33.8599 88.5497 34.722 90.2308 35.6839C92.4727 37.0492 94.8454 38.1637 97.3098 39.0091L101.51 40.1884C102.896 40.5845 104.247 41.1051 105.548 41.7443C104.246 41.048 102.877 40.4985 101.465 40.1052L97.2639 38.9258C94.9012 37.9399 92.655 36.6713 90.57 35.1455C88.9078 34.1381 87.1806 33.2532 85.401 32.4974C84.5799 32.2079 83.7424 31.9728 82.8932 31.7933L81.7019 31.4588C81.2427 31.2509 80.7569 31.1145 80.2599 31.054L79.4448 30.8252L77.9815 30.7664C75.5102 30.9237 73.0556 31.2943 70.6424 31.8743Z" fill="#E3B381"/>
<path d="M89.8498 30.366C90.3103 30.5994 90.7058 30.9529 90.9985 31.3925L91.5705 32.046C92.0191 32.4129 92.4988 32.7361 93.0035 33.0116C96.7647 34.9824 101.057 35.5414 105.165 34.5952C101.122 35.5035 96.9045 34.9403 93.2084 32.9987C92.7011 32.7904 92.2318 32.4919 91.8213 32.1164L91.2492 31.463C90.9221 31.0167 90.5167 30.64 90.0547 30.3531L89.8498 30.366Z" fill="#E3B381"/>
<path d="M90.9721 30.6824C92.0804 32.0906 93.5948 33.084 95.288 33.5134C97.0508 33.9559 98.8492 34.2251 100.66 34.3175L103.285 34.5617L100.643 34.3832C98.8572 34.2742 97.0852 33.9889 95.3506 33.531C93.7044 33.1456 92.2221 32.2105 91.1266 30.8666L90.9721 30.6824Z" fill="#E3B381"/>
<path d="M87.2221 29.5608L90.1463 31.7899C90.8788 32.3366 91.6563 32.8141 92.4694 33.2166C93.6988 33.733 94.9828 34.0934 96.2939 34.2903C99.4073 35.3064 102.671 35.7216 105.926 35.5159C102.692 35.7574 99.4434 35.3474 96.3566 34.3079C95.0523 34.0773 93.7717 33.7177 92.5321 33.2342C91.7678 32.8127 91.0384 32.3253 90.3512 31.777L87.4102 29.6136L87.2221 29.5608Z" fill="#E3B381"/>
<path d="M78.2267 26.1189C81.8354 27.6228 85.2962 29.4905 88.5603 31.6955L93.1146 34.3823C93.9882 34.8526 94.9054 35.2281 95.852 35.5029L98.0463 36.119C101.361 36.5568 104.568 36.8938 107.996 37.1522C104.693 36.929 101.407 36.6401 98.0463 36.119L95.9147 35.5205C94.972 35.3633 94.0474 35.1037 93.156 34.746C91.6267 33.8942 90.131 32.911 88.6812 32.0111C85.3669 29.8151 81.8588 27.9578 78.2054 26.465L78.2267 26.1189Z" fill="#E3B381"/>
<path d="M66.8907 23.1473C68.9741 25.1036 71.4631 26.5255 74.1611 27.3007C75.4925 27.781 76.8542 28.1633 78.2364 28.4449C79.6814 28.744 81.1057 29.1439 82.4998 29.6418C84.8532 30.5909 87.1167 31.7685 89.2608 33.1594L91.772 34.6389C93.0446 35.4647 94.416 36.1102 95.8505 36.5584C96.7636 36.9197 97.7087 37.185 98.6719 37.3505L107.422 38.61L98.6887 37.2848C97.7529 37.0948 96.8311 36.836 95.93 36.5103C94.5579 36.0159 93.2341 35.3849 91.9769 34.626L89.2362 32.73C87.0709 31.3329 84.7866 30.1495 82.4125 29.1949C81.0279 28.6646 79.6012 28.264 78.1491 27.9979C76.8325 27.6283 75.4532 27.241 74.0738 26.8538C71.4068 26.1354 68.948 24.7441 66.912 22.8013L66.8907 23.1473Z" fill="#E3B381"/>
<path d="M74.0416 30.9286C75.7573 30.6148 77.4909 30.4194 79.231 30.3437L80.4223 30.6781L80.9238 30.8189L82.3032 31.2062C85.9352 32.4577 89.4335 34.1005 92.742 36.1083L93.369 36.2843C94.3289 36.903 95.3434 37.4236 96.3985 37.8389C97.6045 38.2832 98.8411 38.6304 100.098 38.8775L101.602 39.2999C103.946 39.8564 106.205 40.7512 108.314 41.9587C106.169 40.7789 103.894 39.8799 101.54 39.2823L99.9722 38.8422C98.7297 38.6343 97.5111 38.2921 96.3358 37.8213C95.3167 37.3756 94.3257 36.8622 93.369 36.2843L92.742 36.1083C89.4125 34.0938 85.8933 32.4452 82.2405 31.1886C81.7795 30.9858 81.2944 30.8496 80.7985 30.7837L80.2969 30.6429C79.8456 30.5916 79.3897 30.6057 78.9422 30.685C77.3054 30.6605 75.6688 30.7418 74.0416 30.9286Z" fill="#E3B381"/>
<path d="M44.6797 23.0363C45.247 22.8179 45.851 22.7239 46.4544 22.76C47.0578 22.7962 47.6476 22.9618 48.1874 23.2466L48.7517 23.4051C49.5803 23.5742 50.4273 23.6225 51.2685 23.5484L51.9582 23.742C52.7106 23.9532 54.3038 23.7669 54.9979 23.6801C56.6269 23.5328 58.2675 23.7301 59.8223 24.2601L60.8881 24.5593C61.9978 24.7666 63.0885 25.0728 64.1483 25.4746L64.6499 25.6154C65.5399 25.8842 66.3875 26.2882 67.1656 26.8146C67.1656 26.8146 66.2038 26.8966 65.1212 26.663L64.3061 26.4342L62.6547 26.3226C61.9667 26.3681 61.276 26.3393 60.5935 26.2368C58.3991 25.6207 55.8196 25.4598 52.9478 24.8648L48.7472 23.6854L46.6782 23.1046L46.6155 23.087C45.2989 22.7173 45.0481 22.6469 44.9854 22.6293L44.7973 22.5765L44.6797 23.0363ZM67.1365 26.6656C66.3913 26.1749 65.5799 25.8047 64.7294 25.5673L64.2278 25.4265C63.1586 25.0567 62.0701 24.7511 60.9676 24.5112L60.2153 24.3C58.6968 23.8043 57.1015 23.6193 55.5163 23.7552C54.4816 23.8866 53.4379 23.9234 52.3971 23.8652L51.7074 23.6716C50.7582 23.7408 49.8045 23.6628 48.8771 23.4403L48.1874 23.2466C47.2514 22.8093 46.1967 22.738 45.2149 23.0458L49.1647 24.1547L53.3654 25.334L60.9943 26.7718L62.9928 26.84L64.7237 26.9035L65.4761 27.1147C66.0403 27.2731 67.2316 27.6076 67.2943 27.6252L67.1365 26.6656Z" fill="#E3B381"/>
<path d="M40.7743 22.5051L41.2759 22.646C42.4496 22.3692 43.6533 22.2573 44.8553 22.3131L46.0465 22.6476C48.8459 23.1494 51.6807 23.4036 54.5208 23.4073L55.1477 23.5833C56.677 23.5466 58.2068 23.6232 59.7258 23.8125C62.0868 24.331 64.3866 25.1183 66.5843 26.1605L68.2144 26.6181L69.5311 26.9878C70.8477 27.3574 71.412 27.5158 71.6 27.5686C70.4893 27.8734 69.3299 27.9316 68.1964 27.7396C67.066 27.5649 65.927 27.4567 64.785 27.4155L63.6643 27.5937C57.173 26.9355 50.7566 25.6292 44.5025 23.6926L43.3112 23.3582C42.3708 23.0942 41.1247 23.2372 40.9288 22.6893L40.7743 22.5051ZM69.5815 26.7907L68.2648 26.4211L66.572 25.9458C64.4079 24.8764 62.125 24.0936 59.7762 23.6154C58.2875 23.3834 56.782 23.2906 55.2776 23.3382L54.6507 23.1621C51.7949 23.2783 48.9351 23.1119 46.1092 22.6652L44.8553 22.3131C43.661 22.3684 42.4733 22.5295 41.305 22.7949L40.9288 22.6893C40.9288 22.6893 42.1827 23.0414 42.9978 23.2702L44.2517 23.6222C50.5123 25.5426 56.9348 26.8269 63.4303 27.4576L64.4961 27.7569C65.562 28.0561 66.8081 27.9131 67.9702 28.0986C69.0337 28.3076 70.129 28.2535 71.169 27.9405C70.6974 27.4765 70.1624 27.0889 69.5815 26.7907Z" fill="#E3B381"/>
<path d="M38.4096 21.2761L39.0993 21.4698C39.2545 21.4597 39.4086 21.5029 39.5382 21.593L40.6634 21.1344C41.0564 21.1574 41.4406 21.2653 41.792 21.4512C42.7311 21.6267 43.6872 21.6823 44.6391 21.6169C45.591 21.5845 46.5437 21.6399 47.4863 21.7825L50.3703 22.5922C51.4645 22.7024 52.5661 22.7053 53.6608 22.6008L54.6226 22.5187C56.8308 22.379 59.047 22.5513 61.2114 23.0308L62.5908 23.418L61.5876 23.1364C63.2432 24.0816 64.9743 24.8739 66.7611 25.5042L71.6515 26.8771L72.3411 27.0708C73.0829 27.1178 73.808 27.3213 74.4728 27.6692C74.4728 27.6692 74.0966 27.5636 73.3689 27.7817L72.7419 27.6057C70.7893 27.6208 68.7572 27.684 66.7128 27.5324C64.6684 27.3809 63.3809 27.1603 61.9512 26.9701C54.3432 25.8684 46.8156 24.2255 39.4206 22.0528L38.292 21.736C37.9159 21.6304 37.6024 21.5424 37.6909 20.9335C37.6909 20.9335 37.6069 21.262 38.4096 21.2761ZM74.1671 28.0763C73.6309 27.5761 72.9587 27.2643 72.2448 27.1845L71.5552 26.9909L66.6021 25.6004C64.6515 24.9073 62.7589 24.0463 60.9438 23.0261C58.7747 22.5827 56.5629 22.4108 54.355 22.514L53.4559 22.6136C52.3186 22.7148 51.1746 22.7002 50.04 22.5699L48.4726 22.1299L47.2187 21.7778C46.2833 21.6156 45.3364 21.5382 44.3883 21.5465C43.4327 21.6028 42.4743 21.5693 41.5244 21.4465C41.2013 21.2479 40.8331 21.1445 40.4585 21.1473C40.1236 21.2334 39.7765 21.2552 39.4341 21.2117L38.619 20.9829L37.804 20.7541C37.804 20.7541 37.804 20.754 38.2842 21.2409L38.4096 21.2761L39.4128 21.5578C46.8159 23.6957 54.3413 25.3381 61.9434 26.4751L66.6591 26.9541C68.666 27.0942 70.6787 27.1187 72.6882 27.0274L73.3152 27.2034L74.1302 27.4322L74.1671 28.0763Z" fill="#E3B381"/>
<path d="M64.1943 29.9953C70.1272 29.24 76.1329 29.3847 82.0263 30.4251C76.1346 29.3664 70.1263 29.2216 64.1943 29.9953Z" fill="#E3B381"/>
<path d="M57.9729 27.5439C61.5138 28.7251 65.2257 29.2429 68.9382 29.0735L69.9413 29.3551C73.2179 29.1243 76.5091 29.3153 79.7412 29.9238C82.3911 30.5202 84.9102 31.6335 87.1673 33.2056C84.8894 31.5757 82.3301 30.4267 79.6326 29.8229C76.3771 29.235 73.0682 29.0383 69.7701 29.2366L68.7669 28.955C65.0698 29.2281 61.3563 28.7823 57.8139 27.6401L57.9729 27.5439Z" fill="#E3B381"/>
<path d="M78.9779 32.6648C80.1536 32.3002 81.3921 32.215 82.6032 32.4153C83.3836 32.4952 84.1462 32.7093 84.8603 33.049C85.401 33.3368 85.8946 33.713 86.3224 34.1635C85.8732 33.6953 85.366 33.2924 84.8144 32.9657C84.0574 32.6168 83.2539 32.3912 82.4319 32.2968C81.27 32.0886 80.076 32.2158 78.9779 32.6648Z" fill="#E3B381"/>
<path d="M77.1487 32.4344C79.2947 31.4447 81.7241 31.3692 83.9224 32.2239C85.8613 32.7492 87.6321 33.8052 89.0533 35.2838C87.5841 33.791 85.7835 32.7048 83.8138 32.123C81.632 31.3577 79.2568 31.4687 77.1487 32.4344Z" fill="#E3B381"/>
<path d="M97.8291 38.8046L102.97 40.2479C103.934 40.4112 104.879 40.6766 105.792 41.04C104.868 40.6406 103.898 40.3684 102.908 40.2303L97.8291 38.8046Z" fill="#E3B381"/>
<path d="M94.7436 35.8955C96.1787 36.7836 97.7263 37.4551 99.3405 37.8902L101.66 38.5415L102.287 38.7175C104.793 39.245 107.264 39.9388 109.685 40.7945C107.243 39.9323 104.751 39.2326 102.225 38.6999L101.598 38.5239L99.2778 37.8726C97.6929 37.4297 96.1649 36.7879 94.7268 35.9612L94.7436 35.8955Z" fill="#E3B381"/>
<path d="M51.135 24.0743C51.8654 23.9354 52.6152 23.9543 53.3384 24.1297L53.7146 24.2353L54.4669 24.4465L55.2193 24.6577C55.6707 24.7058 56.1262 24.6916 56.574 24.6156C57.0867 24.5508 57.6051 24.5544 58.1169 24.6263L61.6279 25.612C62.2282 25.7101 62.8167 25.8754 63.3834 26.1049L64.0103 26.2809C64.5704 26.3585 65.1184 26.5123 65.6404 26.7386C65.6404 26.7386 65.6404 26.7386 63.2031 26.5471C62.5048 26.4449 61.801 26.3884 61.096 26.378C60.3695 26.3676 59.6446 26.3052 58.9262 26.1913L57.0453 25.6632L55.1644 25.1352L54.2867 24.8887C51.6993 24.2327 51.135 24.0743 51.135 24.0743ZM63.2121 25.9864L65.2811 26.5673L61.8327 25.5991C61.1068 25.4657 60.3934 25.2655 59.7011 25.0007C59.2602 24.8065 58.7962 24.6762 58.3217 24.6134L56.9043 24.6379L55.4701 24.7281L54.7177 24.5169C54.4337 24.5019 54.1559 24.4239 53.9027 24.2881L53.4638 24.1649C52.8236 24.0568 52.1725 24.0398 51.528 24.1142L54.2867 24.8887L55.1017 25.1176L57.0453 25.6632L58.9262 26.1913C59.6208 26.3265 60.3272 26.3832 61.0333 26.3604L63.2031 26.5471L63.2121 25.9864Z" fill="#E3B381"/>
<path d="M57.7747 24.3891C58.1916 24.3987 58.6002 24.5134 58.9659 24.7235L59.6556 24.9171L60.4706 25.146L61.7872 25.5156C60.6456 25.5468 59.5063 25.3931 58.4094 25.0601C57.9066 24.8453 57.38 24.6975 56.842 24.6201C56.3888 24.5622 55.9455 24.4378 55.5254 24.2505C55.5254 24.2505 55.6967 24.3689 57.7747 24.3891ZM60.7214 25.2164L59.2167 24.7939C58.8936 24.5953 58.5254 24.4919 58.1508 24.4947L57.7747 24.3891L55.6172 24.417L56.683 24.7163C57.2484 24.7639 57.8008 24.919 58.3131 25.1739C59.2489 25.3958 60.199 25.5449 61.1558 25.62L60.7214 25.2164Z" fill="#E3B381"/>
<path d="M18.9679 13.9885C18.8672 14.3826 19.2679 14.9176 19.8277 15.3564C20.3509 15.7511 20.9306 16.0564 21.5451 16.261C24.0843 17.2553 26.7087 17.9921 29.3822 18.4612L32.3211 18.7935L35.3105 18.9287C36.8149 18.8811 38.3203 18.9739 39.809 19.2059C40.196 19.3539 40.5946 19.4658 41.0003 19.5404L41.878 19.7868L43.797 19.9031C44.8291 19.8915 45.8585 20.0149 46.8613 20.2706C45.834 20.0323 44.7864 19.9033 43.7343 19.8855C43.093 19.887 42.4522 19.8481 41.8153 19.7692L40.9376 19.5228L39.809 19.2059C38.3041 18.9743 36.7856 18.8538 35.2646 18.8454L32.3211 18.7935L29.7293 18.4179C27.0627 17.9158 24.4411 17.1798 21.8922 16.2176C21.1471 16.0166 20.4355 15.6981 19.7818 15.2731C19.5476 15.1565 19.3482 14.9754 19.2048 14.7491C19.0614 14.5228 18.9795 14.2598 18.9679 13.9885C26.5644 14.5018 34.3064 15.7601 41.8144 16.8822C43.3428 17.2061 44.8504 17.6294 46.3286 18.1496C44.8025 17.6981 43.2436 17.3782 41.6677 17.1931C34.1765 16.0052 26.4178 14.8127 18.8213 14.2993L18.4451 14.1937L18.9679 13.9885Z" fill="#E3B381"/>
<path d="M25.1552 17.9081C27.6422 18.9237 30.2283 19.6498 32.8669 20.0731C34.0581 20.4076 35.3837 20.2165 36.659 20.2224L37.5994 20.4865C41.999 20.4711 46.3896 20.902 50.7099 21.7734C46.3974 20.8798 42.0123 20.4269 37.6162 20.4208L36.6758 20.1568C35.4845 19.8223 34.1085 20.2105 32.8669 20.0731C30.2772 19.6271 27.7361 18.9136 25.2806 17.9433L25.1552 17.9081Z" fill="#E3B381"/>
<path d="M30.8256 20.2028C32.275 20.7448 33.8115 20.9848 35.3488 20.9094L36.4527 20.7969L37.841 20.6234L39.4129 20.7831C39.9648 20.8735 40.5255 20.8889 41.0812 20.829L41.7708 21.0226L42.6699 20.923L44.384 21.0522C46.5442 21.3103 48.6881 21.7006 50.8048 22.2211C51.2127 22.3748 51.6322 22.4926 52.0588 22.5732C52.5603 22.714 52.9914 22.3422 53.0754 22.0137C53.0754 22.0137 52.5648 22.4336 52.2178 22.477C51.8066 22.4303 51.4048 22.3175 51.0265 22.1426C48.8948 21.5441 46.6792 21.2741 44.5889 21.0393C44.0231 20.9361 43.4488 20.8928 42.8748 20.9101L42.0597 20.6813L41.37 20.4876C40.8136 20.5054 40.2566 20.49 39.7018 20.4417L37.7828 20.3254L36.3945 20.4989L35.2906 20.6114C33.818 20.7087 32.3421 20.4861 30.9555 19.9576L30.8256 20.2028Z" fill="#E3B381"/>
<path d="M21.3418 15.218C21.6259 15.233 21.9037 15.311 22.1569 15.4468L23.6616 15.8693L24.2259 16.0277C25.6052 16.4149 27.1357 16.2109 28.599 16.2697C30.0679 16.0812 31.5476 16.0025 33.0271 16.0343C33.7168 16.228 35.2842 16.668 36.6008 17.0377L38.2309 17.4953C38.6545 17.4382 39.0826 17.5583 39.4222 17.8297L39.2968 17.7945C38.6272 18.3106 37.1348 18.1029 35.9099 17.8998L34.7814 17.583L29.8731 17.3315C28.9507 17.3109 28.0312 17.2174 27.1222 17.052L24.9278 16.436L21.2914 15.4151C21.2886 15.3455 21.3062 15.2767 21.3418 15.218ZM37.8503 17.6701C37.2704 17.5806 36.7023 17.4211 36.1574 17.1948L34.9662 16.8604L32.8345 16.2619C32.1019 16.1943 31.366 16.1758 30.6311 16.2066L29.0883 16.1959C28.1251 16.0308 27.1799 15.7655 26.267 15.4038C27.1425 15.3452 28.0203 15.3331 28.8969 15.3676L29.8374 15.6317C32.3655 15.684 34.887 15.9213 37.3835 16.3421L36.6938 16.1485C35.5489 15.7277 34.3752 15.3982 33.1828 15.1627C31.7935 15.0003 30.3952 14.9371 28.9977 14.9735C27.5361 15.026 26.0728 14.945 24.6246 14.7314L23.9976 14.5554L22.4929 14.133C22.2848 14.0022 22.0459 13.9351 21.8032 13.9393L27.6967 15.5939L30.4016 15.7901L35.31 16.0416L36.5012 16.376C37.2986 17.1 38.2524 17.6095 39.28 17.8602C39.0739 17.7102 38.8363 17.6146 38.5874 17.5815C38.3384 17.5484 38.0856 17.5788 37.8503 17.6701ZM38.1055 17.4601C35.367 16.8916 32.582 16.6049 29.7903 16.6042L28.8498 16.3401L26.1863 16.5076C26.9387 16.7994 27.7152 17.0174 28.506 17.1589L30.0321 17.2353L32.2354 17.2906C32.9551 17.3922 33.6794 17.4545 34.4052 17.4774L35.6592 17.8294C36.2216 17.9588 36.7989 18.0024 37.3733 17.9586L38.1055 17.4601Z" fill="#E3B381"/>
<path d="M20.0232 14.3534L20.7129 14.547L22.5311 15.0575L24.0358 15.48C24.7255 15.6736 25.3524 15.8496 26.1429 15.6491L26.3937 15.7195C30.2049 15.8096 33.9989 16.2853 37.7229 17.1399L38.3498 17.316C40.168 17.8264 42.1116 18.3721 42.4251 18.4601C42.4703 18.5615 42.4799 18.6764 42.4522 18.7845C42.4246 18.8927 42.3614 18.9871 42.2739 19.0513C42.1395 19.5769 40.4131 19.233 39.5018 19.1179L39.0002 18.9771C36.9312 18.3963 34.6315 18.4547 32.4281 18.3994L31.425 18.1177C30.2741 18.1199 29.1241 18.0556 27.98 17.925C26.9401 17.7036 25.9141 17.4155 24.9078 17.0625C23.2258 16.8826 21.6043 16.307 20.1642 15.3787C20.0543 15.3777 19.9464 15.3474 19.8507 15.2907C19.7321 15.2667 19.6274 15.1944 19.5597 15.0895C19.492 14.9847 19.4668 14.856 19.4897 14.7317C19.5126 14.6074 19.5816 14.4977 19.6817 14.4268C19.7817 14.3558 19.9046 14.3295 20.0232 14.3534ZM32.5625 17.8738C34.7613 17.947 36.9549 18.1398 39.1346 18.4516L39.5735 18.5748C40.3258 18.786 41.7051 19.1733 42.1239 18.5868C42.5427 18.0003 42.1239 18.5868 42.2415 18.1269C42.3591 17.6671 39.5456 17.37 38.3543 17.0356L37.8528 16.8948C34.1264 15.9741 30.3212 15.4483 26.4945 15.3253C25.7636 15.3516 25.032 15.3111 24.3079 15.2043L22.6151 14.729L21.1104 14.3066C20.9229 14.1834 20.7045 14.1221 20.4834 14.1306C21.8944 15.1164 23.4878 15.7796 25.1598 16.0772L28.1693 16.9221C29.2846 17.0819 30.409 17.1623 31.5348 17.1628L32.6006 17.4621L32.6633 17.4797L32.5625 17.8738Z" fill="#E3B381"/>
<path d="M19.7894 11.8255C21.107 11.7782 22.4232 11.9575 23.6855 12.3561L24.6887 12.6377C25.9696 12.882 27.271 12.9879 28.5726 12.9536C29.6979 12.9672 30.8215 13.0476 31.9381 13.1944C30.7975 13.0235 29.6446 12.959 28.4931 13.0017C27.2177 12.9864 25.9456 12.8647 24.6887 12.6377L23.8109 12.3913C22.5134 11.9527 21.1514 11.7611 19.7894 11.8255Z" fill="#E3B381"/>
<path d="M18.9148 12.0745L20.9837 12.6554L22.6139 13.113L23.9932 13.5003C26.4405 13.9785 28.9105 14.3194 31.3926 14.5215C28.972 14.2644 26.4428 13.9064 23.9932 13.5003L22.6139 13.113L21.0464 12.673L19.1655 12.1449C19.1655 12.1449 19.2999 11.6194 19.9941 11.5326C20.2437 11.4458 20.5048 11.4004 20.7678 11.3978C21.9687 11.4784 23.1646 11.6262 24.3505 11.8404C26.2512 12.1803 28.1821 12.2973 30.1075 12.1893C28.1825 12.367 26.2431 12.2495 24.3505 11.8404C23.2219 11.5235 22.0307 11.1891 20.751 11.4635C20.3795 11.425 20.0044 11.4633 19.647 11.576C19.647 11.576 18.982 11.8117 18.9148 12.0745Z" fill="#E3B381"/>
<path d="M18.1544 13.4789C18.2954 13.3613 18.4582 13.2758 18.6325 13.2278C18.8067 13.1797 18.9886 13.1702 19.1666 13.1998L19.9816 13.4286L20.4205 13.5519L22.0092 13.6458L22.4481 13.7691C23.8925 13.8366 25.3311 14.0053 26.7541 14.2739L34.5588 15.5497L26.8717 13.814C25.4923 13.4268 23.9663 13.3504 22.503 13.2916L22.0641 13.1684L20.6221 12.7636L19.4936 12.4467C18.8699 13.0461 18.3179 13.1024 18.1544 13.4789Z" fill="#E3B381"/>
</g>
</g>
<path d="M102.851 36.2695L102.162 38.9629L103.729 39.4029L104.418 36.7096L102.851 36.2695Z" fill="url(#paint19_linear_1_6995)" style="mix-blend-mode:multiply"/>
<path d="M40.7816 19.3383L41.6593 19.5847C41.9087 19.6547 42.1214 19.8257 42.2505 20.06C42.3796 20.2943 42.4146 20.5728 42.3478 20.8341L41.659 23.5275L38.8376 22.7354L39.5264 20.042C39.5607 19.9068 39.6211 19.7804 39.704 19.6708C39.7868 19.5611 39.8903 19.4704 40.0081 19.4044C40.1258 19.3384 40.2552 19.2985 40.3883 19.2871C40.5213 19.2757 40.6552 19.2931 40.7816 19.3383Z" fill="url(#paint20_linear_1_6995)"/>
<path d="M91.6384 37.5566L88.817 36.7645L89.5058 34.0712C89.5726 33.8098 89.7358 33.587 89.9594 33.4517C90.1831 33.3165 90.4488 33.2798 90.6982 33.3498L91.3252 33.5259C91.4487 33.5605 91.5645 33.6204 91.6659 33.7019C91.7673 33.7835 91.8525 33.8851 91.9164 34.0012C91.9803 34.1172 92.0218 34.2453 92.0385 34.3781C92.0552 34.5109 92.0467 34.6459 92.0137 34.7753L91.3249 37.4686L91.6384 37.5566Z" fill="url(#paint21_linear_1_6995)"/>
<path d="M27.5432 4.91783L22.7783 3.58008C22.4105 3.47359 22.0183 3.51221 21.6759 3.68862C21.3335 3.86503 21.0648 4.16697 20.9208 4.53716C20.8477 4.74689 20.8184 4.97059 20.8347 5.19321C20.851 5.41583 20.9126 5.63221 21.0153 5.82781C21.1181 6.0234 21.2596 6.19369 21.4304 6.32721C21.6012 6.46073 21.7973 6.55439 22.0055 6.6019L26.6451 7.90445L27.3171 5.27678L27.5432 4.91783Z" fill="url(#paint22_linear_1_6995)"/>
<path opacity="0.5" d="M91.1628 101.986L8.40325 78.751L7.98326 80.3933L90.7428 103.628L91.1628 101.986Z" fill="url(#paint23_linear_1_6995)" style="mix-blend-mode:multiply"/>
<defs>
<linearGradient id="paint0_linear_1_6995" x1="171.98" y1="-3.13602" x2="149.973" y2="-7.65318" gradientUnits="userSpaceOnUse">
<stop stop-color="#A61C11"/>
<stop offset="0.03" stop-color="#AA1D12"/>
<stop offset="0.33" stop-color="#C82518"/>
<stop offset="0.49" stop-color="#D4281B"/>
<stop offset="0.71" stop-color="#C32417"/>
<stop offset="1" stop-color="#A61C11"/>
</linearGradient>
<linearGradient id="paint1_linear_1_6995" x1="171.98" y1="-3.13602" x2="149.973" y2="-7.65318" gradientUnits="userSpaceOnUse">
<stop stop-color="#A61C11"/>
<stop offset="0.03" stop-color="#AA1D12"/>
<stop offset="0.33" stop-color="#C82518"/>
<stop offset="0.49" stop-color="#D4281B"/>
<stop offset="0.71" stop-color="#C32417"/>
<stop offset="1" stop-color="#A61C11"/>
</linearGradient>
<linearGradient id="paint2_linear_1_6995" x1="100.326" y1="72.1719" x2="100.839" y2="70.3445" gradientUnits="userSpaceOnUse">
<stop stop-color="#1A1615"/>
<stop offset="0.45" stop-color="#352F2D"/>
<stop offset="0.75" stop-color="#423A38"/>
<stop offset="0.84" stop-color="#36302E"/>
<stop offset="1" stop-color="#1A1615"/>
</linearGradient>
<linearGradient id="paint3_linear_1_6995" x1="47.4112" y1="99.6311" x2="64.9278" y2="37.2386" gradientUnits="userSpaceOnUse">
<stop stop-color="#C92719"/>
<stop offset="0.24" stop-color="#DC2B1D"/>
<stop offset="0.44" stop-color="#E82D20"/>
<stop offset="0.71" stop-color="#DB2B1D"/>
<stop offset="1" stop-color="#C92719"/>
</linearGradient>
<linearGradient id="paint4_linear_1_6995" x1="47.4112" y1="99.6311" x2="64.9278" y2="37.2386" gradientUnits="userSpaceOnUse">
<stop stop-color="#C92719"/>
<stop offset="0.24" stop-color="#DC2B1D"/>
<stop offset="0.44" stop-color="#E82D20"/>
<stop offset="0.71" stop-color="#DB2B1D"/>
<stop offset="1" stop-color="#C92719"/>
</linearGradient>
<linearGradient id="paint5_linear_1_6995" x1="47.4112" y1="99.6311" x2="64.9278" y2="37.2386" gradientUnits="userSpaceOnUse">
<stop stop-color="#C92719"/>
<stop offset="0.24" stop-color="#DC2B1D"/>
<stop offset="0.44" stop-color="#E82D20"/>
<stop offset="0.71" stop-color="#DB2B1D"/>
<stop offset="1" stop-color="#C92719"/>
</linearGradient>
<linearGradient id="paint6_linear_1_6995" x1="62.7912" y1="39.4573" x2="63.6157" y2="36.5204" gradientUnits="userSpaceOnUse">
<stop offset="0.12" stop-color="white"/>
<stop offset="0.2" stop-color="#FDF9F9"/>
<stop offset="0.32" stop-color="#F8E8E7"/>
<stop offset="0.46" stop-color="#F0CCC9"/>
<stop offset="0.61" stop-color="#E5A5A0"/>
<stop offset="0.78" stop-color="#D6736B"/>
<stop offset="0.95" stop-color="#C4372C"/>
<stop offset="1" stop-color="#BF2518"/>
</linearGradient>
<linearGradient id="paint7_linear_1_6995" x1="28.6756" y1="172.889" x2="27.9413" y2="175.504" gradientUnits="userSpaceOnUse">
<stop stop-color="#BF2518"/>
<stop offset="1" stop-color="#BF2518"/>
</linearGradient>
<linearGradient id="paint8_linear_1_6995" x1="66.7531" y1="23.9951" x2="72.5663" y2="3.28937" gradientUnits="userSpaceOnUse">
<stop stop-color="#C92719"/>
<stop offset="0.01" stop-color="#DD3B35"/>
<stop offset="0.02" stop-color="#EF4E4E"/>
<stop offset="0.29" stop-color="#F04F4F"/>
<stop offset="0.62" stop-color="#E84848"/>
<stop offset="0.79" stop-color="#E84646"/>
<stop offset="0.88" stop-color="#E8413E"/>
<stop offset="0.95" stop-color="#E83831"/>
<stop offset="1" stop-color="#E82D20"/>
</linearGradient>
<linearGradient id="paint9_linear_1_6995" x1="65.3001" y1="29.6698" x2="65.6849" y2="28.2993" gradientUnits="userSpaceOnUse">
<stop offset="0.12" stop-color="white"/>
<stop offset="0.2" stop-color="#FCF9F9"/>
<stop offset="0.32" stop-color="#F2E7E7"/>
<stop offset="0.45" stop-color="#E2CBC9"/>
<stop offset="0.6" stop-color="#CBA3A0"/>
<stop offset="0.76" stop-color="#AE706B"/>
<stop offset="0.93" stop-color="#8C332C"/>
<stop offset="1" stop-color="#7D1810"/>
</linearGradient>
<linearGradient id="paint10_linear_1_6995" x1="67.7095" y1="20.2751" x2="68.0759" y2="18.9698" gradientUnits="userSpaceOnUse">
<stop offset="0.12" stop-color="white"/>
<stop offset="0.2" stop-color="#FCF9F9"/>
<stop offset="0.32" stop-color="#F2E7E7"/>
<stop offset="0.45" stop-color="#E2CBC9"/>
<stop offset="0.6" stop-color="#CBA3A0"/>
<stop offset="0.76" stop-color="#AE706B"/>
<stop offset="0.93" stop-color="#8C332C"/>
<stop offset="1" stop-color="#7D1810"/>
</linearGradient>
<linearGradient id="paint11_linear_1_6995" x1="21.0832" y1="4.72197" x2="119.919" y2="29.9974" gradientUnits="userSpaceOnUse">
<stop offset="0.02" stop-color="#A37343"/>
<stop offset="0.33" stop-color="#C89968"/>
<stop offset="0.66" stop-color="#EBB57C"/>
<stop offset="0.9" stop-color="#C89968"/>
<stop offset="1" stop-color="#A37343"/>
</linearGradient>
<linearGradient id="paint12_linear_1_6995" x1="69.8282" y1="19.8842" x2="70.5794" y2="17.2083" gradientUnits="userSpaceOnUse">
<stop offset="0.02" stop-color="#A37343"/>
<stop offset="0.33" stop-color="#C89968"/>
<stop offset="0.66" stop-color="#EBB57C"/>
<stop offset="0.9" stop-color="#C89968"/>
<stop offset="1" stop-color="#A37343"/>
</linearGradient>
<linearGradient id="paint13_linear_1_6995" x1="104.986" y1="28.2067" x2="106.5" y2="28.5938" gradientUnits="userSpaceOnUse">
<stop offset="0.19" stop-color="white"/>
<stop offset="0.32" stop-color="#F5F1EC"/>
<stop offset="0.58" stop-color="#DBCCBB"/>
<stop offset="0.96" stop-color="#B2906C"/>
<stop offset="1" stop-color="#AD8962"/>
</linearGradient>
<linearGradient id="paint14_linear_1_6995" x1="112.713" y1="32.1376" x2="113.592" y2="29.0049" gradientUnits="userSpaceOnUse">
<stop stop-color="#626567"/>
<stop offset="0.05" stop-color="#8A8D8F"/>
<stop offset="0.08" stop-color="#A3A6A7"/>
<stop offset="0.1" stop-color="#ACAFB0"/>
<stop offset="0.25" stop-color="#66666B"/>
<stop offset="0.3" stop-color="#78787C"/>
<stop offset="0.34" stop-color="#808084"/>
<stop offset="0.53" stop-color="#535357"/>
<stop offset="0.8" stop-color="#DCDEDE"/>
<stop offset="1" stop-color="#7A7A7D"/>
</linearGradient>
<linearGradient id="paint15_linear_1_6995" x1="42.6743" y1="13.8123" x2="43.7187" y2="10.0923" gradientUnits="userSpaceOnUse">
<stop stop-color="#FF5454"/>
<stop offset="0.48" stop-color="#E82D20"/>
<stop offset="0.6" stop-color="#EE362D"/>
<stop offset="0.79" stop-color="#FA4C49"/>
<stop offset="1" stop-color="#E92F22"/>
</linearGradient>
<linearGradient id="paint16_linear_1_6995" x1="92.3313" y1="27.7534" x2="93.3757" y2="24.0333" gradientUnits="userSpaceOnUse">
<stop stop-color="#FF5454"/>
<stop offset="0.48" stop-color="#E82D20"/>
<stop offset="0.6" stop-color="#EE362D"/>
<stop offset="0.79" stop-color="#FA4C49"/>
<stop offset="1" stop-color="#E92F22"/>
</linearGradient>
<linearGradient id="paint17_linear_1_6995" x1="18.6897" y1="14.0491" x2="117.462" y2="39.3084" gradientUnits="userSpaceOnUse">
<stop offset="0.02" stop-color="#A37343"/>
<stop offset="0.33" stop-color="#C89968"/>
<stop offset="0.66" stop-color="#EBB57C"/>
<stop offset="0.9" stop-color="#C89968"/>
<stop offset="1" stop-color="#A37343"/>
</linearGradient>
<linearGradient id="paint18_linear_1_6995" x1="67.4265" y1="29.2115" x2="68.1777" y2="26.5357" gradientUnits="userSpaceOnUse">
<stop offset="0.02" stop-color="#A37343"/>
<stop offset="0.33" stop-color="#C89968"/>
<stop offset="0.66" stop-color="#EBB57C"/>
<stop offset="0.9" stop-color="#C89968"/>
<stop offset="1" stop-color="#A37343"/>
</linearGradient>
<linearGradient id="paint19_linear_1_6995" x1="102.498" y1="37.6491" x2="104.075" y2="38.0523" gradientUnits="userSpaceOnUse">
<stop offset="0.19" stop-color="white"/>
<stop offset="0.32" stop-color="#F5F1EC"/>
<stop offset="0.58" stop-color="#DBCCBB"/>
<stop offset="0.96" stop-color="#B2906C"/>
<stop offset="1" stop-color="#AD8962"/>
</linearGradient>
<linearGradient id="paint20_linear_1_6995" x1="40.2797" y1="23.1402" x2="41.3058" y2="19.4854" gradientUnits="userSpaceOnUse">
<stop stop-color="#FF5454"/>
<stop offset="0.48" stop-color="#E82D20"/>
<stop offset="0.6" stop-color="#EE362D"/>
<stop offset="0.79" stop-color="#FA4C49"/>
<stop offset="1" stop-color="#E92F22"/>
</linearGradient>
<linearGradient id="paint21_linear_1_6995" x1="89.9455" y1="37.0814" x2="90.9716" y2="33.4266" gradientUnits="userSpaceOnUse">
<stop stop-color="#FF5454"/>
<stop offset="0.48" stop-color="#E82D20"/>
<stop offset="0.6" stop-color="#EE362D"/>
<stop offset="0.79" stop-color="#FA4C49"/>
<stop offset="1" stop-color="#E92F22"/>
</linearGradient>
<linearGradient id="paint22_linear_1_6995" x1="23.8237" y1="7.11236" x2="24.6666" y2="4.11021" gradientUnits="userSpaceOnUse">
<stop stop-color="#1A1615"/>
<stop offset="0.45" stop-color="#352F2D"/>
<stop offset="0.75" stop-color="#423A38"/>
<stop offset="0.84" stop-color="#36302E"/>
<stop offset="1" stop-color="#1A1615"/>
</linearGradient>
<linearGradient id="paint23_linear_1_6995" x1="49.363" y1="92.0106" x2="49.8211" y2="90.379" gradientUnits="userSpaceOnUse">
<stop offset="0.12" stop-color="white"/>
<stop offset="0.18" stop-color="#FDF9F9"/>
<stop offset="0.26" stop-color="#F8E8E7"/>
<stop offset="0.36" stop-color="#F0CCC9"/>
<stop offset="0.47" stop-color="#E5A5A0"/>
<stop offset="0.58" stop-color="#D6736B"/>
<stop offset="0.7" stop-color="#C4372C"/>
<stop offset="0.74" stop-color="#BF2518"/>
<stop offset="0.9" stop-color="white"/>
</linearGradient>
</defs>
</svg>
