<svg width="278" height="278" viewBox="0 0 278 278" fill="none" xmlns="http://www.w3.org/2000/svg">
<circle cx="138.955" cy="138.955" r="138.955" fill="#FEFEFF"/>
<g clip-path="url(#clip0_72_2080)">
<path d="M218.509 58.3398H58.3398V218.509H218.509V58.3398Z" fill="white"/>
<path d="M179.506 159.484C179.556 181.289 157.691 192.82 136.923 191.615C111.257 190.126 99.231 173.945 97.5101 155.128C96.1051 139.77 103.78 124.995 111.812 116.631C111.531 119.976 111.827 123.53 113.66 126.341C115.493 129.154 119.2 130.937 122.33 129.723C126.299 128.183 127.388 122.897 126.353 118.768C125.319 114.637 122.831 110.981 121.832 106.843C120.208 100.118 122.823 92.8715 127.35 87.6401C131.877 82.4087 138.101 78.9325 144.476 76.2456C140.643 80.7402 140.134 87.7624 143.282 92.7621C146.288 97.5383 151.795 100.018 156.058 103.716C163.229 109.936 166.684 120.825 162.625 129.405C161.529 131.72 159.96 133.786 158.864 136.101C157.768 138.416 157.174 141.16 158.155 143.527C159.135 145.893 162.135 147.492 164.392 146.281C167.001 144.881 167.041 140.699 165.544 136.655C174.419 139.983 179.484 149.92 179.506 159.484Z" fill="#D33D3D"/>
<path d="M164.444 175.618C161.265 181.917 155.547 186.779 149.015 189.448C148.325 189.73 147.627 189.988 146.921 190.223C139.812 192.595 132.011 191.952 125.486 188.266C120.607 185.51 116.121 180.947 113.27 173.208C110.308 165.17 111.997 153.859 116.534 147.004C116.567 150.421 120.234 153.052 123.633 152.712C127.034 152.373 129.866 149.709 131.273 146.596C132.681 143.483 132.89 139.971 132.863 136.554C132.836 133.137 132.597 129.691 133.188 126.326C133.779 122.961 135.833 117.655 139.25 114.638C136.069 120.849 138.665 126.957 141.896 132.105C145.128 137.254 149.287 139.049 151.479 147.854C153.017 154.032 149.912 159.951 156.123 161.607C160.912 162.884 164.641 157.289 164.405 154.032C167.315 160.46 167.622 169.317 164.444 175.618Z" fill="#FF884D"/>
<path d="M150.437 185.693C147.601 189.606 143.818 191.785 137.385 191.526C130.745 191.26 126.782 187.514 124.021 182.308C121.574 177.693 121.235 171.885 122.39 166.938C124.538 171.017 127.452 172.676 131.428 173.212C127.61 166.464 130.805 154.397 139.568 148.008C137.818 150.733 138.179 154.196 139.622 157.056C141.064 159.916 143.46 162.307 145.8 164.665C148.139 167.022 150.497 169.453 151.836 172.352C153.822 176.65 153.274 181.781 150.437 185.693Z" fill="#FFCF57"/>
<path d="M138.424 200.603C156.69 200.603 171.498 199.687 171.498 198.558C171.498 197.428 156.69 196.512 138.424 196.512C120.159 196.512 105.351 197.428 105.351 198.558C105.351 199.687 120.159 200.603 138.424 200.603Z" fill="#DBDBDB"/>
</g>
<defs>
<clipPath id="clip0_72_2080">
<rect width="160.169" height="160.169" fill="white" transform="translate(58.3398 58.3398)"/>
</clipPath>
</defs>
</svg>
