<svg width="63" height="66" viewBox="0 0 63 66" fill="none" xmlns="http://www.w3.org/2000/svg">
<rect width="63" height="66" rx="15" fill="#FEE2E2"/>
<path d="M32.0187 25L26.7312 16.1938C26.325 15.5188 25.475 15.275 24.775 15.625L19.3625 18.3313C18.6187 18.7 18.3187 19.6 18.6875 20.3438L23.0375 29.0375C21.1562 31.1563 20.0187 33.9438 20.0187 37C20.0187 43.625 25.3937 49 32.0187 49C38.6437 49 44.0187 43.625 44.0187 37C44.0187 33.9438 42.875 31.1563 41 29.0375L45.35 20.3438C45.7187 19.6 45.4187 18.7 44.6812 18.3313L39.2625 15.6188C38.5625 15.2688 37.7062 15.5188 37.3062 16.1875L32.0187 25ZM33.9437 33.9063C34.0312 34.0813 34.1937 34.2 34.3812 34.225L37.5125 34.6813C37.9937 34.75 38.1812 35.3375 37.8375 35.6813L35.5687 37.8938C35.4312 38.0313 35.3687 38.2188 35.4 38.4125L35.9375 41.5313C36.0187 42.0063 35.5187 42.375 35.0875 42.15L32.2875 40.675C32.1187 40.5875 31.9125 40.5875 31.7437 40.675L28.9437 42.15C28.5125 42.375 28.0125 42.0125 28.0937 41.5313L28.6312 38.4125C28.6625 38.225 28.6 38.0313 28.4625 37.8938L26.1937 35.6813C25.8437 35.3438 26.0375 34.7563 26.5187 34.6813L29.65 34.225C29.8375 34.2 30.0062 34.075 30.0875 33.9063L31.4875 31.0688C31.7 30.6313 32.3187 30.6313 32.5375 31.0688L33.9375 33.9063H33.9437Z" fill="#DC2626"/>
</svg>
