<svg width="236" height="62" viewBox="0 0 236 62" fill="none" xmlns="http://www.w3.org/2000/svg">
<path d="M235.693 49.3951H212.949C212.659 49.3535 212.366 49.3319 212.072 49.3304C211.767 49.3322 211.462 49.3538 211.159 49.3951H208.643V40.9308H207.907V34.8781H207.986V26.2053C209.656 26.8889 211.485 27.09 213.264 26.7857C215.043 26.4813 216.701 25.6837 218.049 24.4837L218.276 24.2968C219.225 23.5068 219.956 22.4873 220.4 21.3352C220.957 20.1394 221.264 18.842 221.3 17.5232C221.337 16.2043 221.103 14.892 220.613 13.6671C220.123 12.4422 219.387 11.3307 218.45 10.4012C217.514 9.47176 216.397 8.74399 215.169 8.26283C213.94 7.78168 212.626 7.55734 211.308 7.60364C209.989 7.64995 208.694 7.96592 207.502 8.53207C206.311 9.09822 205.247 9.90254 204.379 10.8954C203.51 11.8883 202.854 13.0486 202.451 14.3049H161.423V13.658H161.549V0H125.035V14.3193H0V27.7436H1.77554C1.33259 29.113 1.11767 30.5458 1.13936 31.9848C1.09104 33.7376 1.48145 35.4747 2.27513 37.0382H1.41971V42.9974C1.41971 45.6104 1.87258 47.7022 2.80707 49.3987L2.82864 49.4418L2.8502 49.4814C3.968 51.4151 5.92324 52.8563 8.83095 53.8807C11.4486 54.7528 14.1952 55.1745 16.9538 55.1279C19.5279 55.1769 22.0932 54.8129 24.552 54.0496C26.1816 53.5806 27.7041 52.798 29.034 51.7457L29.5407 54.6211H73.4619V54.772H113.997V54.6211H133.661L133.69 55.3399L133.844 59.5451H136.86C136.964 59.6997 137.076 59.8506 137.194 59.9944L136.184 61.9353H140.857C141.486 62.0215 142.125 62.0215 142.754 61.9353H165.757C166.068 61.9779 166.382 61.9995 166.695 62C167.015 62.0006 167.335 61.979 167.652 61.9353H192.567C193.195 62.0216 193.832 62.0216 194.461 61.9353H210.635C210.931 61.9777 211.23 61.9993 211.53 62C211.841 62.0003 212.152 61.9787 212.46 61.9353H228.825L229.292 59.5451H232.063L233.116 56.6698L233.296 56.1846V56.1378C233.42 55.8146 233.518 55.4816 233.587 55.1422L233.695 54.6031L234.356 51.2317L235.693 49.3951Z" fill="white"/>
<path fill-rule="evenodd" clip-rule="evenodd" d="M129.284 4.51074H157.068V8.74112H157.024V9.44199H139.021V18.83H157.024V23.5241H139.021V50.3871H129.284V4.51074ZM157.024 8.74112V9.44199H157.071V8.74112H157.024Z" fill="#EC1C24"/>
<path fill-rule="evenodd" clip-rule="evenodd" d="M157.873 25.7134V50.3876H148.133V25.7134H157.873ZM161.755 25.7134H168.666C173.256 25.7134 176.329 25.8392 178.011 26.0728C179.482 26.238 180.864 26.8588 181.965 27.8483C182.957 28.8116 183.482 30.3427 183.482 32.4381C183.482 34.3646 183.104 35.6441 182.404 36.2983C181.703 36.9524 180.272 37.3766 178.137 37.4844C180.028 37.7935 181.372 38.2356 182.03 38.7639C182.687 39.2923 183.108 39.7631 183.252 40.2016C183.396 40.6401 183.493 41.8801 183.493 43.8533V50.3876H174.435V42.1748C174.435 40.8665 174.302 40.0542 173.968 39.7451C173.634 39.436 172.839 39.2455 171.499 39.2455V50.3876H161.755V25.7134ZM171.499 29.9509V35.4105C172.269 35.4549 173.041 35.3599 173.777 35.1302C174.248 34.9433 174.435 34.2891 174.435 33.1929V31.8487C174.435 31.0723 174.248 30.5404 173.817 30.2924C173.386 30.0444 172.599 29.9509 171.499 29.9509ZM187.256 25.7134H203.491V30.6662H196.996V35.3135H203.063V40.0255H196.996V45.4527H204.148V50.3876H187.256V25.7134Z" fill="#EC1C24"/>
<path d="M129.282 18.8301H4.25439V23.5241H129.282V18.8301Z" fill="#231F20"/>
<path fill-rule="evenodd" clip-rule="evenodd" d="M26.842 33.1923H17.7954V31.3557C17.7954 30.5147 17.6481 29.9504 17.436 29.7383C17.224 29.5262 16.8178 29.3789 16.2931 29.3789C16.0516 29.3597 15.8088 29.3914 15.5804 29.4719C15.3519 29.5524 15.1429 29.6799 14.9668 29.8461C14.6319 30.2476 14.4634 30.762 14.496 31.2838C14.4457 31.9414 14.6261 32.5959 15.0063 33.1348C15.3406 33.5769 16.2391 34.0729 17.7415 34.6624C22.1049 36.3444 24.8005 37.721 25.9435 38.8101C27.0864 39.8991 27.6471 41.6459 27.6471 44.0792C27.6471 45.8296 27.3093 47.1378 26.6947 47.9501C26.0801 48.7624 24.8544 49.4777 23.1005 50.0348C21.0765 50.6553 18.9667 50.9502 16.8502 50.9082C14.5872 50.9544 12.3329 50.6165 10.1829 49.909C8.32831 49.2548 7.10987 48.4425 6.53121 47.4433C5.95254 46.4442 5.68657 45.0101 5.68657 43.1303V41.5417H14.7224V44.5285C14.7224 45.4665 14.859 46.0596 15.0818 46.304C15.4694 46.6101 15.9592 46.7567 16.4512 46.7137C16.7123 46.7378 16.9756 46.706 17.2234 46.6205C17.4713 46.535 17.6982 46.3977 17.8889 46.2177C18.0629 46.0109 18.1941 45.7717 18.275 45.5138C18.3558 45.2559 18.3846 44.9845 18.3597 44.7153C18.3597 43.2561 18.0794 42.318 17.4612 41.84C16.843 41.362 15.3406 40.6539 12.9253 39.6224C11.2882 38.9392 9.68892 38.169 8.13422 37.3149C7.3191 36.8245 6.63761 36.1406 6.15022 35.3237C5.59879 34.3381 5.33714 33.2168 5.39544 32.0889C5.39544 30.1876 5.75486 28.8182 6.4737 27.9448C7.19254 27.0714 8.40379 26.3885 10.0176 25.8817C11.9475 25.3732 13.938 25.1313 15.9336 25.1629C18.4963 25.1629 20.6313 25.4109 22.4284 25.9788C24.2255 26.5467 25.354 27.1864 25.9327 28.0023C26.5114 28.8182 26.8313 30.2199 26.8313 32.1464V33.1456L26.842 33.1923ZM67.3127 25.7128L62.9673 50.387H50.7938C49.5973 46.1262 48.6173 41.8077 47.8573 37.4479C47.4787 39.5061 46.579 43.8108 45.1581 50.3618H33.0959L28.7326 25.6984H38.2069L39.1989 34.2993L40.1945 42.602C40.5683 38.3249 41.4668 32.6939 42.8901 25.7092H53.0222C53.1552 26.4532 53.493 29.1417 54.0573 33.8429L55.1571 43.1878C55.6563 37.3011 56.557 31.4553 57.8528 25.6912L67.3127 25.7128ZM79.0011 25.7128V50.387H69.2608V25.7128H79.0011ZM82.8936 25.7128H92.6878C94.7336 25.6684 96.7791 25.814 98.7979 26.1477C100.236 26.3957 101.314 26.8018 102.033 27.3338C102.72 27.7728 103.236 28.4336 103.496 29.2064C103.791 30.3242 103.918 31.4799 103.873 32.6352V34.7558C103.873 36.3409 103.647 37.4982 103.122 38.2134C102.597 38.9287 101.752 39.4966 100.423 39.8668C98.7352 40.2948 96.9981 40.4943 95.2576 40.4598H92.6554V50.387H82.8936V25.7128ZM92.6375 29.9504V36.2151H93.3563C94.2549 36.2151 94.8695 36.0929 95.2073 35.7838C95.5452 35.4747 95.7285 34.9068 95.7285 34.0046V31.9811C95.7285 31.1329 95.5416 30.5758 95.1139 30.3278C94.6862 30.0798 93.8775 29.9504 92.6447 29.9504H92.6375ZM106.655 25.7128H122.893V30.6656H116.41V35.3129H122.477V40.0249H116.41V45.4522H123.562V50.387H106.669L106.655 25.7128Z" fill="#231F20"/>
<path d="M203.138 18.8301H157.021V23.5241H203.138V18.8301Z" fill="#231F20"/>
<path fill-rule="evenodd" clip-rule="evenodd" d="M140.223 53.9167L140.115 54.4702C140.084 54.592 140.047 54.712 140.003 54.8296L139.824 55.3148H139.159L139.134 54.5493L139.259 53.9275L140.223 53.9167ZM138.997 53.9167L138.886 54.4702C138.855 54.5924 138.817 54.7124 138.771 54.8296L138.594 55.3148H137.933L137.904 54.5493L138.03 53.9275L138.997 53.9167ZM143.49 54.9662C143.43 54.2258 142.928 53.8556 141.984 53.8556C141.72 53.8476 141.457 53.8979 141.215 54.0029C141.015 54.0908 140.846 54.2343 140.726 54.4163C140.615 54.5943 140.558 54.7999 140.56 55.0093C140.555 55.2289 140.627 55.4435 140.762 55.6167C141.041 55.8716 141.374 56.0607 141.736 56.1702C141.889 56.2172 142.032 56.2941 142.156 56.3967C142.211 56.455 142.242 56.5321 142.243 56.6123C142.241 56.6651 142.228 56.7169 142.205 56.7641C142.181 56.8113 142.147 56.8528 142.106 56.8855C141.997 56.9747 141.858 57.0185 141.718 57.0077C141.645 57.013 141.571 57.0026 141.502 56.9772C141.433 56.9518 141.371 56.9119 141.319 56.8603C141.208 56.7202 141.156 56.5421 141.175 56.3643L140.158 56.4398V56.5261C140.154 56.6902 140.184 56.8533 140.246 57.0054C140.308 57.1575 140.4 57.2953 140.517 57.4102C140.849 57.6782 141.271 57.807 141.696 57.7697C142.01 57.7872 142.323 57.7241 142.606 57.5864C142.807 57.4754 142.977 57.3145 143.098 57.1191C143.209 56.9333 143.267 56.7209 143.267 56.5045C143.274 56.2978 143.219 56.0938 143.109 55.9187C143.004 55.7637 142.867 55.6336 142.706 55.5377C142.499 55.4201 142.284 55.3168 142.063 55.2286C141.921 55.1801 141.788 55.1098 141.667 55.0201C141.643 54.9984 141.623 54.9719 141.609 54.9423C141.594 54.9126 141.586 54.8804 141.585 54.8476C141.585 54.8066 141.594 54.7661 141.612 54.7293C141.63 54.6926 141.656 54.6604 141.689 54.6355C141.774 54.5725 141.878 54.5419 141.984 54.5493C142.051 54.5416 142.118 54.5489 142.182 54.5705C142.246 54.5921 142.304 54.6275 142.352 54.6742C142.401 54.721 142.438 54.7778 142.462 54.8407C142.486 54.9036 142.496 54.971 142.491 55.0381L143.5 54.9806L143.49 54.9662ZM146.947 57.6942H145.869L145.822 57.076H144.687L144.413 57.6942H143.252L145.222 53.9167H146.372L146.958 57.6942H146.947ZM145.772 56.2745L145.664 54.8979L145.064 56.2745H145.772ZM150.764 53.9167L150.603 54.7254H149.003L148.867 55.3975H150.43L150.276 56.1631H148.705L148.417 57.6942H147.339L148.087 53.9167H150.764ZM154.182 53.9167H151.332L150.588 57.6942H153.582L153.755 56.8316H151.835L151.983 56.0948H153.686L153.841 55.3292H152.137L152.252 54.729H154.024L154.182 53.9167ZM157.913 53.9167L157.734 54.844H156.601L156.033 57.6942H154.955L155.523 54.844H154.445L154.625 53.9167H157.913ZM161.827 53.9167L160.149 56.2673L159.868 57.705H158.79L159.078 56.2493L158.028 53.9275H159.16L159.696 55.3256L160.598 53.9275L161.827 53.9167ZM164.933 53.9167L164.185 57.6942H163.107L163.851 53.9167H164.933ZM168.405 54.9662L167.395 55.0237C167.4 54.9566 167.39 54.8892 167.366 54.8263C167.342 54.7634 167.305 54.7066 167.257 54.6599C167.208 54.6132 167.15 54.5777 167.086 54.5561C167.022 54.5345 166.955 54.5273 166.888 54.5349C166.783 54.5275 166.678 54.5581 166.593 54.6211C166.561 54.6461 166.534 54.6782 166.516 54.715C166.498 54.7517 166.489 54.7922 166.489 54.8332C166.49 54.866 166.499 54.8982 166.513 54.9279C166.527 54.9575 166.547 54.984 166.572 55.0057C166.692 55.0954 166.825 55.1657 166.967 55.2142C167.188 55.3024 167.403 55.4057 167.61 55.5233C167.771 55.6193 167.908 55.7493 168.013 55.9043C168.122 56.0823 168.174 56.289 168.164 56.4973C168.164 56.7137 168.106 56.9261 167.995 57.1119C167.873 57.3065 167.703 57.4672 167.503 57.5792C167.22 57.7169 166.907 57.78 166.593 57.7625C166.169 57.7998 165.746 57.671 165.414 57.403C165.297 57.2881 165.205 57.1503 165.143 56.9982C165.081 56.8461 165.051 56.683 165.055 56.5189V56.4326L166.072 56.3571C166.053 56.5349 166.105 56.713 166.216 56.8531C166.268 56.9043 166.33 56.9439 166.398 56.9693C166.466 56.9947 166.539 57.0053 166.611 57.0005C166.753 57.0118 166.893 56.9681 167.003 56.8783C167.044 56.8456 167.078 56.8042 167.102 56.757C167.125 56.7097 167.138 56.6579 167.14 56.6051C167.139 56.5249 167.108 56.4478 167.053 56.3895C166.929 56.2869 166.787 56.21 166.633 56.1631C166.271 56.0535 165.938 55.8644 165.659 55.6095C165.524 55.4363 165.452 55.2218 165.457 55.0021C165.455 54.7928 165.513 54.5871 165.623 54.4091C165.743 54.2272 165.912 54.0836 166.112 53.9958C166.354 53.8907 166.617 53.8404 166.881 53.8484C167.822 53.8484 168.324 54.2186 168.387 54.959L168.405 54.9662ZM173.889 53.9167L173.71 54.844H172.578L172.006 57.6942H170.928L171.496 54.844H170.417L170.597 53.9167H173.889ZM177.696 53.9167H176.617L176.344 55.2537H175.18L175.442 53.9167H174.364L173.613 57.6942H174.691L174.989 56.1595H176.157L175.855 57.6942H176.934L177.685 53.9167H177.696ZM181.258 53.9167L181.099 54.729H179.327L179.212 55.3292H180.92L180.762 56.0948H179.058L178.911 56.8316H180.83L180.661 57.6942H177.663L178.407 53.9167H181.258ZM186.232 53.9167L186.07 54.7254H184.471L184.338 55.3975H185.901L185.747 56.1631H184.176L183.889 57.6942H182.81L183.554 53.9167H186.232ZM187.95 53.9167H186.872L186.124 57.6942H187.202L187.95 53.9167ZM188.698 53.9167H190.685C190.824 53.9045 190.964 53.9244 191.095 53.9749C191.225 54.0254 191.342 54.1051 191.436 54.2078C191.596 54.4061 191.68 54.6544 191.674 54.9087C191.68 55.1873 191.591 55.4598 191.422 55.6814C191.22 55.923 190.93 56.0753 190.617 56.1055C190.836 56.2996 191.095 56.8244 191.4 57.6942H190.261C190.164 57.4174 190.053 57.1227 189.923 56.7992C189.86 56.5953 189.762 56.4043 189.632 56.2349C189.565 56.1831 189.483 56.1564 189.398 56.1595H189.341L189.043 57.6942H187.964L188.683 53.9167H188.698ZM189.481 55.4514H189.686C189.909 55.4637 190.132 55.4468 190.351 55.4011C190.444 55.3732 190.523 55.3117 190.574 55.2286C190.62 55.158 190.647 55.0759 190.649 54.9913C190.652 54.9493 190.645 54.9072 190.63 54.868C190.614 54.8288 190.59 54.7936 190.559 54.7649C190.445 54.6955 190.311 54.6664 190.178 54.6822H189.632L189.481 55.4514ZM195.21 54.9662L194.204 55.0237C194.208 54.9568 194.198 54.8897 194.174 54.8271C194.15 54.7645 194.113 54.7079 194.064 54.6613C194.016 54.6147 193.958 54.5793 193.895 54.5575C193.831 54.5356 193.764 54.5279 193.697 54.5349C193.591 54.5276 193.485 54.5581 193.399 54.6211C193.367 54.6466 193.341 54.6788 193.323 54.7155C193.305 54.7521 193.295 54.7923 193.295 54.8332C193.296 54.866 193.304 54.8982 193.318 54.9279C193.332 54.9575 193.353 54.984 193.377 55.0057C193.498 55.0945 193.631 55.1648 193.773 55.2142C193.994 55.3017 194.209 55.405 194.416 55.5233C194.577 55.6202 194.715 55.75 194.822 55.9043C194.931 56.0799 194.984 56.2838 194.977 56.4901C194.979 56.7067 194.92 56.9196 194.808 57.1047C194.688 57.3 194.519 57.4609 194.319 57.572C194.035 57.7093 193.721 57.7723 193.406 57.7553C192.982 57.7936 192.56 57.6646 192.231 57.3959C192.113 57.2814 192.02 57.1437 191.958 56.9915C191.896 56.8393 191.867 56.6759 191.871 56.5117V56.4254L192.885 56.35C192.866 56.5277 192.918 56.7058 193.029 56.846C193.081 56.897 193.144 56.9365 193.212 56.9619C193.281 56.9872 193.354 56.998 193.428 56.9933C193.569 57.0039 193.709 56.9602 193.819 56.8711C193.86 56.8381 193.893 56.7965 193.916 56.7493C193.939 56.7021 193.951 56.6504 193.952 56.598C193.952 56.5177 193.921 56.4406 193.866 56.3823C193.743 56.2789 193.6 56.2019 193.445 56.1559C193.085 56.0456 192.753 55.8566 192.475 55.6024C192.337 55.4304 192.265 55.2152 192.27 54.9949C192.269 54.7852 192.328 54.5795 192.439 54.4019C192.556 54.2178 192.727 54.0737 192.928 53.9886C193.169 53.8833 193.431 53.833 193.694 53.8412C194.64 53.8412 195.142 54.2114 195.199 54.9518L195.21 54.9662ZM199.074 53.9167L198.898 54.844H197.766L197.194 57.6942H196.116L196.684 54.844H195.606L195.789 53.9167H199.074ZM201.162 53.9167H202.747C202.978 53.9047 203.209 53.944 203.423 54.0317C203.576 54.104 203.702 54.2237 203.782 54.3731C203.866 54.5453 203.907 54.7353 203.901 54.9267C203.906 55.1936 203.832 55.4561 203.689 55.6814C203.561 55.889 203.375 56.0541 203.153 56.1559C202.868 56.2644 202.563 56.3133 202.258 56.2996H201.78L201.511 57.6942H200.433L201.187 53.9167H201.162ZM201.921 55.552H202.28C202.357 55.5547 202.433 55.5417 202.505 55.5139C202.577 55.4861 202.642 55.4441 202.697 55.3903C202.749 55.3407 202.791 55.2811 202.819 55.215C202.847 55.1489 202.862 55.0777 202.862 55.0057C202.872 54.958 202.87 54.9087 202.857 54.8618C202.844 54.815 202.819 54.7721 202.785 54.7368C202.752 54.7015 202.71 54.6748 202.664 54.659C202.618 54.6433 202.569 54.6389 202.521 54.6463H202.097L201.917 55.5341L201.921 55.552ZM204.677 53.9167H206.665C206.804 53.9045 206.944 53.9244 207.074 53.9749C207.205 54.0254 207.322 54.1051 207.416 54.2078C207.575 54.4061 207.659 54.6544 207.653 54.9087C207.66 55.1873 207.571 55.4598 207.402 55.6814C207.198 55.9229 206.908 56.0751 206.593 56.1055C206.814 56.2996 207.076 56.8292 207.38 57.6942H206.241C206.144 57.4174 206.032 57.1227 205.903 56.7992C205.84 56.5953 205.742 56.4043 205.612 56.2349C205.544 56.1823 205.46 56.1556 205.375 56.1595H205.317L205.022 57.6942H203.944L204.685 53.9167H204.677ZM205.457 55.4514H205.662C205.885 55.4639 206.109 55.447 206.327 55.4011C206.421 55.3734 206.502 55.312 206.554 55.2286C206.6 55.158 206.626 55.0759 206.629 54.9913C206.632 54.9493 206.625 54.9072 206.61 54.868C206.594 54.8288 206.57 54.7936 206.539 54.7649C206.425 54.696 206.291 54.6669 206.158 54.6822H205.608L205.457 55.4514ZM209.616 53.9167L208.868 57.6942H207.79L208.538 53.9167H209.616ZM211.963 53.8556C212.18 53.8367 212.398 53.8685 212.601 53.9483C212.804 54.0281 212.985 54.1539 213.131 54.3156C213.381 54.64 213.508 55.0423 213.49 55.4514C213.488 55.6509 213.465 55.8497 213.422 56.0444C213.369 56.2867 213.279 56.5194 213.156 56.7345C213.028 56.9701 212.853 57.1769 212.642 57.342C212.465 57.4911 212.26 57.6035 212.038 57.6726C211.837 57.73 211.629 57.7578 211.42 57.7553C211.208 57.7684 210.996 57.7388 210.796 57.6684C210.596 57.5981 210.412 57.4883 210.256 57.3455C210.11 57.1939 209.998 57.0137 209.925 56.8163C209.853 56.619 209.822 56.4088 209.835 56.199C209.835 55.945 209.87 55.6922 209.939 55.4478C210.008 55.2027 210.112 54.969 210.248 54.7541C210.381 54.5417 210.553 54.3563 210.755 54.2078C210.932 54.0735 211.133 53.9757 211.348 53.9203C211.545 53.8769 211.747 53.8552 211.948 53.8556H211.963ZM211.503 56.8963C211.605 56.8973 211.705 56.8747 211.797 56.8305C211.888 56.7862 211.969 56.7214 212.031 56.6411C212.184 56.4542 212.293 56.2357 212.351 56.0013C212.403 55.8207 212.435 55.6352 212.448 55.4478C212.463 55.2498 212.403 55.0533 212.279 54.8979C212.224 54.8381 212.156 54.7909 212.081 54.7592C212.006 54.7276 211.926 54.7124 211.844 54.7146C211.748 54.7135 211.652 54.7339 211.564 54.7743C211.477 54.8147 211.399 54.8741 211.337 54.9482C211.182 55.1255 211.073 55.3376 211.018 55.5664C210.952 55.7811 210.916 56.0035 210.91 56.2278C210.903 56.4009 210.959 56.5707 211.068 56.7058C211.121 56.769 211.187 56.8192 211.263 56.8522C211.338 56.8853 211.42 56.9004 211.503 56.8963ZM214.428 53.9167H216.412C216.552 53.9045 216.692 53.9244 216.822 53.9749C216.952 54.0254 217.069 54.1051 217.164 54.2078C217.323 54.4061 217.407 54.6544 217.401 54.9087C217.407 55.1873 217.318 55.4598 217.149 55.6814C216.947 55.923 216.658 56.0753 216.344 56.1055C216.563 56.2996 216.822 56.8244 217.128 57.6942H215.988C215.895 57.4174 215.78 57.1227 215.65 56.7992C215.588 56.5953 215.489 56.4043 215.359 56.2349C215.293 56.1831 215.21 56.1564 215.126 56.1595H215.068L214.77 57.6942H213.692L214.432 53.9167H214.428ZM215.208 55.4514H215.413C215.636 55.4637 215.86 55.4468 216.078 55.4011C216.171 55.3732 216.251 55.3117 216.301 55.2286C216.348 55.158 216.374 55.0759 216.376 54.9913C216.379 54.9493 216.373 54.9072 216.357 54.868C216.342 54.8288 216.317 54.7936 216.287 54.7649C216.172 54.6955 216.038 54.6664 215.906 54.6822H215.356L215.205 55.4514H215.208ZM219.367 53.9167L218.619 57.6942H217.541L218.289 53.9167H219.367ZM223.177 53.9167L222.997 54.844H221.861L221.293 57.6942H220.215L220.783 54.844H219.705L219.884 53.9167H223.177ZM227.091 53.9167L225.412 56.2673L225.132 57.705H224.054L224.341 56.2493L223.292 53.9275H224.424L224.959 55.3256L225.862 53.9275L227.091 53.9167ZM229.319 53.9167L229.211 54.4702C229.211 54.5169 229.165 54.6319 229.096 54.8296L228.92 55.3148H228.255L228.227 54.5493L228.352 53.9275L229.319 53.9167ZM228.09 53.9167H227.109L226.983 54.5385L227.012 55.304H227.677L227.853 54.8188C227.899 54.7017 227.937 54.5816 227.968 54.4594L228.09 53.9167Z" fill="#231F20"/>
<path d="M211.506 22.7117C210.459 22.7124 209.436 22.4027 208.565 21.8218C207.695 21.2409 207.016 20.4149 206.615 19.4482C206.214 18.4815 206.109 17.4176 206.313 16.3911C206.516 15.3646 207.02 14.4215 207.76 13.6813C208.5 12.941 209.442 12.4367 210.469 12.2323C211.495 12.0279 212.559 12.1324 213.526 12.5328C214.493 12.9331 215.319 13.6112 215.901 14.4813C216.482 15.3515 216.793 16.3745 216.793 17.421C216.791 18.823 216.233 20.1671 215.242 21.1587C214.251 22.1504 212.908 22.7089 211.506 22.7117ZM211.506 12.6947C210.571 12.6947 209.657 12.9719 208.88 13.4912C208.103 14.0105 207.497 14.7487 207.139 15.6123C206.781 16.476 206.688 17.4263 206.87 18.3431C207.053 19.2599 207.503 20.1021 208.164 20.7631C208.825 21.4241 209.667 21.8742 210.584 22.0566C211.5 22.239 212.451 22.1454 213.314 21.7876C214.178 21.4299 214.916 20.8241 215.436 20.0469C215.955 19.2696 216.232 18.3558 216.232 17.421C216.231 16.1675 215.733 14.9655 214.847 14.0788C213.961 13.192 212.759 12.693 211.506 12.6911V12.6947Z" fill="#231F20"/>
<path d="M213.778 18.9092C213.612 18.1904 213.314 17.7807 212.786 17.583V17.5147C213.447 17.3206 213.911 16.8533 213.911 16.2603C213.918 16.0341 213.874 15.8093 213.782 15.6027C213.689 15.396 213.552 15.2129 213.379 15.067C212.983 14.8334 212.52 14.6681 211.492 14.6681C210.792 14.6562 210.093 14.7116 209.404 14.8334V20.2678H210.665V18.0826H211.258C211.977 18.0826 212.286 18.3485 212.387 18.9416C212.462 19.403 212.608 19.8502 212.818 20.2678H214.173C213.964 19.8411 213.83 19.3815 213.778 18.9092ZM211.298 17.1876H210.701V15.6277C210.929 15.5801 211.162 15.5584 211.395 15.563C212.189 15.563 212.556 15.8937 212.556 16.3897C212.552 16.9612 211.991 17.1876 211.298 17.1876Z" fill="#231F20"/>
</svg>
