<svg width="355" height="533" viewBox="0 0 355 533" fill="none" xmlns="http://www.w3.org/2000/svg">
<g filter="url(#filter0_f_49_2412)">
<mask id="mask0_49_2412" style="mask-type:alpha" maskUnits="userSpaceOnUse" x="5" y="5" width="345" height="523">
<path d="M350 354.517C350.212 446.072 258.398 494.491 171.196 489.434C63.4271 483.181 12.9285 415.237 5.70263 336.226C-0.196814 271.738 32.0297 209.696 65.7541 174.577C64.5769 188.624 65.8168 203.544 73.5159 215.351C81.2123 227.16 96.7792 234.648 109.921 229.55C126.586 223.085 131.159 200.888 126.814 183.548C122.47 166.206 112.025 150.854 107.828 133.477C101.012 105.238 111.99 74.8117 130.998 52.8451C150.007 30.8786 176.141 16.2822 202.911 5C186.814 23.8728 184.68 53.3587 197.895 74.3522C210.518 94.4075 233.645 104.82 251.545 120.346C281.653 146.466 296.163 192.186 279.117 228.213C274.517 237.935 267.927 246.612 263.324 256.331C258.722 266.051 256.231 277.575 260.347 287.511C264.463 297.448 277.059 304.163 286.536 299.076C297.495 293.198 297.66 275.636 291.375 258.658C328.642 272.632 349.907 314.357 350 354.517Z" fill="#D33D3D"/>
<path d="M286.755 422.26C273.407 448.712 249.4 469.125 221.969 480.333C219.073 481.517 216.14 482.601 213.178 483.589C183.325 493.546 150.573 490.847 123.172 475.371C102.685 463.799 83.8499 444.638 71.8768 412.142C59.4427 378.39 66.5341 330.896 85.5833 302.114C85.7215 316.461 101.121 327.508 115.394 326.08C129.671 324.655 141.564 313.472 147.474 300.401C153.384 287.329 154.263 272.579 154.148 258.232C154.036 243.885 153.031 229.415 155.514 215.285C157.995 201.156 166.618 178.877 180.968 166.209C167.612 192.29 178.509 217.934 192.078 239.554C205.647 261.173 223.113 268.708 232.318 305.68C238.776 331.621 225.735 356.476 251.816 363.43C271.927 368.793 287.584 345.298 286.591 331.621C298.81 358.614 300.102 395.805 286.755 422.26Z" fill="#FF884D"/>
<path d="M227.943 464.567C216.035 480.996 200.146 490.145 173.137 489.06C145.256 487.941 128.613 472.211 117.022 450.351C106.748 430.975 105.321 406.587 110.171 385.813C119.191 402.941 131.428 409.906 148.123 412.16C132.092 383.825 145.505 333.154 182.3 306.327C174.956 317.77 176.47 332.31 182.527 344.322C188.585 356.331 198.646 366.369 208.468 376.27C218.291 386.169 228.192 396.375 233.815 408.547C242.152 426.597 239.853 448.14 227.943 464.567Z" fill="#FFCF57"/>
<path d="M177.5 527.175C254.198 527.175 316.374 523.329 316.374 518.585C316.374 513.841 254.198 509.995 177.5 509.995C100.802 509.995 38.6255 513.841 38.6255 518.585C38.6255 523.329 100.802 527.175 177.5 527.175Z" fill="#DBDBDB"/>
</mask>
<g mask="url(#mask0_49_2412)">
<rect x="-137.765" y="5" width="692.83" height="676.034" fill="#E82D20"/>
</g>
</g>
<defs>
<filter id="filter0_f_49_2412" x="0" y="0" width="355" height="532.175" filterUnits="userSpaceOnUse" color-interpolation-filters="sRGB">
<feFlood flood-opacity="0" result="BackgroundImageFix"/>
<feBlend mode="normal" in="SourceGraphic" in2="BackgroundImageFix" result="shape"/>
<feGaussianBlur stdDeviation="2.5" result="effect1_foregroundBlur_49_2412"/>
</filter>
</defs>
</svg>
