<svg width="209" height="187" viewBox="0 0 209 187" fill="none" xmlns="http://www.w3.org/2000/svg">
<g clip-path="url(#clip0_1_7152)">
<path d="M64.3303 77.302L66.0171 74.6986L64.124 73.3411L66.9707 71.0873L66.2623 69.5101L68.0226 70.8884L66.8605 73.3969L70.1181 76.2076L64.3303 77.302Z" fill="#5D5D5D"/>
<path d="M64.7347 85.2256C64.1767 85.3311 63.5976 85.1999 63.1248 84.8609C62.652 84.5219 62.3243 84.0028 62.2137 83.4179L61.1726 77.9123L61.1126 77.9237L59.0686 78.3102C58.5106 78.4157 57.9316 78.2845 57.4588 77.9455C56.986 77.6065 56.6583 77.0875 56.5476 76.5025C56.437 75.9176 56.5526 75.3146 56.869 74.8264C57.1853 74.3382 57.6765 74.0046 58.2345 73.8991L60.3384 73.5012C60.8921 73.3835 61.4648 73.3845 62.022 73.504C62.5792 73.6236 63.1095 73.8593 63.5809 74.197C64.0523 74.5347 64.4551 74.9673 64.765 75.469C65.075 75.9706 65.2856 76.5308 65.3844 77.1159L66.4279 82.634C66.5351 83.2181 66.4171 83.8187 66.0997 84.3045C65.7823 84.7902 65.2915 85.1214 64.7347 85.2256Z" fill="#00F2F5"/>
<path d="M155.362 97.8069L156.8 98.8379L156.158 99.8278L158.555 101.546L157.78 100.168L159.148 97.9595L158.19 97.2722L155.362 97.8069Z" fill="#C20016"/>
<path d="M198.226 113.701L204.484 146.793L185.536 150.376L179.279 117.284C179.013 115.879 178.685 114.143 175.36 114.594L131.286 122.928C122.542 124.582 114.592 121.516 109.469 114.511C107.199 111.371 105.604 107.763 104.797 103.938L99.1633 74.1462C98.8977 72.7415 98.5694 71.0056 95.249 71.4554L70.1179 76.2077L66.8604 73.3971L68.0424 70.8848L60.977 65.3546L63.829 71.6729L60.9879 73.9343L62.881 75.3135L61.1726 77.9123L35.3854 82.7887C31.7063 83.3981 27.9303 83.156 24.3224 82.0795C16.2508 79.619 10.6259 72.9434 8.89656 63.7983L3.2605 33.9939L22.2078 30.411L27.8415 60.2028C28.1064 61.6032 28.4354 63.3434 31.751 62.8901L91.625 51.5678C95.3043 50.9618 99.0797 51.2038 102.688 52.277C110.752 54.7391 116.381 61.4139 118.111 70.5632L123.719 100.221C124.53 103.633 126.19 103.319 127.53 103.066L156.625 97.5639L158.034 98.5743L157.393 99.5641L159.789 101.282L158.992 99.2616L160.755 97.6255L159.825 96.9588L171.736 94.7063C175.416 94.1002 179.191 94.3423 182.799 95.4155C190.868 97.8809 196.493 104.539 198.226 113.701Z" fill="#C20016"/>
<g opacity="0.4">
<path d="M35.0684 81.1114C31.637 81.6806 28.115 81.4572 24.749 80.457C17.276 78.1829 12.087 71.9938 10.4782 63.4861L4.84453 33.6943C4.8237 33.619 4.81801 33.5404 4.82781 33.4632C4.83762 33.3861 4.8627 33.3123 4.90147 33.2463C4.94023 33.1804 4.99183 33.1239 5.05299 33.0803C5.11415 33.0367 5.18354 33.0071 5.25674 32.9932C5.32995 32.9794 5.40539 32.9816 5.47824 32.9999C5.55109 33.0181 5.61977 33.0519 5.67993 33.0991C5.74009 33.1463 5.7904 33.206 5.82768 33.2742C5.86497 33.3424 5.8884 33.4177 5.89649 33.4954L11.5302 63.2872C13.0573 71.363 17.9781 77.2293 25.0298 79.3789C28.2355 80.3381 31.5913 80.5559 34.8614 80.017C34.9308 80.0039 35.0021 80.0052 35.0715 80.0209C35.1408 80.0366 35.2067 80.0664 35.2654 80.1085C35.3242 80.1506 35.3746 80.2043 35.4138 80.2664C35.4531 80.3286 35.4803 80.398 35.4941 80.4706C35.5078 80.5433 35.5078 80.6179 35.4939 80.69C35.4801 80.7622 35.4528 80.8306 35.4135 80.8913C35.3741 80.9519 35.3237 81.0037 35.2649 81.0436C35.2061 81.0835 35.1401 81.1108 35.0708 81.124L35.0684 81.1114Z" fill="#C20016"/>
</g>
<g opacity="0.4">
<path d="M130.974 121.276C122.854 122.812 115.483 119.98 110.745 113.506C108.628 110.574 107.143 107.206 106.393 103.636L100.759 73.8443C100.515 72.5528 99.8673 69.1271 95.0207 69.7873L94.9287 69.8047C94.7886 69.8267 94.6448 69.7897 94.5289 69.7018C94.4129 69.6139 94.3341 69.4822 94.3097 69.3355C94.297 69.2626 94.2983 69.1881 94.3136 69.1162C94.3288 69.0444 94.3577 68.9768 94.3986 68.9172C94.4394 68.8577 94.4914 68.8075 94.5514 68.7697C94.6115 68.7318 94.6784 68.7069 94.7482 68.6967L94.8522 68.677C98.7461 68.1491 101.08 69.8228 101.803 73.6469L107.437 103.439C108.155 106.838 109.574 110.045 111.596 112.832C116.064 118.936 123.061 121.63 130.769 120.173C130.841 120.152 130.916 120.148 130.99 120.159C131.064 120.171 131.135 120.198 131.199 120.24C131.263 120.282 131.318 120.336 131.36 120.401C131.403 120.466 131.433 120.539 131.447 120.616C131.462 120.692 131.461 120.771 131.445 120.847C131.428 120.923 131.397 120.994 131.353 121.056C131.309 121.118 131.253 121.17 131.188 121.207C131.123 121.245 131.052 121.268 130.978 121.275L130.974 121.276Z" fill="#C20016"/>
</g>
<g opacity="0.4">
<path d="M187.747 150.539C187.608 150.566 187.464 150.533 187.346 150.449C187.228 150.364 187.146 150.235 187.119 150.089L180.859 116.985C180.615 115.693 179.967 112.272 175.12 112.928L175.032 112.945C174.96 112.963 174.885 112.966 174.811 112.952C174.738 112.939 174.667 112.909 174.605 112.866C174.542 112.823 174.488 112.767 174.447 112.701C174.406 112.636 174.378 112.562 174.365 112.485C174.352 112.409 174.355 112.33 174.373 112.255C174.39 112.179 174.423 112.109 174.468 112.048C174.514 111.987 174.571 111.937 174.636 111.901C174.701 111.864 174.773 111.843 174.848 111.837L174.952 111.818C178.846 111.29 181.18 112.963 181.903 116.787L188.16 149.879C188.175 149.952 188.176 150.026 188.164 150.099C188.151 150.171 188.124 150.24 188.086 150.301C188.048 150.363 187.998 150.415 187.94 150.456C187.881 150.497 187.816 150.525 187.747 150.539Z" fill="#C20016"/>
</g>
<g opacity="0.2">
<path d="M192.982 114.693L199.24 147.784L190.816 149.377L184.559 116.285C183.125 108.704 177.114 108.686 174.602 109.048L130.247 117.435C123.476 118.716 117.608 116.495 113.71 111.177C111.959 108.73 110.723 105.928 110.085 102.96L104.447 73.147C103.014 65.5659 97.0029 65.5473 94.4864 65.9103L68.0473 70.91L60.9771 65.3546L63.8291 71.6729L34.3381 77.2497C31.4756 77.7034 28.5427 77.5087 25.7372 76.6786C19.6063 74.7978 15.4973 69.8725 14.1597 62.7988L8.52441 32.9986L16.9481 31.4056L22.5818 61.1974C24.0154 68.7785 30.0261 68.7971 32.5387 68.4349L92.6646 57.065C95.5271 56.6117 98.4599 56.8064 101.266 57.6361C107.392 59.5176 111.501 64.443 112.843 71.5377L118.477 101.329L118.502 101.464C119.116 104.053 121.346 109.929 128.545 108.567L172.752 100.208C175.614 99.7542 178.547 99.949 181.353 100.779C187.509 102.664 191.641 107.598 192.982 114.693Z" fill="#C20016"/>
</g>
<g opacity="0.1">
<path d="M24.2982 41.4422L5.35083 45.0252L7.43779 56.0614L26.3851 52.4784L24.2982 41.4422Z" fill="#C20016"/>
</g>
<path d="M25.9615 50.261L7.01412 53.8439C7.01412 53.8439 3.85822 54.4407 3.23181 51.1282C2.60541 47.8157 5.7621 47.2231 5.7621 47.2231L24.7094 43.6401C24.7094 43.6401 27.8693 43.0426 28.4949 46.3509C29.1205 49.6592 25.9615 50.261 25.9615 50.261Z" fill="#C20016"/>
<path d="M11.3261 49.6105C11.2634 49.2788 11.1083 48.9722 10.8803 48.7297C10.6523 48.4871 10.3618 48.3194 10.0454 48.2477C9.72908 48.176 9.4011 48.2037 9.10298 48.3271C8.80486 48.4505 8.54998 48.6641 8.37058 48.941C8.19118 49.2179 8.09533 49.5456 8.09512 49.8826C8.09491 50.2196 8.19036 50.5508 8.36941 50.8344C8.54846 51.118 8.80305 51.3412 9.10101 51.4757C9.39897 51.6102 9.72691 51.6501 10.0433 51.5903C10.4677 51.51 10.8412 51.2564 11.0818 50.8851C11.3224 50.5138 11.4102 50.0553 11.3261 49.6105Z" fill="#C20016"/>
<g opacity="0.1">
<path d="M11.326 49.6107C11.3933 49.9715 11.3464 50.3434 11.1924 50.6698C11.0384 50.9963 10.7858 51.2595 10.4729 51.4194C10.16 51.5793 9.80392 51.6272 9.45878 51.5558C9.11364 51.4844 8.79827 51.2977 8.56062 51.0239C8.89931 51.1614 9.27051 51.1764 9.61428 51.0665C9.95804 50.9565 10.2543 50.728 10.4552 50.418C10.6561 50.1079 10.75 49.7343 10.7216 49.3575C10.6932 48.9807 10.5443 48.6227 10.2988 48.3413C10.5592 48.4435 10.7908 48.6143 10.9708 48.8368C11.1509 49.0594 11.2733 49.326 11.326 49.6107Z" fill="#C20016"/>
</g>
<path d="M23.9577 47.2219C23.8948 46.8893 23.739 46.5821 23.51 46.3392C23.2811 46.0964 22.9894 45.9289 22.6719 45.8581C22.3545 45.7873 22.0258 45.8164 21.7274 45.9416C21.4291 46.0668 21.1747 46.2826 20.9965 46.5614C20.8183 46.8402 20.7244 47.1695 20.7267 47.5075C20.7291 47.8455 20.8275 48.1768 21.0096 48.4594C21.1916 48.742 21.4491 48.9631 21.7492 49.0946C22.0492 49.2261 22.3784 49.2621 22.6949 49.1979C23.1147 49.1128 23.4827 48.8577 23.7191 48.4878C23.9554 48.118 24.0412 47.6632 23.9577 47.2219Z" fill="#C20016"/>
<g opacity="0.1">
<path d="M23.9576 47.222C24.0249 47.5828 23.978 47.9547 23.824 48.2812C23.67 48.6076 23.4174 48.8708 23.1045 49.0307C22.7916 49.1906 22.4355 49.2385 22.0904 49.1671C21.7452 49.0958 21.4299 48.909 21.1922 48.6352C21.4701 48.7487 21.7715 48.7789 22.0622 48.7226C22.3424 48.6697 22.6028 48.5395 22.8166 48.3452C23.0303 48.151 23.1895 47.8998 23.278 47.6176C23.3664 47.3354 23.3809 47.0324 23.3198 46.7397C23.2587 46.447 23.1242 46.1753 22.9304 45.9526C23.1907 46.0548 23.4224 46.2256 23.6024 46.4481C23.7825 46.6707 23.9049 46.9374 23.9576 47.222Z" fill="#C20016"/>
</g>
<path d="M17.6337 48.4177C17.5708 48.0851 17.415 47.7779 17.186 47.535C16.9571 47.2922 16.6654 47.1247 16.348 47.0539C16.0306 46.9831 15.7018 47.0122 15.4035 47.1374C15.1051 47.2626 14.8507 47.4784 14.6725 47.7572C14.4944 48.036 14.4004 48.3653 14.4028 48.7033C14.4051 49.0413 14.5035 49.3726 14.6856 49.6552C14.8676 49.9378 15.1251 50.1589 15.4252 50.2904C15.7253 50.4219 16.0545 50.4579 16.3709 50.3937C16.7908 50.3086 17.1587 50.0535 17.3951 49.6836C17.6314 49.3138 17.7172 48.859 17.6337 48.4177Z" fill="#C20016"/>
<g opacity="0.1">
<path d="M17.6338 48.4178C17.7011 48.7786 17.6542 49.1505 17.5002 49.477C17.3463 49.8034 17.0936 50.0666 16.7807 50.2265C16.4678 50.3864 16.1118 50.4343 15.7666 50.3629C15.4215 50.2916 15.1061 50.1048 14.8685 49.831C15.2072 49.9685 15.5784 49.9835 15.9221 49.8736C16.2659 49.7636 16.5622 49.5352 16.7631 49.2251C16.964 48.915 17.0578 48.5414 17.0295 48.1646C17.0011 47.7878 16.8521 47.4298 16.6066 47.1484C16.867 47.2506 17.0986 47.4214 17.2787 47.6439C17.4588 47.8665 17.5812 48.1332 17.6338 48.4178Z" fill="#C20016"/>
</g>
<g opacity="0.1">
<path d="M49.5225 59.5295L38.9949 61.5203L42.7509 81.3829L53.2786 79.3921L49.5225 59.5295Z" fill="#C20016"/>
</g>
<path d="M47.4153 59.9322L51.173 79.8032C51.173 79.8032 51.7994 83.1157 48.6435 83.7125C45.4876 84.3093 44.8572 80.9975 44.8572 80.9975L41.0995 61.1265C41.0995 61.1265 40.4731 57.814 43.633 57.2165C46.7929 56.6189 47.4153 59.9322 47.4153 59.9322Z" fill="#C20016"/>
<path d="M48.5558 78.0095C49.1458 77.3246 49.0844 76.26 48.4187 75.6316C47.7529 75.0032 46.7349 75.0491 46.1449 75.734C45.5549 76.4189 45.6164 77.4836 46.2821 78.1119C46.9479 78.7403 47.9659 78.6944 48.5558 78.0095Z" fill="#C20016"/>
<g opacity="0.1">
<path d="M48.9302 76.5749C49.0084 77.0171 48.9171 77.4706 48.6763 77.8373C48.4354 78.2039 48.0644 78.4542 47.6435 78.5337C47.3724 78.5871 47.0915 78.5651 46.8286 78.4701C46.5657 78.375 46.33 78.2102 46.1448 77.9919C46.4148 78.1028 46.7074 78.1346 46.9908 78.0838C47.2007 78.0476 47.4009 77.9679 47.5797 77.8494C47.7585 77.7309 47.9123 77.5759 48.0321 77.3935C48.1519 77.2112 48.2352 77.0051 48.2774 76.7873C48.3195 76.5695 48.3196 76.3444 48.2776 76.125C48.2213 75.8212 48.0845 75.5385 47.883 75.3093C48.1462 75.4089 48.3812 75.578 48.5648 75.7999C48.7484 76.0219 48.8743 76.289 48.9302 76.5749Z" fill="#C20016"/>
</g>
<path d="M46.4214 63.3296C46.3556 63.0035 46.1994 62.7034 45.9722 62.467C45.745 62.2306 45.4571 62.0686 45.1448 62.0012C44.8325 61.9339 44.5097 61.9643 44.217 62.0886C43.9243 62.213 43.6749 62.4256 43.5001 62.6999C43.3254 62.9741 43.2331 63.2977 43.2349 63.6298C43.2367 63.9619 43.3325 64.2877 43.5102 64.5662C43.688 64.8447 43.9397 65.0635 44.2337 65.1949C44.5278 65.3263 44.851 65.3646 45.1626 65.3048C45.3716 65.2653 45.5703 65.1826 45.7471 65.0616C45.9239 64.9405 46.0752 64.7835 46.1924 64.5997C46.3095 64.4159 46.3901 64.2089 46.4294 63.9909C46.4687 63.7728 46.466 63.548 46.4214 63.3296Z" fill="#C20016"/>
<g opacity="0.1">
<path d="M46.4213 63.3297C46.4659 63.5482 46.4686 63.773 46.4293 63.991C46.39 64.2091 46.3094 64.416 46.1923 64.5999C46.0751 64.7837 45.9238 64.9407 45.747 65.0617C45.5702 65.1828 45.3715 65.2655 45.1625 65.305C44.8914 65.3583 44.6105 65.3364 44.3476 65.2413C44.0847 65.1463 43.849 64.9814 43.6639 64.7632C43.9338 64.8741 44.2265 64.9059 44.5099 64.8551C44.7198 64.8189 44.92 64.7391 45.0988 64.6206C45.2776 64.5021 45.4313 64.3471 45.5511 64.1648C45.6709 63.9824 45.7543 63.7763 45.7965 63.5585C45.8386 63.3407 45.8386 63.1156 45.7966 62.8963C45.7403 62.5924 45.6036 62.3097 45.402 62.0806C45.6587 62.1818 45.8873 62.3498 46.0658 62.5686C46.2443 62.7874 46.3667 63.0495 46.4213 63.3297Z" fill="#C20016"/>
</g>
<path d="M47.6743 69.9548C47.6123 69.627 47.4589 69.3242 47.2336 69.0846C47.0083 68.845 46.7212 68.6794 46.4086 68.6088C46.096 68.5382 45.7719 68.5657 45.4775 68.688C45.183 68.8102 44.9315 69.0216 44.7545 69.2954C44.5776 69.5692 44.4833 69.8931 44.4836 70.2261C44.4839 70.5591 44.5788 70.8862 44.7562 71.1661C44.9336 71.4459 45.1856 71.6659 45.4803 71.7981C45.7749 71.9304 46.099 71.969 46.4115 71.909C46.6188 71.8698 46.816 71.7881 46.9917 71.6687C47.1674 71.5492 47.3182 71.3942 47.4355 71.2127C47.5528 71.0311 47.6343 70.8266 47.6752 70.6107C47.7162 70.3949 47.7159 70.172 47.6743 69.9548Z" fill="#C20016"/>
<g opacity="0.1">
<path d="M47.6741 69.9546C47.7385 70.3146 47.6891 70.6846 47.5336 71.0086C47.3781 71.3326 47.1248 71.593 46.8122 71.7504C46.4996 71.9077 46.1446 71.9533 45.8012 71.8804C45.4577 71.8074 45.1444 71.6199 44.9088 71.3462C45.1787 71.4571 45.4713 71.4889 45.7547 71.4381C45.9664 71.4016 46.1681 71.3209 46.348 71.2008C46.5278 71.0808 46.6822 70.9238 46.8018 70.7391C46.9215 70.5545 47.004 70.3459 47.0445 70.1259C47.0849 69.9059 47.0826 69.6789 47.0375 69.4583C46.9788 69.1623 46.8437 68.8873 46.6469 68.6636C46.9101 68.7673 47.1437 68.9413 47.3241 69.168C47.5044 69.3946 47.6251 69.666 47.6741 69.9546Z" fill="#C20016"/>
</g>
<g opacity="0.1">
<path d="M84.2574 52.9609L73.7297 54.9517L77.4858 74.8143L88.0134 72.8235L84.2574 52.9609Z" fill="#C20016"/>
</g>
<path d="M82.1502 53.3638L85.9078 73.2348C85.9078 73.2348 86.5342 76.5474 83.3784 77.1441C80.2225 77.7409 79.5921 74.4292 79.5921 74.4292L75.8344 54.5582C75.8344 54.5582 75.208 51.2456 78.3679 50.6481C81.5278 50.0506 82.1502 53.3638 82.1502 53.3638Z" fill="#C20016"/>
<path d="M83.2872 71.4316C83.8767 70.7462 83.8146 69.6816 83.1484 69.0537C82.4823 68.4258 81.4643 68.4724 80.8748 69.1578C80.2853 69.8431 80.3474 70.9077 81.0136 71.5356C81.6797 72.1635 82.6977 72.1169 83.2872 71.4316Z" fill="#C20016"/>
<g opacity="0.1">
<path d="M83.6651 70.0064C83.7426 70.445 83.6536 70.8949 83.4169 71.2601C83.1803 71.6254 82.8147 71.8771 82.3983 71.9614C82.1273 72.0139 81.8466 71.9916 81.5838 71.8966C81.3211 71.8016 81.0853 71.6372 80.8997 71.4197C81.1697 71.5306 81.4623 71.5624 81.7457 71.5116C81.9556 71.4753 82.1558 71.3956 82.3346 71.2771C82.5134 71.1586 82.6672 71.0036 82.7869 70.8213C82.9067 70.6389 82.9901 70.4328 83.0323 70.215C83.0744 69.9972 83.0745 69.7721 83.0324 69.5528C82.9761 69.2489 82.8394 68.9662 82.6379 68.7371C82.8987 68.8385 83.1307 69.0091 83.3109 69.2317C83.4911 69.4544 83.6132 69.7215 83.6651 70.0064Z" fill="#C20016"/>
</g>
<path d="M81.1601 56.7605C81.0972 56.4279 80.9413 56.1207 80.7124 55.8778C80.4835 55.635 80.1917 55.4675 79.8743 55.3967C79.5569 55.3259 79.2282 55.355 78.9299 55.4802C78.6315 55.6054 78.3771 55.8211 78.1989 56.1C78.0207 56.3788 77.9268 56.7081 77.9291 57.0461C77.9315 57.3841 78.0299 57.7154 78.212 57.998C78.394 58.2806 78.6514 58.5017 78.9515 58.6332C79.2516 58.7647 79.5809 58.8007 79.8973 58.7365C80.3172 58.6514 80.6851 58.3963 80.9215 58.0264C81.1578 57.6565 81.2436 57.2017 81.1601 56.7605Z" fill="#C20016"/>
<g opacity="0.1">
<path d="M81.1601 56.7606C81.2436 57.2018 81.1579 57.6566 80.9215 58.0265C80.6851 58.3964 80.3172 58.6515 79.8974 58.7366C79.6263 58.7891 79.3456 58.7667 79.0828 58.6717C78.8201 58.5767 78.5844 58.4124 78.3988 58.1948C78.6687 58.3057 78.9613 58.3375 79.2447 58.2867C79.4547 58.2505 79.6548 58.1708 79.8336 58.0523C80.0124 57.9337 80.1662 57.7788 80.286 57.5964C80.4058 57.4141 80.4892 57.208 80.5313 56.9902C80.5735 56.7724 80.5735 56.5472 80.5315 56.3279C80.4752 56.024 80.3384 55.7414 80.1369 55.5122C80.3944 55.6124 80.624 55.78 80.8032 55.9987C80.9825 56.2174 81.1055 56.4799 81.1601 56.7606Z" fill="#C20016"/>
</g>
<path d="M82.413 63.3855C82.3539 63.0513 82.201 62.7413 81.974 62.4953C81.747 62.2492 81.456 62.0782 81.1384 62.0041C80.8207 61.93 80.4908 61.9562 80.1907 62.0793C79.8906 62.2024 79.634 62.4168 79.4536 62.6951C79.2733 62.9735 79.1773 63.3032 79.1781 63.642C79.1789 63.9809 79.2764 64.3135 79.4581 64.5975C79.6398 64.8814 79.8974 65.1038 80.1981 65.2361C80.4988 65.3685 80.8289 65.4048 81.1462 65.3405C81.5626 65.2562 81.9282 65.0045 82.1648 64.6392C82.4015 64.274 82.4905 63.8241 82.413 63.3855Z" fill="#C20016"/>
<g opacity="0.1">
<path d="M82.4129 63.3855C82.4756 63.7454 82.4251 64.1148 82.2689 64.4381C82.1127 64.7614 81.8594 65.0211 81.547 65.1782C81.2346 65.3352 80.8801 65.3811 80.5368 65.3089C80.1935 65.2367 79.8801 65.0503 79.6436 64.7778C79.9136 64.8887 80.2062 64.9205 80.4896 64.8697C80.7012 64.8332 80.903 64.7526 81.0828 64.6325C81.2627 64.5124 81.417 64.3554 81.5367 64.1708C81.6563 63.9861 81.7388 63.7776 81.7793 63.5576C81.8198 63.3376 81.8174 63.1105 81.7724 62.89C81.7137 62.5939 81.5786 62.319 81.3818 62.0952C81.6459 62.1979 81.8804 62.3714 82.0615 62.598C82.2427 62.8247 82.3639 63.0964 82.4129 63.3855Z" fill="#C20016"/>
</g>
<g opacity="0.1">
<path d="M119.575 78.286L100.628 81.8689L102.715 92.9051L121.662 89.3221L119.575 78.286Z" fill="#C20016"/>
</g>
<path d="M121.24 87.1133L102.293 90.6962C102.293 90.6962 99.137 91.293 98.5114 87.9847C97.8858 84.6764 101.041 84.0754 101.041 84.0754L119.988 80.4924C119.988 80.4924 123.148 79.8949 123.775 83.2074C124.401 86.5199 121.24 87.1133 121.24 87.1133Z" fill="#C20016"/>
<path d="M106.603 86.4544C106.545 86.1199 106.393 85.8094 106.166 85.5627C105.939 85.316 105.649 85.1443 105.331 85.0695C105.013 84.9948 104.683 85.0204 104.383 85.143C104.082 85.2657 103.825 85.4798 103.644 85.7581C103.463 86.0363 103.367 86.3661 103.368 86.7051C103.368 87.0441 103.465 87.377 103.647 87.6612C103.829 87.9454 104.086 88.1681 104.387 88.3006C104.688 88.4331 105.018 88.4696 105.336 88.4052C105.751 88.321 106.116 88.0701 106.353 87.7057C106.59 87.3414 106.68 86.8924 106.603 86.4544Z" fill="#C20016"/>
<g opacity="0.1">
<path d="M106.603 86.4544C106.671 86.8152 106.624 87.1871 106.47 87.5136C106.316 87.84 106.063 88.1032 105.75 88.2631C105.437 88.423 105.081 88.4709 104.736 88.3996C104.391 88.3282 104.076 88.1414 103.838 87.8677C104.108 87.9786 104.401 88.0104 104.684 87.9596C104.896 87.9231 105.097 87.8424 105.277 87.7223C105.457 87.6022 105.611 87.4452 105.731 87.2606C105.851 87.076 105.933 86.8674 105.974 86.6474C106.014 86.4274 106.012 86.2004 105.967 85.9798C105.908 85.6837 105.773 85.4088 105.576 85.1851C105.837 85.2865 106.069 85.4571 106.249 85.6797C106.429 85.9024 106.551 86.1695 106.603 86.4544Z" fill="#C20016"/>
</g>
<path d="M119.247 84.0634C119.189 83.7298 119.037 83.42 118.811 83.1736C118.586 82.9272 118.296 82.7552 117.979 82.6796C117.663 82.604 117.333 82.6282 117.033 82.749C116.733 82.8698 116.476 83.0819 116.294 83.3582C116.112 83.6345 116.013 83.9625 116.011 84.3006C116.009 84.6387 116.103 84.9715 116.282 85.2567C116.461 85.5418 116.715 85.7665 117.014 85.9021C117.313 86.0377 117.642 86.078 117.959 86.018C118.379 85.9386 118.75 85.6891 118.991 85.3234C119.232 84.9576 119.324 84.5051 119.247 84.0634Z" fill="#C20016"/>
<g opacity="0.1">
<path d="M119.247 84.0634C119.288 84.2825 119.288 84.5073 119.245 84.7246C119.203 84.942 119.119 85.1476 118.999 85.3295C118.88 85.5114 118.726 85.6659 118.547 85.7841C118.369 85.9024 118.169 85.9819 117.959 86.018C117.689 86.0713 117.408 86.0497 117.146 85.9555C116.883 85.8612 116.647 85.6975 116.461 85.4805C116.738 85.594 117.038 85.6245 117.327 85.5686C117.537 85.5296 117.736 85.4472 117.913 85.3264C118.091 85.2055 118.243 85.0485 118.36 84.8645C118.478 84.6806 118.559 84.4733 118.598 84.255C118.638 84.0366 118.635 83.8114 118.59 83.5926C118.532 83.2965 118.396 83.0216 118.2 82.7978C118.464 82.896 118.699 83.0646 118.883 83.2868C119.067 83.509 119.193 83.7768 119.247 84.0634Z" fill="#C20016"/>
</g>
<path d="M112.919 85.2601C112.861 84.9255 112.709 84.6151 112.482 84.3684C112.255 84.1217 111.964 83.95 111.647 83.8752C111.329 83.8004 110.999 83.826 110.698 83.9487C110.398 84.0713 110.141 84.2855 109.96 84.5637C109.779 84.842 109.683 85.1717 109.683 85.5107C109.684 85.8498 109.781 86.1827 109.963 86.4669C110.144 86.7511 110.402 86.9737 110.703 87.1063C111.004 87.2388 111.334 87.2752 111.652 87.2109C112.067 87.1267 112.432 86.8757 112.669 86.5114C112.906 86.147 112.995 85.6981 112.919 85.2601Z" fill="#C20016"/>
<g opacity="0.1">
<path d="M112.919 85.2601C112.986 85.6209 112.939 85.9928 112.785 86.3192C112.631 86.6457 112.379 86.9089 112.066 87.0688C111.753 87.2287 111.397 87.2766 111.052 87.2052C110.707 87.1338 110.391 86.9471 110.154 86.6733C110.424 86.7842 110.716 86.816 111 86.7652C111.211 86.7287 111.413 86.6481 111.593 86.528C111.773 86.4079 111.927 86.2509 112.047 86.0663C112.166 85.8816 112.249 85.6731 112.289 85.4531C112.33 85.2331 112.327 85.006 112.282 84.7855C112.224 84.4894 112.089 84.2145 111.892 83.9907C112.153 84.0922 112.385 84.2627 112.565 84.4854C112.745 84.7081 112.867 84.9751 112.919 85.2601Z" fill="#C20016"/>
</g>
<g opacity="0.1">
<path d="M204.068 144.595L185.121 148.178L186.79 157.005L205.737 153.422L204.068 144.595Z" fill="#C20016"/>
</g>
<path d="M205.738 153.426L186.791 157.009C186.791 157.009 183.631 157.607 183.005 154.294C182.378 150.981 185.539 150.388 185.539 150.388L204.486 146.805C204.486 146.805 207.642 146.208 208.268 149.517C208.893 152.825 205.738 153.426 205.738 153.426Z" fill="#C20016"/>
<path d="M189.83 154.719C190.702 154.554 191.269 153.679 191.096 152.764C190.923 151.849 190.076 151.241 189.203 151.406C188.331 151.571 187.764 152.447 187.936 153.361C188.109 154.276 188.957 154.884 189.83 154.719Z" fill="#C20016"/>
<g opacity="0.1">
<path d="M191.096 152.764C191.138 152.983 191.138 153.208 191.096 153.426C191.054 153.644 190.971 153.85 190.851 154.032C190.731 154.215 190.577 154.37 190.399 154.488C190.22 154.607 190.02 154.686 189.81 154.723C189.539 154.776 189.259 154.753 188.997 154.658C188.734 154.563 188.499 154.398 188.315 154.18C188.585 154.291 188.878 154.323 189.161 154.272C189.371 154.236 189.57 154.156 189.749 154.038C189.928 153.92 190.081 153.765 190.201 153.584C190.321 153.402 190.404 153.196 190.447 152.979C190.489 152.761 190.49 152.537 190.449 152.317C190.39 152.013 190.253 151.73 190.053 151.498C190.316 151.597 190.55 151.767 190.733 151.989C190.916 152.211 191.041 152.478 191.096 152.764Z" fill="#C20016"/>
</g>
<path d="M203.728 150.375C203.666 150.048 203.514 149.746 203.289 149.507C203.065 149.268 202.78 149.102 202.468 149.031C202.157 148.959 201.834 148.985 201.54 149.105C201.245 149.225 200.993 149.434 200.815 149.705C200.637 149.977 200.54 150.299 200.537 150.631C200.535 150.962 200.626 151.289 200.8 151.57C200.974 151.851 201.222 152.074 201.514 152.21C201.806 152.345 202.129 152.389 202.441 152.334C202.862 152.254 203.233 152.004 203.474 151.637C203.715 151.271 203.806 150.817 203.728 150.375Z" fill="#C20016"/>
<g opacity="0.1">
<path d="M203.728 150.375C203.795 150.736 203.748 151.108 203.594 151.434C203.44 151.761 203.188 152.024 202.875 152.184C202.562 152.344 202.206 152.392 201.861 152.32C201.515 152.249 201.2 152.062 200.962 151.788C201.23 151.897 201.52 151.929 201.801 151.882C202.083 151.835 202.345 151.71 202.563 151.52C202.78 151.33 202.944 151.082 203.038 150.802C203.132 150.522 203.152 150.219 203.096 149.926C203.039 149.621 202.903 149.338 202.705 149.105C202.964 149.208 203.195 149.379 203.374 149.602C203.553 149.825 203.675 150.091 203.728 150.375Z" fill="#C20016"/>
</g>
<path d="M197.412 151.57C197.35 151.242 197.197 150.939 196.972 150.7C196.747 150.46 196.46 150.295 196.147 150.224C195.835 150.153 195.511 150.18 195.217 150.302C194.922 150.424 194.671 150.635 194.493 150.908C194.316 151.182 194.222 151.505 194.221 151.838C194.221 152.171 194.315 152.498 194.492 152.778C194.669 153.058 194.921 153.279 195.215 153.411C195.509 153.544 195.833 153.584 196.145 153.525C196.562 153.44 196.927 153.188 197.164 152.823C197.401 152.458 197.49 152.008 197.412 151.57Z" fill="#C20016"/>
<g opacity="0.1">
<path d="M197.412 151.569C197.454 151.787 197.454 152.01 197.413 152.226C197.372 152.443 197.29 152.647 197.172 152.829C197.054 153.011 196.903 153.166 196.727 153.285C196.551 153.404 196.353 153.486 196.145 153.524C195.875 153.577 195.594 153.555 195.332 153.46C195.07 153.365 194.835 153.2 194.651 152.982C194.921 153.093 195.213 153.125 195.497 153.074C195.706 153.038 195.906 152.958 196.085 152.84C196.263 152.722 196.417 152.567 196.537 152.385C196.657 152.203 196.74 151.998 196.783 151.78C196.825 151.563 196.826 151.338 196.784 151.119C196.726 150.815 196.589 150.531 196.389 150.299C196.648 150.403 196.879 150.574 197.058 150.796C197.238 151.019 197.359 151.285 197.412 151.569Z" fill="#C20016"/>
</g>
<g opacity="0.1">
<path d="M145.425 99.6816L134.898 101.672L138.654 121.535L149.181 119.544L145.425 99.6816Z" fill="#C20016"/>
</g>
<path d="M143.318 100.085L147.073 119.943C147.073 119.943 147.7 123.255 144.54 123.853C141.38 124.451 140.758 121.137 140.758 121.137L137.002 101.279C137.002 101.279 136.376 97.9663 139.532 97.3696C142.688 96.7728 143.318 100.085 143.318 100.085Z" fill="#C20016"/>
<path d="M144.829 116.728C144.767 116.4 144.614 116.097 144.388 115.858C144.163 115.618 143.876 115.453 143.563 115.382C143.251 115.311 142.927 115.339 142.632 115.461C142.338 115.583 142.086 115.795 141.909 116.069C141.732 116.342 141.638 116.666 141.638 116.999C141.639 117.332 141.734 117.659 141.911 117.939C142.088 118.219 142.34 118.439 142.635 118.571C142.93 118.704 143.254 118.742 143.566 118.682C143.982 118.597 144.346 118.345 144.582 117.98C144.818 117.615 144.907 117.166 144.829 116.728Z" fill="#C20016"/>
<g opacity="0.1">
<path d="M144.829 116.728C144.871 116.945 144.871 117.168 144.83 117.384C144.789 117.6 144.708 117.804 144.59 117.986C144.473 118.167 144.322 118.322 144.146 118.442C143.971 118.561 143.774 118.643 143.566 118.682C143.295 118.735 143.014 118.714 142.751 118.619C142.488 118.523 142.253 118.359 142.068 118.14C142.344 118.254 142.644 118.284 142.934 118.229C143.35 118.144 143.716 117.892 143.952 117.527C144.189 117.162 144.278 116.712 144.2 116.273C144.144 115.97 144.007 115.687 143.806 115.458C144.066 115.56 144.297 115.731 144.476 115.954C144.656 116.177 144.777 116.443 144.829 116.728Z" fill="#C20016"/>
</g>
<path d="M142.325 103.486C142.263 103.159 142.11 102.858 141.886 102.618C141.662 102.379 141.376 102.213 141.065 102.142C140.754 102.07 140.431 102.096 140.137 102.216C139.842 102.336 139.59 102.545 139.412 102.816C139.234 103.088 139.137 103.41 139.134 103.742C139.132 104.074 139.223 104.4 139.397 104.681C139.571 104.962 139.819 105.185 140.111 105.321C140.403 105.456 140.726 105.5 141.038 105.445C141.459 105.365 141.83 105.115 142.071 104.749C142.312 104.382 142.403 103.928 142.325 103.486Z" fill="#C20016"/>
<g opacity="0.1">
<path d="M142.325 103.486C142.367 103.703 142.367 103.926 142.326 104.142C142.285 104.358 142.203 104.563 142.086 104.744C141.969 104.926 141.818 105.081 141.642 105.2C141.467 105.32 141.269 105.401 141.062 105.44C140.791 105.494 140.51 105.472 140.247 105.377C139.984 105.282 139.749 105.117 139.564 104.899C139.84 105.012 140.14 105.043 140.43 104.987C140.849 104.902 141.217 104.647 141.454 104.277C141.69 103.907 141.776 103.452 141.692 103.011C141.634 102.715 141.499 102.44 141.302 102.216C141.562 102.319 141.793 102.49 141.972 102.712C142.152 102.935 142.273 103.202 142.325 103.486Z" fill="#C20016"/>
</g>
<path d="M143.576 110.103C143.514 109.776 143.362 109.474 143.138 109.235C142.913 108.996 142.628 108.83 142.316 108.758C142.005 108.687 141.682 108.713 141.388 108.833C141.094 108.953 140.842 109.162 140.663 109.433C140.485 109.705 140.388 110.027 140.386 110.358C140.383 110.69 140.474 111.017 140.648 111.298C140.822 111.579 141.07 111.801 141.362 111.937C141.654 112.073 141.977 112.116 142.289 112.062C142.71 111.982 143.081 111.732 143.322 111.365C143.563 110.999 143.654 110.545 143.576 110.103Z" fill="#C20016"/>
<g opacity="0.1">
<path d="M143.576 110.103C143.621 110.321 143.624 110.546 143.584 110.764C143.545 110.982 143.464 111.189 143.347 111.373C143.23 111.557 143.079 111.714 142.902 111.835C142.725 111.956 142.527 112.038 142.318 112.078C142.046 112.131 141.766 112.109 141.503 112.014C141.24 111.919 141.004 111.754 140.819 111.536C141.095 111.65 141.395 111.68 141.685 111.624C142.101 111.54 142.467 111.288 142.703 110.923C142.94 110.558 143.029 110.108 142.952 109.669C142.895 109.365 142.759 109.083 142.557 108.854C142.814 108.955 143.042 109.123 143.221 109.342C143.399 109.56 143.522 109.822 143.576 110.103Z" fill="#C20016"/>
</g>
<path d="M67.9909 90.8984C67.7601 89.6782 65.048 86.8817 65.048 86.8817C65.048 86.8817 63.5483 90.4747 63.779 91.6949C63.9103 92.2593 64.2441 92.7527 64.7109 93.0723C65.1777 93.3918 65.7415 93.5129 66.2846 93.4102C66.8278 93.3075 67.3084 92.9889 67.6263 92.521C67.9442 92.053 68.0748 91.4718 67.9909 90.8984Z" fill="#00F2F5"/>
<path d="M147.073 119.943L148.222 126.014C148.277 126.307 148.441 126.566 148.677 126.736C148.913 126.906 149.203 126.971 149.482 126.918C149.761 126.866 150.007 126.699 150.165 126.455C150.323 126.211 150.381 125.909 150.325 125.617L145.839 101.892C145.839 101.892 145.422 99.6867 143.318 100.085L147.073 119.943Z" fill="#00F2F5"/>
<path d="M109.661 89.303C110.717 89.1033 110.925 90.2061 111.977 90.0071C113.029 89.8082 112.821 88.7054 113.873 88.5065C114.925 88.3076 115.133 89.4104 116.185 89.2114C117.237 89.0125 117.028 87.9097 118.084 87.71C118.223 87.6809 118.366 87.6814 118.505 87.7114C118.644 87.7415 118.776 87.8005 118.894 87.8849C119.012 87.9693 119.112 88.0774 119.19 88.2026C119.267 88.3279 119.32 88.4678 119.345 88.6139L120.388 94.132C120.444 94.4245 120.608 94.684 120.844 94.8535C121.08 95.023 121.37 95.0886 121.649 95.0358C121.928 94.9831 122.173 94.8163 122.332 94.5722C122.49 94.328 122.548 94.0266 122.492 93.7341L121.24 87.1133L109.661 89.303Z" fill="#00F2F5"/>
</g>
<defs>
<clipPath id="clip0_1_7152">
<rect width="183.184" height="155.533" fill="white" transform="translate(0 34.0372) rotate(-10.7083)"/>
</clipPath>
</defs>
</svg>
